<svg width="29" height="46" viewBox="0 0 29 46" fill="none" xmlns="http://www.w3.org/2000/svg">
<path d="M12.592 27.888C15.0667 24.0907 16.752 21.232 17.648 19.312C18.5867 17.392 19.056 15.5787 19.056 13.872C19.056 12.0373 18.5227 10.608 17.456 9.584C16.432 8.51733 15.0027 7.984 13.168 7.984C11.12 7.984 9.22133 8.47466 7.472 9.456C5.72267 10.4373 4.016 11.76 2.352 13.424L1.328 5.168C3.33333 3.54666 5.424 2.33066 7.6 1.52C9.776 0.70933 12.1867 0.303997 14.832 0.303997C17.4347 0.303997 19.6533 0.858664 21.488 1.968C23.3227 3.03466 24.688 4.48533 25.584 6.32C26.5227 8.15467 26.992 10.1813 26.992 12.4C26.992 14.9173 26.4373 17.4987 25.328 20.144C24.2613 22.7893 22.3627 26.1813 19.632 30.32L14.384 38.32H28.592V46H0.816L12.592 27.888Z" fill="#FEFBEB"/>
</svg>
