<svg width="29" height="47" viewBox="0 0 29 47" fill="none" xmlns="http://www.w3.org/2000/svg">
<path d="M20.72 22.32C23.1947 23.1307 25.136 24.4747 26.544 26.352C27.9947 28.2293 28.72 30.5333 28.72 33.264C28.72 37.5733 27.2693 40.9227 24.368 43.312C21.5093 45.7013 17.648 46.896 12.784 46.896C10.3093 46.896 7.96267 46.6187 5.744 46.064C3.568 45.5093 1.712 44.8267 0.176 44.016L2.16 37.104C5.82933 38.9387 9.37067 39.856 12.784 39.856C15.1733 39.856 17.0507 39.3013 18.416 38.192C19.824 37.0827 20.528 35.44 20.528 33.264C20.528 28.7413 17.776 26.48 12.272 26.48H7.728V18.8H12.208C14.512 18.8 16.2613 18.288 17.456 17.264C18.6933 16.1973 19.312 14.704 19.312 12.784C19.312 11.12 18.736 9.79733 17.584 8.816C16.4747 7.83466 14.8747 7.344 12.784 7.344C11.0773 7.344 9.41333 7.6 7.792 8.112C6.21333 8.624 4.57067 9.37066 2.864 10.352L1.648 3.12C5.232 1.24266 9.22133 0.303997 13.616 0.303997C17.8827 0.303997 21.1893 1.37066 23.536 3.504C25.9253 5.59467 27.12 8.34667 27.12 11.76C27.12 14.192 26.5653 16.3253 25.456 18.16C24.3467 19.952 22.768 21.3387 20.72 22.32Z" fill="#FEFBEB"/>
</svg>
