<svg width="24" height="24" viewBox="0 0 24 24" fill="none" xmlns="http://www.w3.org/2000/svg">
<path d="M18 8.25H16.7438C16.6259 7.74272 16.4244 7.2586 16.1475 6.8175L17.04 5.92875C17.1103 5.85795 17.1497 5.76225 17.1497 5.6625C17.1497 5.56276 17.1103 5.46705 17.04 5.39625L15.9788 4.335C15.9079 4.26474 15.8122 4.22532 15.7125 4.22532C15.6128 4.22532 15.5171 4.26474 15.4462 4.335L14.5575 5.2275C14.1164 4.95063 13.6323 4.74913 13.125 4.63125V3.375C13.125 3.27554 13.0855 3.18016 13.0152 3.10984C12.9448 3.03951 12.8495 3 12.75 3H11.25C11.1505 3 11.0552 3.03951 10.9848 3.10984C10.9145 3.18016 10.875 3.27554 10.875 3.375V4.63125C10.3677 4.74913 9.8836 4.95063 9.4425 5.2275L8.55375 4.335C8.48295 4.26474 8.38725 4.22532 8.2875 4.22532C8.18776 4.22532 8.09205 4.26474 8.02125 4.335L6.96 5.39625C6.88974 5.46705 6.85032 5.56276 6.85032 5.6625C6.85032 5.76225 6.88974 5.85795 6.96 5.92875L7.8525 6.8175C7.57563 7.2586 7.37413 7.74272 7.25625 8.25H6C5.90054 8.25 5.80516 8.28951 5.73484 8.35983C5.66451 8.43016 5.625 8.52554 5.625 8.625V10.125C5.625 10.2245 5.66451 10.3198 5.73484 10.3902C5.80516 10.4605 5.90054 10.5 6 10.5H7.25625C7.37413 11.0073 7.57563 11.4914 7.8525 11.9325L6.96 12.8212C6.88974 12.8921 6.85032 12.9878 6.85032 13.0875C6.85032 13.1872 6.88974 13.2829 6.96 13.3538L8.02125 14.415C8.09205 14.4853 8.18776 14.5247 8.2875 14.5247C8.38725 14.5247 8.48295 14.4853 8.55375 14.415L9.4425 13.5225C9.8836 13.7994 10.3677 14.0009 10.875 14.1188V15.375C10.875 15.4745 10.9145 15.5698 10.9848 15.6402C11.0552 15.7105 11.1505 15.75 11.25 15.75H12.75C12.8495 15.75 12.9448 15.7105 13.0152 15.6402C13.0855 15.5698 13.125 15.4745 13.125 15.375V14.1188C13.6323 14.0009 14.1164 13.7994 14.5575 13.5225L15.4462 14.415C15.5171 14.4853 15.6128 14.5247 15.7125 14.5247C15.8122 14.5247 15.9079 14.4853 15.9788 14.415L17.04 13.3538C17.1103 13.2829 17.1497 13.1872 17.1497 13.0875C17.1497 12.9878 17.1103 12.8921 17.04 12.8212L16.1475 11.9325C16.4244 11.4914 16.6259 11.0073 16.7438 10.5H18C18.0995 10.5 18.1948 10.4605 18.2652 10.3902C18.3355 10.3198 18.375 10.2245 18.375 10.125V8.625C18.375 8.52554 18.3355 8.43016 18.2652 8.35983C18.1948 8.28951 18.0995 8.25 18 8.25ZM15 9.75C15 9.84946 14.9605 9.94484 14.8902 10.0152C14.8198 10.0855 14.7245 10.125 14.625 10.125H13.125C13.0255 10.125 12.9302 10.1645 12.8598 10.2348C12.7895 10.3052 12.75 10.4005 12.75 10.5V12C12.75 12.0995 12.7105 12.1948 12.6402 12.2652C12.5698 12.3355 12.4745 12.375 12.375 12.375H11.625C11.5255 12.375 11.4302 12.3355 11.3598 12.2652C11.2895 12.1948 11.25 12.0995 11.25 12V10.5C11.25 10.4005 11.2105 10.3052 11.1402 10.2348C11.0698 10.1645 10.9745 10.125 10.875 10.125H9.375C9.27554 10.125 9.18016 10.0855 9.10983 10.0152C9.03951 9.94484 9 9.84946 9 9.75V9C9 8.90054 9.03951 8.80516 9.10983 8.73483C9.18016 8.66451 9.27554 8.625 9.375 8.625H10.875C10.9745 8.625 11.0698 8.58549 11.1402 8.51517C11.2105 8.44484 11.25 8.34946 11.25 8.25V6.75C11.25 6.65054 11.2895 6.55516 11.3598 6.48483C11.4302 6.41451 11.5255 6.375 11.625 6.375H12.375C12.4745 6.375 12.5698 6.41451 12.6402 6.48483C12.7105 6.55516 12.75 6.65054 12.75 6.75V8.25C12.75 8.34946 12.7895 8.44484 12.8598 8.51517C12.9302 8.58549 13.0255 8.625 13.125 8.625H14.625C14.7245 8.625 14.8198 8.66451 14.8902 8.73483C14.9605 8.80516 15 8.90054 15 9V9.75Z" fill="white"/>
<path d="M9.75 18.375H14.25V19.4944H9.75V18.375Z" fill="white"/>
<path d="M9.75 19.4944H14.25V20.6194H9.75V19.4944Z" fill="white"/>
<path d="M9.75 21C9.75 21.1989 9.82902 21.3897 9.96967 21.5303C10.1103 21.671 10.3011 21.75 10.5 21.75H13.5C13.6989 21.75 13.8897 21.671 14.0303 21.5303C14.171 21.3897 14.25 21.1989 14.25 21V20.6194H9.75V21Z" fill="white"/>
<path d="M11.625 22.875H12.375C12.6734 22.875 12.9595 22.7565 13.1705 22.5455C13.3815 22.3345 13.5 22.0484 13.5 21.75H10.5C10.5 22.0484 10.6185 22.3345 10.8295 22.5455C11.0405 22.7565 11.3266 22.875 11.625 22.875Z" fill="white"/>
<path d="M12.75 16.125H11.25C11.0511 16.125 10.8603 16.046 10.7197 15.9053C10.579 15.7647 10.5 15.5739 10.5 15.375V14.4071C10.1539 14.3058 9.81971 14.1675 9.50325 13.9946L8.81962 14.6813C8.67626 14.8178 8.48586 14.894 8.28788 14.894C8.08989 14.894 7.89949 14.8178 7.75613 14.6813L6.69488 13.62C6.55432 13.4789 6.4754 13.2878 6.4754 13.0886C6.4754 12.8894 6.55432 12.6984 6.69488 12.5573L7.38263 11.8729C7.2089 11.5561 7.06972 11.2215 6.9675 10.875H6C5.80109 10.875 5.61032 10.796 5.46967 10.6553C5.32902 10.5147 5.25 10.3239 5.25 10.125V8.625C5.25 8.42609 5.32902 8.23532 5.46967 8.09467C5.61032 7.95402 5.80109 7.875 6 7.875H6.9675C7.06968 7.52886 7.20872 7.1947 7.38225 6.87825L6.69525 6.19462C6.55437 6.05352 6.47525 5.86227 6.47525 5.66287C6.47525 5.46348 6.55437 5.27223 6.69525 5.13112L7.7565 4.06987C7.8998 3.93335 8.09014 3.8572 8.28806 3.8572C8.48599 3.8572 8.67632 3.93335 8.81962 4.06987L9.50363 4.7565C9.81992 4.58321 10.154 4.44454 10.5 4.34288V3.375C10.5 3.17609 10.579 2.98532 10.7197 2.84467C10.8603 2.70402 11.0511 2.625 11.25 2.625H12.75C12.9489 2.625 13.1397 2.70402 13.2803 2.84467C13.421 2.98532 13.5 3.17609 13.5 3.375V4.34288C13.8461 4.44415 14.1803 4.58245 14.4968 4.75537L15.1804 4.06875C15.3238 3.93229 15.5142 3.85618 15.7121 3.85618C15.9101 3.85618 16.1005 3.93229 16.2439 4.06875L17.3051 5.13C17.4459 5.27103 17.5249 5.46213 17.5249 5.66138C17.5249 5.86062 17.4459 6.05172 17.3051 6.19275L16.6174 6.87713C16.7911 7.19392 16.9303 7.52846 17.0325 7.875H18C18.1989 7.875 18.3897 7.95402 18.5303 8.09467C18.671 8.23532 18.75 8.42609 18.75 8.625V10.125C18.75 10.3239 18.671 10.5147 18.5303 10.6553C18.3897 10.796 18.1989 10.875 18 10.875H17.0325C16.9303 11.2211 16.7913 11.5553 16.6178 11.8717L17.3048 12.5554C17.4454 12.6965 17.5244 12.8877 17.5244 13.0869C17.5244 13.2862 17.4454 13.4774 17.3048 13.6185L16.2431 14.6801C16.0998 14.8166 15.9095 14.8928 15.7116 14.8928C15.5136 14.8928 15.3233 14.8166 15.18 14.6801L14.496 13.9935C14.1798 14.1668 13.8459 14.3054 13.5 14.4071V15.375C13.5 15.5739 13.421 15.7647 13.2803 15.9053C13.1397 16.046 12.9489 16.125 12.75 16.125ZM9.38813 13.0455L9.642 13.2052C10.0479 13.4601 10.4935 13.6454 10.9605 13.7535L11.25 13.821V15.375H12.75V13.821L13.0395 13.7535C13.5065 13.6454 13.9521 13.4601 14.358 13.2052L14.6119 13.0455L15.7125 14.1503L16.7749 13.0875L15.6701 11.9854L15.8303 11.7315C16.0852 11.3257 16.2707 10.8802 16.3789 10.4134L16.4464 10.1239H18V8.625H16.4464L16.3789 8.3355C16.2707 7.86865 16.0852 7.42314 15.8303 7.01737L15.6701 6.7635L16.7756 5.6625L15.7125 4.60013L14.6108 5.7045L14.3569 5.54475C13.951 5.28986 13.5053 5.10456 13.0384 4.9965L12.75 4.929V3.375H11.25V4.929L10.9605 4.9965C10.4935 5.10456 10.0479 5.28986 9.642 5.54475L9.38813 5.7045L8.2875 4.59975L7.22513 5.6625L8.32987 6.76462L8.16975 7.0185C7.91476 7.42427 7.72934 7.86977 7.62113 8.33663L7.55363 8.62613H6V10.1261H7.55363L7.62113 10.4156C7.72934 10.8825 7.91476 11.328 8.16975 11.7338L8.32987 11.9876L7.22437 13.0875L8.2875 14.1499L9.38813 13.0455Z" fill="#072568"/>
<path d="M17.7521 2.94796C16.5678 1.88768 15.1136 1.17528 13.55 0.889411C11.9864 0.603543 10.3742 0.755331 8.8914 1.32801C7.40862 1.9007 6.11293 2.872 5.1474 4.13468C4.18186 5.39736 3.58404 6.9023 3.41994 8.48334C3.23661 10.2799 3.62021 12.0889 4.51694 13.6564C5.41367 15.224 6.77856 16.4716 8.42019 17.2242C8.48259 17.2544 8.53503 17.3019 8.57132 17.361C8.6076 17.42 8.62621 17.4883 8.62494 17.5576V17.6251C8.6259 17.8569 8.69847 18.0828 8.83272 18.2719C8.96697 18.4609 9.15635 18.6038 9.37494 18.6811V21.0001C9.37577 21.2382 9.4523 21.4699 9.59345 21.6617C9.7346 21.8535 9.93308 21.9954 10.1602 22.067C10.2325 22.4018 10.4173 22.7017 10.6838 22.917C10.9503 23.1322 11.2824 23.2498 11.6249 23.2501H12.3749C12.7175 23.2498 13.0496 23.1322 13.3161 22.917C13.5825 22.7017 13.7673 22.4018 13.8397 22.067C14.0668 21.9954 14.2653 21.8535 14.4064 21.6617C14.5476 21.4699 14.6241 21.2382 14.6249 21.0001V18.6811C14.8435 18.6038 15.0329 18.4609 15.1672 18.2719C15.3014 18.0828 15.374 17.8569 15.3749 17.6251V17.5572C15.374 17.4876 15.3931 17.4192 15.4297 17.36C15.4664 17.3008 15.5192 17.2533 15.5819 17.2231C16.8854 16.6277 18.02 15.7171 18.8833 14.5734C19.7466 13.4297 20.3115 12.089 20.5268 10.6723C20.7422 9.25562 20.6013 7.80761 20.1169 6.45902C19.6324 5.11044 18.8197 3.90376 17.7521 2.94796ZM13.8749 19.1195H10.1249V18.7501H13.8749V19.1195ZM10.1249 19.8695H13.8749V20.2445H10.1249V19.8695ZM12.3749 22.5001H11.6249C11.4934 22.5 11.3641 22.4653 11.2502 22.3995C11.1362 22.3337 11.0416 22.239 10.9758 22.1251H13.0241C12.9583 22.239 12.8637 22.3337 12.7497 22.3995C12.6358 22.4653 12.5065 22.5 12.3749 22.5001ZM13.4999 21.3751H10.4999C10.4005 21.3751 10.3051 21.3356 10.2348 21.2653C10.1644 21.1949 10.1249 21.0995 10.1249 21.0001V20.9945H13.8749V21.0001C13.8749 21.0995 13.8354 21.1949 13.7651 21.2653C13.6948 21.3356 13.5994 21.3751 13.4999 21.3751ZM15.2699 16.5413C15.0766 16.6313 14.913 16.7748 14.7987 16.9549C14.6844 17.1349 14.6241 17.3439 14.6249 17.5572V17.6251C14.6249 17.7245 14.5854 17.8199 14.5151 17.8903C14.4448 17.9606 14.3494 18.0001 14.2499 18.0001H9.74994C9.65048 18.0001 9.5551 17.9606 9.48477 17.8903C9.41445 17.8199 9.37494 17.7245 9.37494 17.6251V17.5576C9.37598 17.3445 9.31597 17.1356 9.202 16.9556C9.08802 16.7755 8.92486 16.6319 8.73181 16.5417C7.16454 15.8285 5.87425 14.6212 5.05852 13.1047C4.24278 11.5882 3.94657 9.8462 4.21524 8.14535C4.48391 6.4445 5.30265 4.87859 6.54609 3.6874C7.78953 2.49621 9.38913 1.74541 11.0999 1.54996C11.4025 1.51642 11.7067 1.49977 12.0112 1.50009C13.9469 1.49406 15.8153 2.20962 17.2518 3.50709C18.2266 4.37982 18.9687 5.48163 19.411 6.71301C19.8533 7.94439 19.982 9.26656 19.7853 10.5601C19.5886 11.8536 19.0728 13.0778 18.2845 14.1221C17.4961 15.1663 16.4601 15.9978 15.2699 16.5413Z" fill="white"/>
<path d="M14.625 8.25H13.125V6.75C13.125 6.55109 13.046 6.36032 12.9053 6.21967C12.7647 6.07902 12.5739 6 12.375 6H11.625C11.4261 6 11.2353 6.07902 11.0947 6.21967C10.954 6.36032 10.875 6.55109 10.875 6.75V8.25H9.375C9.17609 8.25 8.98532 8.32902 8.84467 8.46967C8.70402 8.61032 8.625 8.80109 8.625 9V9.75C8.625 9.94891 8.70402 10.1397 8.84467 10.2803C8.98532 10.421 9.17609 10.5 9.375 10.5H10.875V12C10.875 12.1989 10.954 12.3897 11.0947 12.5303C11.2353 12.671 11.4261 12.75 11.625 12.75H12.375C12.5739 12.75 12.7647 12.671 12.9053 12.5303C13.046 12.3897 13.125 12.1989 13.125 12V10.5H14.625C14.8239 10.5 15.0147 10.421 15.1553 10.2803C15.296 10.1397 15.375 9.94891 15.375 9.75V9C15.375 8.80109 15.296 8.61032 15.1553 8.46967C15.0147 8.32902 14.8239 8.25 14.625 8.25ZM14.625 9.75H13.125C12.9261 9.75 12.7353 9.82902 12.5947 9.96967C12.454 10.1103 12.375 10.3011 12.375 10.5V12H11.625V10.5C11.625 10.3011 11.546 10.1103 11.4053 9.96967C11.2647 9.82902 11.0739 9.75 10.875 9.75H9.375V9H10.875C11.0739 9 11.2647 8.92098 11.4053 8.78033C11.546 8.63968 11.625 8.44891 11.625 8.25V6.75H12.375V8.25C12.375 8.44891 12.454 8.63968 12.5947 8.78033C12.7353 8.92098 12.9261 9 13.125 9H14.625V9.75Z" fill="#072568"/>
</svg>
