<svg width="861" height="1108" viewBox="0 0 861 1108" fill="none" xmlns="http://www.w3.org/2000/svg">
<path d="M554 79.2051C271.59 79.2051 42.8485 235.45 42.8485 517.644C42.8485 800.054 271.806 1028.8 554 1028.8C836.194 1028.8 1065.15 799.838 1065.15 517.644C1065.15 235.234 836.41 79.2051 554 79.2051Z" fill="#D5EAFD"/>
<path d="M842.686 490.16C842.686 532.792 830.567 574.559 807.412 610.482C776.033 661.338 737.296 706.999 692.284 746.169C668.695 767.81 642.51 786.204 614.161 800.703C611.131 802.218 608.318 803.733 605.288 805.248C586.894 813.688 568.066 819.747 547.508 817.583C528.897 815.419 511.801 809.143 495.57 800.92C488.645 797.457 481.937 793.562 475.228 789.45C410.306 748.982 357.287 695.746 312.923 633.854C287.604 598.58 268.777 560.276 264.448 516.129C260.12 471.766 267.045 429.999 291.066 391.912C321.58 340.624 381.091 314.006 439.521 325.692C474.579 332.184 506.823 349.496 531.71 375.249C538.635 382.174 545.127 389.748 551.62 397.106C552.052 397.106 552.485 396.889 552.918 396.456C554.433 394.509 555.948 392.778 557.246 391.046C574.559 368.54 596.632 349.929 621.952 336.945C678.434 308.163 742.49 315.521 787.935 357.503C826.888 392.778 842.037 438.656 842.686 490.16Z" fill="white"/>
<path d="M651.383 526.733C650.517 521.972 644.891 516.562 640.13 515.48C636.451 514.614 630.175 519.375 627.362 523.054C624.548 526.733 624.548 532.36 623.683 537.553C620.437 555.299 616.974 573.693 613.728 591.439C611.78 601.393 596.848 599.878 597.281 589.491C597.281 589.491 597.281 589.491 597.281 589.058C599.662 554.433 601.393 520.241 603.341 485.616C603.773 475.661 602.475 466.789 590.573 466.789C578.887 466.789 577.588 475.228 576.506 484.967C574.126 518.293 571.312 550.971 569.148 584.297C568.716 588.409 564.82 592.304 560.709 591.871C555.082 591.439 555.515 588.625 555.515 581.484C555.948 564.604 555.515 547.292 555.515 530.412C555.515 507.906 555.948 484.967 555.082 462.46C555.082 459.647 554.216 457.699 551.836 455.103C548.59 451.857 538.202 450.774 534.523 453.155C532.143 454.67 531.277 455.968 529.762 460.729C528.464 464.624 528.897 469.169 528.897 473.497V586.028C528.897 590.14 527.598 592.953 523.703 593.386L521.755 593.819C517.644 594.252 513.316 591.439 512.45 587.327C507.689 555.082 503.144 522.621 498.384 490.377C497.085 481.937 489.944 476.743 483.884 478.258C473.064 479.124 473.064 486.698 471.766 492.757C470.467 498.384 472.631 505.309 473.713 512.017C478.907 553.784 483.884 594.901 489.078 636.667C489.944 645.973 491.026 654.413 480.638 654.413C474.579 654.413 466.572 648.786 462.893 643.16C454.886 631.041 449.259 616.974 442.767 603.774C438.439 595.334 426.753 586.461 418.962 592.953C412.037 599.013 411.388 607.453 415.284 615.892C429.783 650.517 443.416 686.224 458.348 720.849C463.542 732.535 471.116 743.356 479.34 752.661C490.16 764.78 495.787 777.981 495.787 793.778V800.703C512.017 808.927 528.897 815.203 547.724 817.367C568.283 819.531 587.11 813.471 605.505 805.031C608.534 803.517 611.348 802.218 614.377 800.487C614.377 792.48 614.594 783.824 614.81 773.869C615.243 763.914 643.809 731.237 640.13 681.464C638.182 634.071 641.428 594.252 649.002 548.374C650.084 541.232 652.898 533.658 651.383 526.733Z" fill="white"/>
</svg>
