<svg width="24" height="24" viewBox="0 0 24 24" fill="none" xmlns="http://www.w3.org/2000/svg">
<path d="M21 11.8875V4.125H20.8144C18.0012 4.12496 15.2509 3.29224 12.9101 1.73175L12 1.125L11.1038 1.725C8.77626 3.27975 6.04237 4.11449 3.24338 4.125H3V11.8875C3.00034 13.8372 3.54351 15.7482 4.56865 17.4066C5.59379 19.065 7.06042 20.4052 8.80425 21.2771L12 22.875L15.1957 21.2771C16.9396 20.4052 18.4062 19.065 19.4313 17.4066C20.4565 15.7482 20.9997 13.8372 21 11.8875ZM14.1896 19.2645L12 20.3595L9.81037 19.2645C8.437 18.5836 7.28182 17.5317 6.47579 16.2278C5.66977 14.924 5.24512 13.4204 5.25 11.8875V6.24563C7.65079 5.94562 9.95569 5.11906 12 3.825C14.0442 5.11964 16.3491 5.94684 18.75 6.2475V11.8875C18.7549 13.4204 18.3302 14.924 17.5242 16.2278C16.7182 17.5317 15.563 18.5836 14.1896 19.2645Z" fill="white"/>
<path d="M15.75 10.5H13.875C13.7755 10.5 13.6802 10.4605 13.6098 10.3902C13.5395 10.3198 13.5 10.2245 13.5 10.125V8.25C13.5 8.15054 13.4605 8.05516 13.3902 7.98483C13.3198 7.91451 13.2245 7.875 13.125 7.875H10.875C10.7755 7.875 10.6802 7.91451 10.6098 7.98483C10.5395 8.05516 10.5 8.15054 10.5 8.25V10.125C10.5 10.2245 10.4605 10.3198 10.3902 10.3902C10.3198 10.4605 10.2245 10.5 10.125 10.5H8.25C8.15054 10.5 8.05516 10.5395 7.98483 10.6098C7.91451 10.6802 7.875 10.7755 7.875 10.875V13.125C7.875 13.2245 7.91451 13.3198 7.98483 13.3902C8.05516 13.4605 8.15054 13.5 8.25 13.5H10.125C10.2245 13.5 10.3198 13.5395 10.3902 13.6098C10.4605 13.6802 10.5 13.7755 10.5 13.875V15.75C10.5 15.8495 10.5395 15.9448 10.6098 16.0152C10.6802 16.0855 10.7755 16.125 10.875 16.125H13.125C13.2245 16.125 13.3198 16.0855 13.3902 16.0152C13.4605 15.9448 13.5 15.8495 13.5 15.75V13.875C13.5 13.7755 13.5395 13.6802 13.6098 13.6098C13.6802 13.5395 13.7755 13.5 13.875 13.5H15.75C15.8495 13.5 15.9448 13.4605 16.0152 13.3902C16.0855 13.3198 16.125 13.2245 16.125 13.125V10.875C16.125 10.7755 16.0855 10.6802 16.0152 10.6098C15.9448 10.5395 15.8495 10.5 15.75 10.5Z" fill="white"/>
<path d="M12.0001 23.2943L8.63631 21.6124C6.82594 20.7148 5.30324 19.3279 4.24078 17.6091C3.17832 15.8903 2.6186 13.9082 2.62506 11.8875V3.75005H3.24193C5.96766 3.74147 8.63015 2.92808 10.8953 1.41192L12.0001 0.675049L13.1183 1.42055C15.3965 2.94203 18.0752 3.75279 20.8148 3.75005H21.3751V11.8875C21.3815 13.9082 20.8218 15.8903 19.7593 17.6091C18.6969 19.3279 17.1742 20.7148 15.3638 21.6124L12.0001 23.2943ZM3.37506 4.50005V11.8875C3.36902 13.7689 3.89015 15.6143 4.87938 17.2145C5.86861 18.8148 7.28636 20.1059 8.97193 20.9415L12.0001 22.4558L15.0282 20.9415C16.7137 20.1059 18.1315 18.8148 19.1207 17.2145C20.11 15.6143 20.6311 13.7689 20.6251 11.8875V4.50005C17.8019 4.46571 15.0495 3.61242 12.7021 2.0438L12.0001 1.57505L11.3119 2.03555C8.96143 3.60965 6.20375 4.46595 3.37506 4.50005Z" fill="#072568"/>
<path d="M18.7965 5.8745C16.4499 5.58323 14.1972 4.77465 12.201 3.50712L12 3.38037L11.7998 3.50712C9.80309 4.7746 7.54987 5.58292 5.20279 5.87375L4.87504 5.91462V11.8876C4.87 13.4902 5.31398 15.0622 6.15665 16.4253C6.99932 17.7885 8.207 18.8883 9.64279 19.6002L12 20.7789L14.3573 19.6002C15.7931 18.8883 17.0008 17.7885 17.8434 16.4253C18.6861 15.0622 19.1301 13.4902 19.125 11.8876V5.91575L18.7965 5.8745ZM18.375 11.8876C18.3796 13.3508 17.9742 14.786 17.2049 16.0306C16.4355 17.2752 15.3329 18.2794 14.022 18.9294L12 19.9404L9.97804 18.9279C8.6674 18.278 7.56495 17.274 6.7956 16.0297C6.02626 14.7854 5.62076 13.3505 5.62504 11.8876V6.5735C7.88557 6.24857 10.0553 5.46312 12 4.26575C13.9448 5.46308 16.1145 6.24877 18.375 6.57425V11.8876Z" fill="#072568"/>
<path d="M15.75 10.125H13.875V8.25C13.875 8.05109 13.796 7.86032 13.6553 7.71967C13.5147 7.57902 13.3239 7.5 13.125 7.5H10.875C10.6761 7.5 10.4853 7.57902 10.3447 7.71967C10.204 7.86032 10.125 8.05109 10.125 8.25V10.125H8.25C8.05109 10.125 7.86032 10.204 7.71967 10.3447C7.57902 10.4853 7.5 10.6761 7.5 10.875V13.125C7.5 13.3239 7.57902 13.5147 7.71967 13.6553C7.86032 13.796 8.05109 13.875 8.25 13.875H10.125V15.75C10.125 15.9489 10.204 16.1397 10.3447 16.2803C10.4853 16.421 10.6761 16.5 10.875 16.5H13.125C13.3239 16.5 13.5147 16.421 13.6553 16.2803C13.796 16.1397 13.875 15.9489 13.875 15.75V13.875H15.75C15.9489 13.875 16.1397 13.796 16.2803 13.6553C16.421 13.5147 16.5 13.3239 16.5 13.125V10.875C16.5 10.6761 16.421 10.4853 16.2803 10.3447C16.1397 10.204 15.9489 10.125 15.75 10.125ZM15.75 13.125H13.875C13.6761 13.125 13.4853 13.204 13.3447 13.3447C13.204 13.4853 13.125 13.6761 13.125 13.875V15.75H10.875V13.875C10.875 13.6761 10.796 13.4853 10.6553 13.3447C10.5147 13.204 10.3239 13.125 10.125 13.125H8.25V10.875H10.125C10.3239 10.875 10.5147 10.796 10.6553 10.6553C10.796 10.5147 10.875 10.3239 10.875 10.125V8.25H13.125V10.125C13.125 10.3239 13.204 10.5147 13.3447 10.6553C13.4853 10.796 13.6761 10.875 13.875 10.875H15.75V13.125Z" fill="#072568"/>
</svg>
