<svg width="24" height="24" viewBox="0 0 24 24" fill="none" xmlns="http://www.w3.org/2000/svg">
<path d="M12 22.875C14.1509 22.875 16.2534 22.2372 18.0418 21.0422C19.8302 19.8473 21.2241 18.1488 22.0472 16.1617C22.8703 14.1745 23.0857 11.9879 22.666 9.8784C22.2464 7.76885 21.2107 5.83112 19.6898 4.31022C18.1689 2.78932 16.2312 1.75358 14.1216 1.33396C12.0121 0.914351 9.82546 1.12971 7.83832 1.95282C5.85117 2.77592 4.15273 4.16979 2.95777 5.95818C1.76281 7.74656 1.125 9.84913 1.125 12C1.125 14.8842 2.27076 17.6503 4.31021 19.6898C6.34967 21.7292 9.11577 22.875 12 22.875ZM5.25 10.5C5.25059 10.3013 5.3298 10.1109 5.47033 9.97033C5.61085 9.82981 5.80127 9.7506 6 9.75001H9C9.19891 9.75001 9.38968 9.67099 9.53033 9.53034C9.67098 9.38968 9.75 9.19892 9.75 9.00001V6.00001C9.75059 5.80128 9.8298 5.61085 9.97033 5.47033C10.1108 5.32981 10.3013 5.2506 10.5 5.25001H13.5C13.6987 5.2506 13.8892 5.32981 14.0297 5.47033C14.1702 5.61085 14.2494 5.80128 14.25 6.00001V9.00001C14.25 9.19892 14.329 9.38968 14.4697 9.53034C14.6103 9.67099 14.8011 9.75001 15 9.75001H18C18.1987 9.7506 18.3892 9.82981 18.5297 9.97033C18.6702 10.1109 18.7494 10.3013 18.75 10.5V13.5C18.7494 13.6987 18.6702 13.8892 18.5297 14.0297C18.3892 14.1702 18.1987 14.2494 18 14.25H15C14.8011 14.25 14.6103 14.329 14.4697 14.4697C14.329 14.6103 14.25 14.8011 14.25 15V18C14.2494 18.1987 14.1702 18.3892 14.0297 18.5297C13.8892 18.6702 13.6987 18.7494 13.5 18.75H10.5C10.3013 18.7494 10.1108 18.6702 9.97033 18.5297C9.8298 18.3892 9.75059 18.1987 9.75 18V15C9.75 14.8011 9.67098 14.6103 9.53033 14.4697C9.38968 14.329 9.19891 14.25 9 14.25H6C5.80127 14.2494 5.61085 14.1702 5.47033 14.0297C5.3298 13.8892 5.25059 13.6987 5.25 13.5V10.5Z" fill="#072568"/>
<path d="M18 9.375H15C14.9005 9.375 14.8052 9.33549 14.7348 9.26517C14.6645 9.19484 14.625 9.09946 14.625 9V6C14.625 5.70163 14.5065 5.41548 14.2955 5.2045C14.0845 4.99353 13.7984 4.875 13.5 4.875H10.5C10.2016 4.875 9.91548 4.99353 9.7045 5.2045C9.49353 5.41548 9.375 5.70163 9.375 6V9C9.375 9.09946 9.33549 9.19484 9.26517 9.26517C9.19484 9.33549 9.09946 9.375 9 9.375H6C5.70163 9.375 5.41548 9.49353 5.2045 9.7045C4.99353 9.91548 4.875 10.2016 4.875 10.5V13.5C4.875 13.7984 4.99353 14.0845 5.2045 14.2955C5.41548 14.5065 5.70163 14.625 6 14.625H9C9.09946 14.625 9.19484 14.6645 9.26517 14.7348C9.33549 14.8052 9.375 14.9005 9.375 15V18C9.375 18.2984 9.49353 18.5845 9.7045 18.7955C9.91548 19.0065 10.2016 19.125 10.5 19.125H13.5C13.7984 19.125 14.0845 19.0065 14.2955 18.7955C14.5065 18.5845 14.625 18.2984 14.625 18V15C14.625 14.9005 14.6645 14.8052 14.7348 14.7348C14.8052 14.6645 14.9005 14.625 15 14.625H18C18.2984 14.625 18.5845 14.5065 18.7955 14.2955C19.0065 14.0845 19.125 13.7984 19.125 13.5V10.5C19.125 10.2016 19.0065 9.91548 18.7955 9.7045C18.5845 9.49353 18.2984 9.375 18 9.375ZM18.375 13.5C18.375 13.5995 18.3355 13.6948 18.2652 13.7652C18.1948 13.8355 18.0995 13.875 18 13.875H15C14.7016 13.875 14.4155 13.9935 14.2045 14.2045C13.9935 14.4155 13.875 14.7016 13.875 15V18C13.875 18.0995 13.8355 18.1948 13.7652 18.2652C13.6948 18.3355 13.5995 18.375 13.5 18.375H10.5C10.4005 18.375 10.3052 18.3355 10.2348 18.2652C10.1645 18.1948 10.125 18.0995 10.125 18V15C10.125 14.7016 10.0065 14.4155 9.7955 14.2045C9.58452 13.9935 9.29837 13.875 9 13.875H6C5.90054 13.875 5.80516 13.8355 5.73484 13.7652C5.66451 13.6948 5.625 13.5995 5.625 13.5V10.5C5.625 10.4005 5.66451 10.3052 5.73484 10.2348C5.80516 10.1645 5.90054 10.125 6 10.125H9C9.29837 10.125 9.58452 10.0065 9.7955 9.7955C10.0065 9.58452 10.125 9.29837 10.125 9V6C10.125 5.90054 10.1645 5.80516 10.2348 5.73484C10.3052 5.66451 10.4005 5.625 10.5 5.625H13.5C13.5995 5.625 13.6948 5.66451 13.7652 5.73484C13.8355 5.80516 13.875 5.90054 13.875 6V9C13.875 9.29837 13.9935 9.58452 14.2045 9.7955C14.4155 10.0065 14.7016 10.125 15 10.125H18C18.0995 10.125 18.1948 10.1645 18.2652 10.2348C18.3355 10.3052 18.375 10.4005 18.375 10.5V13.5Z" fill="#072568"/>
</svg>
