<svg width="32" height="32" viewBox="0 0 32 32" fill="none" xmlns="http://www.w3.org/2000/svg">
<circle cx="16" cy="16" r="16" fill="#FCE6E3"/>
<path d="M15.3335 10.6667H10.6668C10.3132 10.6667 9.97407 10.8072 9.72402 11.0573C9.47397 11.3073 9.3335 11.6465 9.3335 12.0001V21.3334C9.3335 21.687 9.47397 22.0262 9.72402 22.2762C9.97407 22.5263 10.3132 22.6667 10.6668 22.6667H20.0002C20.3538 22.6667 20.6929 22.5263 20.943 22.2762C21.193 22.0262 21.3335 21.687 21.3335 21.3334V16.6667" stroke="#072568" stroke-width="1.33" stroke-linecap="round" stroke-linejoin="round"/>
<path d="M20.3335 9.66665C20.5987 9.40144 20.9584 9.25244 21.3335 9.25244C21.7086 9.25244 22.0683 9.40144 22.3335 9.66665C22.5987 9.93187 22.7477 10.2916 22.7477 10.6667C22.7477 11.0417 22.5987 11.4014 22.3335 11.6667L16.0002 18L13.3335 18.6667L14.0002 16L20.3335 9.66665Z" stroke="#072568" stroke-width="1.33" stroke-linecap="round" stroke-linejoin="round"/>
</svg>
