<svg width="216" height="535" viewBox="0 0 216 535" fill="none" xmlns="http://www.w3.org/2000/svg">
<path d="M184.377 428.097C226.541 452.405 226.541 492.019 184.377 516.327C142.212 540.636 73.7881 540.636 31.6235 516.327C-10.5412 492.019 -10.5412 452.405 31.6235 428.097C73.7881 403.788 142.212 403.788 184.377 428.097Z" fill="#D9DAD9"/>
<path d="M72.7424 52.9341C70.0415 79.6434 64.1895 105.602 56.2367 130.961H128.712C133.363 106.503 135.914 81.2939 128.712 52.9341H72.7424Z" fill="#181B21"/>
<path d="M123.912 81.915C134.866 82.2151 137.867 86.5667 144.469 96.0199C151.072 105.473 168.328 143.286 168.328 143.286C168.328 143.286 171.329 162.343 157.674 159.492C153.172 158.592 150.021 154.99 147.921 151.689C146.12 148.988 132.315 127.231 132.315 127.231L123.762 81.915H123.912Z" fill="#E7E8E5"/>
<path d="M115.668 82.2174C126.022 79.6665 130.523 85.3685 133.974 91.6707C139.526 101.724 142.828 122.281 143.278 159.944C143.578 184.103 151.981 213.363 153.481 236.321C155.732 270.833 156.782 297.692 156.782 297.692C156.782 297.692 127.222 293.491 95.261 294.091L115.668 82.3674V82.2174Z" fill="#DADBD8"/>
<path d="M56.2563 432.868C56.2563 432.868 50.1042 390.553 52.6551 365.795C54.9059 344.487 58.057 335.634 58.5071 330.833C58.5071 330.833 62.1084 280.865 61.058 238.551C60.6078 218.444 61.6582 196.386 75.9132 172.678L76.3633 171.777C77.5637 179.58 89.5679 184.532 100.222 185.732C110.425 186.933 123.33 184.832 138.635 179.58C142.086 199.687 145.987 237.95 149.889 279.515C151.84 299.922 151.539 317.028 151.84 330.082C152.29 347.788 150.639 417.563 150.639 417.563V420.564C150.789 423.865 151.539 426.116 153.79 431.217C156.041 436.469 160.242 443.822 165.494 449.224C166.995 450.724 177.498 459.427 178.999 461.228C183.501 466.18 174.497 469.331 167.745 468.73C160.543 467.98 149.439 465.729 146.138 461.378C143.887 458.527 142.086 448.473 139.835 445.622C132.183 436.019 129.182 431.818 129.032 428.667C128.731 422.965 130.682 420.564 131.282 417.413C130.532 410.66 116.877 375.548 115.977 355.891C115.527 346.588 117.628 329.932 117.628 329.932L105.623 261.659C102.923 280.865 97.9708 324.08 96.0201 337.885C93.4692 356.792 84.166 388.903 78.1639 414.111C75.9132 423.565 74.8628 427.766 74.2626 433.918L74.1125 436.169C74.1125 439.02 73.8124 468.73 72.9121 475.033C71.1115 488.237 59.2574 487.037 57.1566 476.383C55.206 467.38 56.2563 439.32 56.2563 436.019V433.018V432.868Z" fill="#F69FA5"/>
<path d="M55.7759 432.705C52.4747 432.855 55.0256 445.609 54.4254 453.712C53.8252 462.565 51.1243 469.017 50.524 476.22C49.9238 484.473 50.6741 487.924 53.8252 494.526C56.226 499.778 68.0801 506.53 72.1316 498.878C76.333 491.075 76.9332 482.522 76.183 474.419C75.4327 466.016 74.6824 459.864 74.2323 453.412C73.9322 447.71 77.8335 434.205 73.482 433.605L73.332 435.856C71.8314 439.007 57.4264 441.558 55.4758 435.706V432.705H55.7759Z" fill="#33535F"/>
<path d="M128.118 435.437C127.218 439.639 128.719 450.742 128.719 450.742C128.719 450.742 130.669 454.494 136.971 456.895L139.222 441.139L127.968 435.287L128.118 435.437Z" fill="#17282F"/>
<path d="M136.949 457.04L150.753 451.938L153.604 439.484L138.299 447.887L136.949 457.04Z" fill="#181B21"/>
<path d="M150.3 420.422V417.421C152.251 418.321 156.902 433.476 162.904 443.68C168.306 453.133 178.81 458.085 182.261 462.136C186.913 467.538 178.51 475.041 164.555 472.49C157.653 471.289 147.149 467.238 144.148 462.736C141.147 458.235 139.946 449.682 137.546 446.381C135.145 443.08 129.593 439.328 128.242 435.427C127.492 433.326 126.892 428.675 127.942 424.773C128.843 421.172 129.743 416.97 130.943 417.271L131.093 419.972C132.144 421.772 135.445 423.873 142.497 424.023C145.798 424.023 149.1 423.423 150.45 420.422H150.3Z" fill="#33535F"/>
<path d="M113.876 363.406C112.526 346.15 115.077 331.295 115.077 331.295L105.023 264.221C105.023 264.221 98.1209 328.144 97.0706 338.047C95.8701 347.951 77.5638 454.788 77.5638 454.788C68.1105 460.34 56.1063 458.539 48.1536 454.488C48.1536 411.273 49.504 368.058 51.0046 356.053C52.205 346.6 56.5565 331.895 56.5565 331.895C56.5565 331.895 57.6068 268.873 57.4568 245.015C57.4568 221.157 59.2574 205.101 63.759 194.297C68.2605 183.493 76.3634 171.939 76.3634 171.939C76.3634 171.939 79.8146 183.794 107.574 183.794C135.334 183.794 138.335 176.741 138.335 176.741C138.335 176.741 146.438 205.101 149.139 247.866C151.389 282.378 151.84 297.983 152.44 313.439C153.04 326.493 153.34 341.648 153.64 368.058C153.94 388.014 156.641 431.98 156.641 431.98C156.641 431.98 143.137 439.032 120.779 430.929C120.779 430.929 115.227 380.962 113.876 363.706V363.406Z" fill="#F03D5F"/>
<path d="M63.909 458.085C58.2071 458.085 52.5051 456.584 48.1536 454.183C48.1536 410.968 49.504 367.753 51.0046 355.749C52.205 346.296 56.5565 331.591 56.5565 331.591C56.5565 331.591 57.4568 271.87 57.4568 246.661C57.4568 245.911 57.4568 245.311 57.4568 244.711C57.4568 244.411 57.4568 244.111 57.4568 243.66C57.4568 236.008 57.6068 229.105 58.057 223.103C70.0612 230.306 84.3161 233.007 97.9709 233.007C101.872 233.007 105.624 232.857 109.225 232.406L104.873 264.067C104.873 264.067 104.873 264.668 104.723 265.568C104.273 269.619 103.073 281.173 101.722 293.928C99.7715 312.084 97.5207 332.641 96.9205 337.893C95.7201 347.797 77.4137 454.634 77.4137 454.634C73.2123 457.185 68.4106 458.085 63.759 458.085H63.909ZM141.486 434.527C135.934 434.527 129.032 433.626 120.929 430.625C120.929 430.625 115.377 380.658 114.026 363.402C113.726 359.651 113.576 356.199 113.576 352.748C113.576 340.444 115.077 331.141 115.077 331.141L105.023 264.067L113.576 321.387L108.174 264.217L114.927 231.656C128.882 229.405 140.736 224.604 146.438 219.502C147.488 227.905 148.538 237.358 149.139 247.562C151.389 282.074 151.84 297.679 152.44 313.134C153.04 326.189 153.34 341.344 153.64 367.753C153.94 387.71 156.641 431.676 156.641 431.676C156.641 431.676 151.089 434.527 141.336 434.527H141.486Z" fill="#F03D5F"/>
<path d="M113.55 321.384L104.997 264.064L109.349 232.403C111.3 232.253 113.1 231.953 115.051 231.653L108.299 264.214L113.7 321.384H113.55Z" fill="#BA2C42"/>
<path d="M92.0991 85.0781L79.0446 86.4286C70.3416 88.5293 66.4402 92.4307 65.5399 100.083C65.0898 103.685 62.989 113.138 65.9901 125.142C68.691 135.946 76.0436 162.355 76.0436 162.355C76.0436 162.355 59.2377 184.263 56.2367 221.926C86.9974 242.033 134.264 231.229 147.018 219.075C145.968 207.521 138.615 176.01 137.715 165.806C137.715 165.806 138.315 149.751 139.666 142.848C149.419 132.194 148.219 121.991 143.717 113.888C135.614 98.7329 123.46 85.5283 119.559 85.5283L92.0991 85.2282V85.0781Z" fill="#F03D5F"/>
<path d="M97.961 233.011C83.556 233.011 68.5508 229.86 56.0964 221.907C59.0975 184.244 75.9033 162.337 75.9033 162.337C75.9033 162.337 68.5508 135.928 65.8498 125.124C64.6494 120.472 64.1992 116.121 64.1992 112.369C64.1992 106.667 65.0996 102.316 65.3997 100.215C66.3 92.5625 70.2013 88.6612 78.9044 86.5604L91.9589 85.21L119.418 85.5101C123.32 85.5101 135.474 98.8647 143.577 113.87C145.527 117.471 146.878 121.523 146.878 125.874C146.878 129.175 146.128 132.626 144.177 136.228L113.716 147.031L105.013 226.559L106.364 227.91L146.128 213.054C146.428 215.305 146.728 217.406 146.878 219.056C141.326 224.308 129.322 229.41 114.917 231.661C113.116 231.961 111.166 232.261 109.215 232.411C105.614 232.861 101.712 233.011 97.961 233.011Z" fill="#FCE6E3"/>
<path d="M115.819 75.9053C119.72 75.9053 120.17 76.5055 123.471 81.007C125.422 83.708 138.026 104.265 138.026 104.265C138.026 104.265 128.123 91.2106 120.62 87.1592C117.619 85.5086 115.969 85.3586 115.969 85.3586V75.9053H115.819Z" fill="#DADBD8"/>
<path d="M91.3488 85.0343C91.3488 85.0343 102.153 113.244 104.553 132.451C106.954 151.657 98.5513 205.076 94.9501 243.639C92.5492 268.548 89.098 305.161 89.098 305.161C89.098 305.161 77.8441 305.311 66.8903 303.21C54.2859 300.809 49.4843 297.508 47.3835 294.957C47.3835 294.957 53.6857 232.235 56.6868 207.777C59.5378 184.819 71.9921 162.161 71.9921 162.161L57.1369 100.64C57.1369 100.64 57.8872 90.2862 67.6406 87.4352C76.9438 84.7342 91.4989 85.0343 91.4989 85.0343H91.3488Z" fill="#E7E8E5"/>
<path d="M100.501 194.29L61.9372 185.737C60.5867 189.789 59.3863 194.14 58.3359 198.492C77.2425 204.944 92.2477 207.645 98.85 208.695C99.4502 203.894 100.05 199.092 100.501 194.29Z" fill="#EAEAE9"/>
<path d="M72.2989 142.542C72.2989 142.542 73.4993 136.689 75.2999 123.935C77.4006 109.38 76.6504 102.177 74.3996 97.5259L61.9453 121.234L71.8487 162.348C71.8487 162.348 61.6452 180.955 57.5938 201.662C67.3471 174.202 78.0008 165.95 78.0008 165.95L72.2989 142.692V142.542Z" fill="#DADBD8"/>
<path d="M87.2569 119.858C87.2569 118.657 87.1068 116.106 86.9567 112.805C85.9064 97.0496 85.4562 82.6446 90.8581 81.5942L91.3083 83.845C87.4069 84.7453 88.7574 105.152 89.2075 112.805C89.3576 116.106 89.6577 118.657 89.5076 120.008L87.2569 119.858Z" fill="#17282F"/>
<path d="M69.4241 15.8644L77.827 22.6168C79.7777 20.516 79.4776 17.2149 77.0767 15.2642C74.8259 13.3135 71.3747 13.6136 69.4241 15.7144V15.8644Z" fill="#181B21"/>
<path d="M91.2005 76.9532C91.2005 71.7014 79.0463 63.8987 72.7441 52.9449C66.4419 41.9911 69.593 23.8348 78.1459 21.1338L78.446 18.5829C78.8962 16.4822 79.6465 14.5315 80.6968 12.5809C84.148 6.57877 91.6506 1.92715 98.553 0.876789C125.862 -3.17462 138.317 7.47908 143.419 19.1831C144.919 22.7844 145.819 27.7361 145.519 31.6375C144.769 40.1904 138.617 43.9417 134.566 44.8421L91.0504 76.9532H91.2005Z" fill="#181B21"/>
<path d="M129.006 15.2785C134.408 17.5293 139.36 25.7821 139.36 48.59C139.36 67.9468 133.358 72.8985 130.357 74.2489C127.355 75.7495 121.503 74.9992 115.801 74.0989V85.2027C115.801 85.2027 120.003 89.4042 118.502 92.1051C117.152 94.656 111.45 96.9068 102.897 94.2059C93.1436 91.2048 90.8928 84.6025 90.8928 84.6025L90.7428 60.2941C90.7428 60.2941 87.4416 63.7453 81.7396 58.6435C76.938 54.4421 75.2874 47.3896 78.8886 43.3382C82.4899 39.4369 86.9915 39.1368 91.1929 43.4883L94.194 41.9877C99.4458 41.3875 107.399 40.4872 112.95 37.6362C127.656 30.1336 129.156 22.0308 129.006 15.1284V15.2785Z" fill="#C0776A"/>
<path d="M91.1993 40.625V51.4288C94.0503 51.5788 96.4512 49.178 96.4512 46.1769C96.4512 43.1759 94.0503 40.7751 91.1993 40.625Z" fill="#181B21"/>
<path d="M129.431 42.1661C129.431 43.6666 130.481 44.8671 131.982 44.8671C133.332 44.8671 134.533 43.8167 134.683 42.3162C134.683 40.8157 133.632 39.6152 132.132 39.6152C130.781 39.6152 129.581 40.6656 129.431 42.1661Z" fill="#222124"/>
<path d="M108.873 43.182C108.873 44.8326 110.074 46.033 111.574 46.1831C113.075 46.1831 114.425 44.9827 114.425 43.3321C114.425 41.6815 113.225 40.4811 111.724 40.3311C110.224 40.3311 108.873 41.5315 108.873 43.032V43.182Z" fill="#222124"/>
<path d="M136.377 37.3603L129.774 34.6594C130.375 32.7087 132.475 31.9585 134.426 32.5587C136.227 33.3089 137.127 35.2596 136.527 37.2103L136.377 37.3603Z" fill="#222124"/>
<path d="M123.138 40.041L122.838 55.9465L131.39 53.9959L123.138 40.041Z" fill="#B85549"/>
<path d="M113.084 59.1025L121.337 61.6534C120.737 64.0543 118.336 65.5548 116.085 64.8045C113.835 64.0543 112.484 61.5034 113.084 59.1025Z" fill="#C46E70"/>
<path d="M117.751 65.1015C117.751 62.7007 115.8 60.75 113.399 60.75H113.099C113.249 62.7007 114.45 64.3513 116.25 64.9515C116.851 65.1015 117.301 65.1015 117.901 65.1015H117.751Z" fill="#B85549"/>
<path d="M115.806 74.265C109.804 73.5147 97.35 70.0635 95.3993 65.1118C95.3993 65.1118 96.1496 68.2629 99.9009 71.5641C103.652 74.7152 115.806 78.1663 115.806 78.1663V74.415V74.265Z" fill="#B85549"/>
<path d="M90.8648 76.0582C89.3643 75.7581 87.8638 76.3583 86.6634 78.6091C85.3129 80.8599 82.612 85.3614 82.612 85.3614C82.612 85.3614 81.1114 100.517 82.612 104.418C83.8124 107.719 97.7672 120.023 97.7672 120.023C97.7672 120.023 94.166 133.678 94.0159 138.18C93.8659 142.681 102.419 159.637 103.319 168.34C103.319 168.34 106.32 140.881 104.97 131.127C102.719 114.021 94.7662 91.9637 90.8648 84.9113V76.0582Z" fill="#DADBD8"/>
<path d="M88.5141 120.308C86.1133 120.458 82.0619 127.81 80.1112 133.963C78.6107 138.914 83.8625 161.422 86.1133 164.423C87.1637 165.774 88.8142 167.124 90.4648 168.324C92.1154 167.124 93.6159 165.473 94.5162 164.123C96.6169 160.972 99.9181 138.014 97.9674 133.212C95.5666 127.36 90.7649 120.308 88.5141 120.308ZM84.1626 172.676H84.0126V171.175C85.363 171.175 87.3137 170.425 89.1143 169.225C87.4638 168.024 85.9632 166.674 84.9129 165.323C82.362 162.022 76.9601 138.764 78.6107 133.362C80.1112 128.861 84.4627 118.807 88.5141 118.657H88.6642C92.5655 118.657 97.8174 128.111 99.618 132.462C101.719 137.714 98.2675 161.272 96.0167 164.723C95.1164 166.074 93.7659 167.574 92.1154 168.925C94.0661 169.975 96.0167 170.575 97.3672 170.425L97.5173 171.926C95.5666 172.226 93.0157 171.326 90.6149 169.975C88.3641 171.476 86.1133 172.526 84.1626 172.526V172.676Z" fill="#33535F"/>
<path d="M99.5721 171.185C99.5721 172.386 98.6718 173.586 97.3214 173.586C96.1209 173.586 94.9205 172.686 94.9205 171.335C94.9205 170.135 95.8208 168.935 97.1713 168.935C98.3717 168.935 99.5721 169.835 99.5721 171.185Z" fill="#17282F"/>
<path d="M86.2518 171.769C86.2518 172.97 85.3515 174.17 84.0011 174.17C82.8006 174.17 81.6002 173.27 81.6002 171.919C81.6002 170.719 82.5005 169.519 83.851 169.519C85.0514 169.519 86.2518 170.419 86.2518 171.769Z" fill="#17282F"/>
<path d="M99.7479 142.842L98.3974 142.692C98.0973 142.692 97.9473 142.392 97.9473 142.092C98.2474 137.74 98.0973 134.589 97.4971 133.239C95.2463 127.537 90.4447 120.484 88.3439 120.634C86.2432 120.784 82.0418 128.137 80.2411 133.989C79.791 135.339 79.941 138.49 80.5412 142.842C80.5412 143.142 80.3912 143.442 80.0911 143.442L78.7406 143.592C78.4405 143.592 78.1404 143.442 78.1404 143.142C77.3901 138.34 77.3901 134.889 77.8403 133.239C78.8907 130.088 83.3922 118.383 88.0438 118.233C92.6955 118.083 98.2474 129.337 99.4478 132.338C100.198 133.989 100.348 137.29 100.048 142.242C100.048 142.542 99.7479 142.692 99.4478 142.692L99.7479 142.842Z" fill="#17282F"/>
<path d="M172.971 126.027L113.7 147.035L104.997 226.412L106.348 227.913L162.617 206.905L174.321 127.528L172.971 126.027Z" fill="#181B21"/>
<path d="M106.348 227.92L104.997 226.42L106.348 227.92Z" fill="#63C5B9"/>
<path d="M106.348 227.905L104.997 226.404L113.7 147.027L115.051 148.377L106.348 227.905Z" fill="#181B21"/>
<path d="M162.638 206.914L174.342 127.537L162.638 206.914Z" fill="#B6B8B9"/>
<path d="M106.347 227.921L115.05 148.394L174.321 127.537L162.617 206.914L106.347 227.921ZM156.015 138.941C154.664 138.941 152.113 139.691 149.112 141.191L138.458 144.493C133.957 146.593 129.605 148.244 129.305 149.594L128.855 151.995L156.465 142.092C156.465 142.092 156.615 141.041 156.915 139.691C157.065 139.241 156.615 139.091 156.015 139.091V138.941Z" fill="#17282F"/>
<path d="M128.84 151.844L129.29 149.443C129.59 148.092 133.941 146.592 138.443 144.341L149.097 141.04C152.098 139.689 154.649 138.789 155.999 138.789C156.749 138.789 157.049 138.939 156.899 139.389C156.599 140.74 156.449 141.79 156.449 141.79L128.84 151.694V151.844Z" fill="#181B21"/>
<path d="M159.892 131.268C160.042 130.517 158.691 130.667 156.891 131.118L153.439 132.318C153.439 132.318 154.79 128.867 146.687 131.118C137.834 133.518 137.534 138.02 137.534 138.02C137.534 138.02 136.483 138.47 133.332 139.521C130.331 140.421 130.031 141.021 129.881 141.921L129.431 143.422L159.592 132.768C159.592 132.768 159.742 132.168 159.892 131.418V131.268Z" fill="#33535F"/>
<path d="M156.743 135.777C153.892 136.978 152.842 137.728 152.392 139.679C151.941 141.93 151.791 142.98 151.791 142.98L136.036 149.132C136.036 149.132 136.936 145.681 137.086 144.63C137.236 143.43 135.286 143.43 132.435 144.781L133.035 141.93L157.493 132.776L156.593 135.777H156.743Z" fill="#33535F"/>
<path d="M157.226 141.943C157.226 141.943 157.376 140.892 157.676 139.542C157.976 138.191 154.525 138.942 149.873 141.042L139.219 144.343C134.718 146.444 130.366 148.095 130.066 149.445L129.616 151.846L157.226 141.943Z" fill="#33535F"/>
<path d="M163.506 146.281L120.141 162.636L113.239 230.16L157.204 213.204L163.506 146.281Z" fill="#42616A"/>
<path d="M120.599 164.428L163.364 148.222C164.864 150.473 167.415 152.124 170.717 153.174L128.252 169.38C128.252 169.38 126.151 168.629 120.599 164.428Z" fill="#EFEFEF"/>
<path d="M131.56 169.526C129.609 170.426 126.758 170.126 125.108 168.926L119.706 165.024C118.055 163.824 118.205 162.173 120.006 161.273L162.171 145.217L163.521 146.118L121.957 162.023C120.756 162.473 120.756 163.524 121.807 164.274L126.758 167.875C127.809 168.625 129.459 168.775 130.66 168.175L172.224 152.27L173.725 153.32L131.56 169.376V169.526Z" fill="#2F3034"/>
<path d="M173.696 153.455L167.394 220.378L125.23 236.434C123.279 237.334 120.428 237.034 118.777 235.834L113.375 231.932C112.475 231.332 112.175 230.582 112.175 229.982L118.477 163.058C118.477 163.809 118.777 164.409 119.678 165.009L125.08 168.91C126.73 170.111 129.731 170.411 131.532 169.511L173.696 153.455Z" fill="#33535F"/>
<path d="M128.231 169.959C127.03 169.809 125.83 169.509 125.08 168.909L119.678 165.007C118.777 164.407 118.477 163.657 118.477 163.057L112.175 229.98C112.175 230.73 112.475 231.33 113.375 231.931L118.777 235.832C119.678 236.432 120.728 236.732 121.928 236.882L128.231 169.959Z" fill="#384E55"/>
<path d="M172.796 163.057C176.397 165.457 176.547 169.659 176.547 174.311C176.547 178.812 176.547 185.865 173.696 189.766C170.695 193.667 165.143 199.069 161.542 197.269C157.94 195.468 158.09 182.563 162.442 177.762C166.793 173.11 172.345 169.209 172.345 169.209L172.946 163.207L172.796 163.057Z" fill="#C0776A"/>
<path d="M128.712 183.187C121.209 184.387 115.958 183.487 115.958 183.487C118.809 181.986 120.159 181.386 121.36 180.186C123.91 177.785 123.31 175.234 122.56 174.184C121.96 173.433 120.159 175.084 116.408 175.984C111.606 177.185 108.455 176.284 103.653 178.835C101.853 179.736 100.502 179.736 97.3512 179.886C93.7499 180.036 88.7982 178.535 79.3449 175.684C69.8916 172.833 56.2369 166.231 56.2369 166.231L70.4919 124.516C70.4919 124.516 78.8948 96.6066 67.4908 87.6035C54.2862 87.6035 50.3849 93.9057 46.3335 105.76C42.5822 116.564 30.1278 166.681 29.3776 174.334C28.6273 181.986 32.0785 184.987 39.7312 188.288C47.2338 191.59 64.7899 195.791 80.6954 200.143C89.2484 202.393 97.5012 204.344 105.004 204.794C123.91 206.295 132.463 204.644 136.665 197.592C143.117 186.338 138.916 181.686 128.862 183.337L128.712 183.187Z" fill="#C0776A"/>
<path d="M69.4423 87.031C61.4896 86.7309 54.5872 86.2807 49.4854 95.584C44.3836 104.887 36.5809 133.697 32.3794 154.254C28.178 174.962 25.1769 183.064 34.7803 187.416C44.2336 191.617 76.1947 199.57 76.1947 199.57C76.1947 199.57 74.9942 186.516 83.8473 176.912L57.7383 165.808L71.6931 124.994C71.6931 124.994 80.5462 98.7351 69.4423 87.031Z" fill="#E7E8E5"/>
</svg>
