<svg width="819" height="950" viewBox="0 0 819 950" fill="none" xmlns="http://www.w3.org/2000/svg">
<path d="M512 0.205078C229.59 0.205078 0.848511 156.45 0.848511 438.644C0.848511 721.054 229.806 949.796 512 949.796C794.194 949.796 1023.15 720.838 1023.15 438.644C1023.15 156.234 794.41 0.205078 512 0.205078Z" fill="#D5EAFD"/>
<path d="M800.686 411.16C800.686 453.792 788.567 495.559 765.412 531.482C734.033 582.338 695.296 627.999 650.284 667.169C626.695 688.81 600.51 707.204 572.161 721.703C569.131 723.218 566.318 724.733 563.288 726.248C544.894 734.688 526.066 740.747 505.508 738.583C486.897 736.419 469.801 730.143 453.57 721.92C446.645 718.457 439.937 714.562 433.228 710.45C368.306 669.982 315.287 616.746 270.923 554.854C245.604 519.58 226.777 481.276 222.448 437.129C218.12 392.766 225.045 350.999 249.066 312.912C279.58 261.624 339.091 235.006 397.521 246.692C432.579 253.184 464.823 270.496 489.71 296.249C496.635 303.174 503.127 310.748 509.62 318.106C510.052 318.106 510.485 317.889 510.918 317.456C512.433 315.509 513.948 313.778 515.246 312.046C532.559 289.54 554.632 270.929 579.952 257.945C636.434 229.163 700.49 236.521 745.935 278.503C784.888 313.778 800.037 359.656 800.686 411.16Z" fill="white"/>
<path d="M609.383 447.733C608.517 442.972 602.891 437.562 598.13 436.48C594.451 435.614 588.175 440.375 585.362 444.054C582.548 447.733 582.548 453.36 581.683 458.553C578.437 476.299 574.974 494.693 571.728 512.439C569.78 522.393 554.848 520.878 555.281 510.491C555.281 510.491 555.281 510.491 555.281 510.058C557.662 475.433 559.393 441.241 561.341 406.616C561.773 396.661 560.475 387.789 548.573 387.789C536.887 387.789 535.588 396.228 534.506 405.967C532.126 439.293 529.312 471.971 527.148 505.297C526.716 509.409 522.82 513.304 518.709 512.871C513.082 512.439 513.515 509.625 513.515 502.484C513.948 485.604 513.515 468.292 513.515 451.412C513.515 428.906 513.948 405.967 513.082 383.46C513.082 380.647 512.216 378.699 509.836 376.103C506.59 372.857 496.202 371.774 492.523 374.155C490.143 375.67 489.277 376.968 487.762 381.729C486.464 385.624 486.897 390.169 486.897 394.497V507.028C486.897 511.14 485.598 513.953 481.703 514.386L479.755 514.819C475.644 515.252 471.316 512.439 470.45 508.327C465.689 476.082 461.144 443.621 456.384 411.377C455.085 402.937 447.944 397.743 441.884 399.258C431.064 400.124 431.064 407.698 429.766 413.757C428.467 419.384 430.631 426.309 431.713 433.017C436.907 474.784 441.884 515.901 447.078 557.667C447.944 566.973 449.026 575.413 438.638 575.413C432.579 575.413 424.572 569.786 420.893 564.16C412.886 552.041 407.259 537.974 400.767 524.774C396.439 516.334 384.753 507.461 376.962 513.953C370.037 520.013 369.388 528.453 373.284 536.892C387.783 571.517 401.416 607.224 416.348 641.849C421.542 653.535 429.116 664.356 437.34 673.661C448.16 685.78 453.787 698.981 453.787 714.778V721.703C470.017 729.927 486.897 736.203 505.724 738.367C526.283 740.531 545.11 734.471 563.505 726.031C566.534 724.517 569.348 723.218 572.377 721.487C572.377 713.48 572.594 704.824 572.81 694.869C573.243 684.914 601.809 652.237 598.13 602.464C596.182 555.071 599.428 515.252 607.002 469.374C608.084 462.232 610.898 454.658 609.383 447.733Z" fill="white"/>
</svg>
