<svg width="70" height="70" viewBox="0 0 70 70" fill="none" xmlns="http://www.w3.org/2000/svg">
<circle cx="35" cy="35" r="35" fill="#FCE6E3"/>
<path d="M19.375 48.125H20.625V49.375H19.375V48.125Z" fill="#F91647"/>
<path d="M21.875 48.125H23.125V49.375H21.875V48.125Z" fill="#F91647"/>
<path d="M24.375 48.125H25.625V49.375H24.375V48.125Z" fill="#F91647"/>
<path d="M44.375 48.125H45.625V49.375H44.375V48.125Z" fill="#F91647"/>
<path d="M46.875 48.125H48.125V49.375H46.875V48.125Z" fill="#F91647"/>
<path d="M49.375 48.125H50.625V49.375H49.375V48.125Z" fill="#F91647"/>
<path d="M54.375 36.7431V28.75C54.375 27.7163 53.5337 26.875 52.5 26.875C52.28 26.875 52.0713 26.92 51.875 26.99V26.25C51.875 25.2163 51.0337 24.375 50 24.375C49.7531 24.375 49.5187 24.4256 49.3025 24.5125C49.0869 23.7156 48.3644 23.125 47.5 23.125C46.6356 23.125 45.9138 23.7156 45.6975 24.5125C45.4813 24.4256 45.2469 24.375 45 24.375C43.9662 24.375 43.125 25.2163 43.125 26.25L43.1256 29.7225C42.7563 29.5075 42.3325 29.375 41.875 29.375V28.75C41.875 27.9038 41.3075 27.195 40.5363 26.9625L42.6525 24.9975C43.7475 23.9806 44.375 22.5406 44.375 21.0275C44.375 19.8206 43.96 18.6369 43.2056 17.695C42.1538 16.3794 40.585 15.625 38.9 15.625C37.4488 15.625 36.0275 16.2137 35 17.2413C33.9725 16.2137 32.5513 15.625 31.1 15.625C29.4156 15.625 27.8463 16.3794 26.7944 17.695C26.04 18.6369 25.625 19.8206 25.625 21.0469C25.625 22.5406 26.2525 23.9806 27.3475 24.9975L30.6256 28.0412V29.7231C30.2562 29.5075 29.8325 29.375 29.375 29.375V28.75C29.375 27.7163 28.5337 26.875 27.5 26.875C27.28 26.875 27.0712 26.92 26.875 26.99V26.25C26.875 25.2163 26.0337 24.375 25 24.375C24.7531 24.375 24.5188 24.4256 24.3025 24.5125C24.0869 23.7156 23.3644 23.125 22.5 23.125C21.6356 23.125 20.9138 23.7156 20.6975 24.5125C20.4813 24.4256 20.2469 24.375 20 24.375C18.9662 24.375 18.125 25.2163 18.125 26.25L18.1256 29.7225C17.7562 29.5075 17.3325 29.375 16.875 29.375C16.1856 29.375 15.625 29.9356 15.625 30.625V36.2056C15.625 38.7456 16.4669 41.1525 18.0038 43.125H15.625V54.375H54.375V43.125H51.7181C53.3975 41.4462 54.375 39.17 54.375 36.7431ZM43.125 31.8725V33.8563C43.125 34.8025 43.6519 35.6531 44.5094 36.0806C45.1975 36.4237 45.625 37.1144 45.625 37.8831V38.125H46.875V37.8831C46.875 36.6375 46.1825 35.5181 45.0569 34.9569C44.6362 34.7475 44.375 34.3256 44.375 33.8563V31.875H44.3756L44.375 26.25C44.375 25.9056 44.6556 25.625 45 25.625C45.3444 25.625 45.625 25.9056 45.625 26.25V32.5H46.875V25C46.875 24.6556 47.1556 24.375 47.5 24.375C47.8444 24.375 48.125 24.6556 48.125 25V32.5H49.375V26.25C49.375 25.9056 49.6556 25.625 50 25.625C50.3444 25.625 50.625 25.9056 50.625 26.25V32.5H51.875V28.75C51.875 28.4056 52.1556 28.125 52.5 28.125C52.8444 28.125 53.125 28.4056 53.125 28.75V36.7431C53.125 38.9369 52.2006 40.9906 50.62 42.4531C50.5944 40.7525 49.2069 39.375 47.5 39.375C45.7769 39.375 44.375 40.7769 44.375 42.5C44.375 42.6213 44.3975 42.7412 44.4119 42.8619C42.7781 41.0231 41.875 38.6863 41.875 36.2056V30.625C42.5644 30.625 43.125 31.185 43.125 31.8725ZM40 51.875C40.21 51.875 40.4194 51.8531 40.625 51.8106V53.125H29.375V51.8106C29.5806 51.8531 29.79 51.875 30 51.875C31.7231 51.875 33.125 50.4731 33.125 48.75C33.125 47.0269 31.7231 45.625 30 45.625C29.79 45.625 29.5806 45.6469 29.375 45.6894V44.375H33.9194L33.3794 43.4381C33.2106 43.1456 33.125 42.83 33.125 42.5C33.125 41.4662 33.9662 40.625 35 40.625C36.0338 40.625 36.875 41.4662 36.875 42.5C36.875 42.83 36.7894 43.1456 36.6206 43.4381L36.0806 44.375H40.625V45.6894C40.4194 45.6469 40.21 45.625 40 45.625C38.2769 45.625 36.875 47.0269 36.875 48.75C36.875 50.4731 38.2769 51.875 40 51.875ZM30.5037 43.125H26.7181C27.6213 42.2219 28.3281 41.1531 28.7787 39.9706C29.1788 41.1025 29.7562 42.1656 30.5037 43.125ZM39.2181 43.125C40.1213 42.2219 40.8281 41.1531 41.2788 39.9706C41.6781 41.1025 42.2563 42.1656 43.0037 43.125H39.2181ZM26.875 21.0275C26.875 20.1031 27.1931 19.1975 27.77 18.4756C28.5837 17.4581 29.7975 16.875 31.1 16.875C32.2225 16.875 33.3219 17.3306 34.1169 18.1256L35 19.0087L35.8831 18.1256C36.6781 17.3306 37.7775 16.875 38.9 16.875C40.2025 16.875 41.4163 17.4581 42.23 18.4756C42.8069 19.1969 43.125 20.1031 43.125 21.0469C43.125 22.1944 42.6431 23.3006 41.8019 24.0813L35 30.3969L28.1981 24.0813C27.3569 23.3006 26.875 22.1944 26.875 21.0275ZM30.625 31.8725V33.8563C30.625 34.8025 31.1519 35.6531 32.0094 36.0806C32.6975 36.4237 33.125 37.1144 33.125 37.8831V38.125H34.375V37.8831C34.375 36.6375 33.6825 35.5181 32.5569 34.9569C32.1362 34.7475 31.875 34.3256 31.875 33.8563V31.875H31.8756V29.2019L33.125 30.3619V32.5H34.375V31.5225L35 32.1031L35.625 31.5225V32.5H36.875V30.3619L38.125 29.2013V32.5H39.375V28.75C39.375 28.4056 39.6556 28.125 40 28.125C40.3444 28.125 40.625 28.4056 40.625 28.75V36.7431C40.625 38.9369 39.7006 40.9906 38.12 42.4531C38.0944 40.7525 36.7069 39.375 35 39.375C33.2769 39.375 31.875 40.7769 31.875 42.5C31.875 42.6213 31.8975 42.7412 31.9119 42.8619C30.2781 41.0231 29.375 38.6863 29.375 36.2056V30.625C30.0644 30.625 30.625 31.185 30.625 31.8725ZM16.875 30.625C17.5644 30.625 18.125 31.185 18.125 31.8725V33.8563C18.125 34.8025 18.6519 35.6531 19.5094 36.0806C20.1975 36.4237 20.625 37.1144 20.625 37.8831V38.125H21.875V37.8831C21.875 36.6375 21.1825 35.5181 20.0569 34.9569C19.6362 34.7475 19.375 34.3256 19.375 33.8563V31.875H19.3756L19.375 26.25C19.375 25.9056 19.6556 25.625 20 25.625C20.3444 25.625 20.625 25.9056 20.625 26.25V32.5H21.875V25C21.875 24.6556 22.1556 24.375 22.5 24.375C22.8444 24.375 23.125 24.6556 23.125 25V32.5H24.375V26.25C24.375 25.9056 24.6556 25.625 25 25.625C25.3444 25.625 25.625 25.9056 25.625 26.25V32.5H26.875V28.75C26.875 28.4056 27.1556 28.125 27.5 28.125C27.8444 28.125 28.125 28.4056 28.125 28.75V36.7431C28.125 38.9369 27.2006 40.9906 25.62 42.4531C25.5944 40.7525 24.2069 39.375 22.5 39.375C20.7769 39.375 19.375 40.7769 19.375 42.5C19.375 42.6213 19.3975 42.7412 19.4119 42.8619C17.7781 41.0231 16.875 38.6863 16.875 36.2056V30.625ZM16.875 44.375H21.4194L20.8794 43.4381C20.7106 43.1456 20.625 42.83 20.625 42.5C20.625 41.4662 21.4662 40.625 22.5 40.625C23.5338 40.625 24.375 41.4662 24.375 42.5C24.375 42.83 24.2894 43.1456 24.1206 43.4381L23.5806 44.375H28.125V47.6694L29.0619 47.1294C29.3544 46.9606 29.67 46.875 30 46.875C31.0337 46.875 31.875 47.7163 31.875 48.75C31.875 49.7837 31.0337 50.625 30 50.625C29.67 50.625 29.3544 50.5394 29.0619 50.3706L28.125 49.8306V53.125H16.875V44.375ZM53.125 53.125H41.875V49.8306L40.9381 50.3706C40.6456 50.5394 40.33 50.625 40 50.625C38.9662 50.625 38.125 49.7837 38.125 48.75C38.125 47.7163 38.9662 46.875 40 46.875C40.33 46.875 40.6456 46.9606 40.9381 47.1294L41.875 47.6694V44.375H46.4194L45.8794 43.4381C45.7106 43.1456 45.625 42.83 45.625 42.5C45.625 41.4662 46.4662 40.625 47.5 40.625C48.5337 40.625 49.375 41.4662 49.375 42.5C49.375 42.83 49.2894 43.1456 49.1206 43.4381L48.5806 44.375H53.125V53.125Z" fill="#F91647"/>
</svg>
