<svg width="70" height="70" viewBox="0 0 70 70" fill="none" xmlns="http://www.w3.org/2000/svg">
<circle cx="35" cy="35" r="35" fill="#FCE6E3"/>
<path d="M34.9845 23.8609C37.0274 23.8609 38.6834 22.2046 38.6834 20.1618C38.6834 18.1187 37.0274 16.4629 34.9845 16.4629C32.9415 16.4629 31.2856 18.1187 31.2856 20.1618C31.2878 22.2039 32.9424 23.8587 34.9845 23.8609ZM34.9845 17.6958C36.3464 17.6958 37.4505 18.8001 37.4505 20.1618C37.4505 21.5237 36.3464 22.6278 34.9845 22.6278C33.6226 22.6278 32.5185 21.5237 32.5185 20.1618C32.5185 18.8001 33.6226 17.6958 34.9845 17.6958Z" fill="#F91647"/>
<path d="M42.9989 30.6421C42.9981 28.8074 42.0905 27.092 40.5743 26.0592C39.6552 25.4272 38.5655 25.0909 37.4505 25.0938H32.5185C29.4557 25.0974 26.9738 27.5793 26.9702 30.6421V35.5741C26.9726 37.7175 28.5479 39.5341 30.6691 39.8401V53.4524H31.9022V28.7926H30.6691V38.5949C29.2349 38.2998 28.205 37.0382 28.2031 35.5741V30.6421C28.206 28.26 30.1362 26.3295 32.5185 26.3266H37.4505C38.3169 26.324 39.1637 26.5856 39.8777 27.0763C41.0578 27.8797 41.7645 29.2144 41.766 30.6421V35.5741C41.7648 36.7812 41.0595 37.8764 39.9607 38.3767C39.7504 38.4761 39.5286 38.5494 39.3 38.5949V28.7926H38.0671V53.4524H39.3V39.8413C39.708 39.7866 40.1049 39.6701 40.4781 39.4963C42.0131 38.7946 42.9981 37.262 42.9989 35.5741V30.6421Z" fill="#F91647"/>
<path d="M34.368 39.2729H35.6011V53.4524H34.368V39.2729Z" fill="#F91647"/>
<path d="M18.5945 35.574H25.7371V34.3411H18.5945L20.1577 32.7777L19.2863 31.9058L16.2346 34.9575L19.2863 38.0089L20.1577 37.1375L18.5945 35.574Z" fill="#F91647"/>
<path d="M50.6828 31.9058L49.8111 32.7777L51.3746 34.3411H44.2319V35.574H51.3746L49.8111 37.1375L50.6828 38.0089L53.7345 34.9575L50.6828 31.9058Z" fill="#F91647"/>
<path d="M20.8053 21.65L26.5343 27.3791L27.4062 26.5072L21.677 20.7783H23.8876V19.5454H19.5722V23.8609H20.8053V21.65Z" fill="#F91647"/>
<path d="M43.4348 27.3791L49.1639 21.65V23.8609H50.3968V19.5454H46.0814V20.7783H48.292L42.5631 26.5072L43.4348 27.3791Z" fill="#F91647"/>
<path d="M26.5343 42.5361L20.8053 48.2653V46.0544H19.5722V50.3699H23.8876V49.137H21.677L27.4062 43.4078L26.5343 42.5361Z" fill="#F91647"/>
<path d="M49.1639 48.2653L43.4348 42.5361L42.5631 43.4078L48.292 49.137H46.0814V50.3699H50.3968V46.0544H49.1639V48.2653Z" fill="#F91647"/>
</svg>
