<svg width="70" height="70" viewBox="0 0 70 70" fill="none" xmlns="http://www.w3.org/2000/svg">
<circle cx="35" cy="35" r="35" fill="#FCE6E3"/>
<g clip-path="url(#clip0)">
<path d="M48.1833 15.355C48.0266 15.1334 47.7716 15 47.4999 15H39.1666C38.8149 15 38.4999 15.2216 38.3799 15.5534L34.9649 25.115L31.6199 15.5584C31.5033 15.2234 31.1866 15 30.8333 15H22.4999C22.2283 15 21.9733 15.1316 21.8166 15.355C21.6616 15.5784 21.6232 15.8634 21.7166 16.1184L28.1782 33.8884C25.2499 36.01 23.3332 39.4484 23.3332 43.3334C23.3333 49.7666 28.5666 55 34.9999 55C41.4333 55 46.6666 49.7666 46.6666 43.3334C46.6666 39.4484 44.7499 36.01 41.8216 33.8884L48.2832 16.1184C48.3766 15.8616 48.3383 15.5766 48.1833 15.355ZM23.6899 16.6666H30.2416L35.5016 31.6916C35.3332 31.685 35.1682 31.6666 34.9999 31.6666C33.0616 31.6666 31.2349 32.1483 29.6249 32.9883L23.6899 16.6666ZM44.9999 43.3334C44.9999 48.8484 40.5149 53.3334 34.9999 53.3334C29.4849 53.3334 24.9999 48.8484 24.9999 43.3334C24.9999 37.8184 29.4849 33.3334 34.9999 33.3334C40.5149 33.3334 44.9999 37.8184 44.9999 43.3334ZM40.3749 32.9884C39.4299 32.495 38.4149 32.1217 37.3416 31.9017L35.8416 27.6167L39.7532 16.6667H46.3099L40.3749 32.9884Z" fill="#F91647"/>
<path d="M34.2116 35.5715L32.735 40.0015H28.335C27.9766 40.0015 27.6583 40.2282 27.545 40.5682C27.43 40.9082 27.545 41.2815 27.83 41.4982L31.415 44.2265L30.0333 48.9332C29.93 49.2815 30.0667 49.6565 30.37 49.8598C30.5116 49.9532 30.6716 49.9998 30.8333 49.9998C31.0183 49.9998 31.2033 49.9382 31.3583 49.8148L35.0067 46.8798L38.7317 49.8198C39.0183 50.0465 39.4183 50.0598 39.7183 49.8532C40.0183 49.6465 40.15 49.2682 40.0433 48.9198L38.5933 44.2198L42.1717 41.4965C42.4567 41.2798 42.5717 40.9048 42.4567 40.5665C42.3417 40.2281 42.0233 39.9998 41.6667 39.9998H37.2667L35.7917 35.5715C35.5666 34.8915 34.4383 34.8915 34.2116 35.5715ZM35.8766 41.0965C35.99 41.4365 36.3082 41.6665 36.6666 41.6665H39.1966L37.12 43.2465C36.8416 43.4582 36.725 43.8199 36.8283 44.1549L37.6617 46.8533L35.5167 45.1616C35.365 45.0433 35.1817 44.9833 35 44.9833C34.815 44.9833 34.63 45.0433 34.4767 45.1666L32.38 46.8533L33.175 44.1449C33.2717 43.8133 33.155 43.4549 32.88 43.2465L30.8034 41.6665H33.3334C33.6918 41.6665 34.01 41.4365 34.1234 41.0965L35 38.4683L35.8766 41.0965Z" fill="#F91647"/>
</g>
<defs>
<clipPath id="clip0">
<rect width="40" height="40" fill="white" transform="translate(15 15)"/>
</clipPath>
</defs>
</svg>
