<svg width="70" height="70" viewBox="0 0 70 70" fill="none" xmlns="http://www.w3.org/2000/svg">
<circle cx="35" cy="35" r="35" fill="#FCE6E3"/>
<path d="M46.0028 36.3399L41.6774 30.8336C43.2133 29.259 44.1408 27.1905 44.2949 24.9962H50.9927V25.7292C49.4422 26.0478 48.3289 27.4116 48.3272 28.9945C48.3276 30.8346 49.8196 32.326 51.6597 32.3257C53.4998 32.3253 54.9912 30.8332 54.9909 28.9931C54.9906 27.4101 53.8765 26.0458 52.3254 25.7292V24.3298C52.3254 23.9618 52.027 23.6634 51.659 23.6634H44.2949C44.1646 21.8172 43.4846 20.0521 42.3424 18.5957L43.272 17.6661H51.1153C51.4833 18.707 52.6255 19.2525 53.6664 18.8845C54.7074 18.5165 55.2529 17.3742 54.8848 16.3333C54.5167 15.2924 53.3746 14.7468 52.3337 15.1149C51.7644 15.3161 51.3166 15.764 51.1154 16.3332H42.9962C42.8195 16.3332 42.6501 16.4035 42.5251 16.5285L41.4489 17.6047C37.7457 14.0382 31.8524 14.1491 28.2859 17.8523C26.7701 19.4263 25.8562 21.4834 25.7045 23.6634H20.1069L17.9285 18.7636C18.9023 18.2511 19.2763 17.0463 18.7638 16.0724C18.2514 15.0986 17.0465 14.7247 16.0727 15.2371C15.0989 15.7496 14.7249 16.9544 15.2374 17.9282C15.5067 18.44 15.9851 18.8096 16.5484 18.9408L19.064 24.601C19.1711 24.8414 19.4098 24.9963 19.673 24.9961H25.7044C25.8578 27.1652 26.7674 29.2116 28.2746 30.7789L22.6491 36.4045C19.0116 35.8594 15.621 38.3664 15.076 42.0038C14.5309 45.6413 17.0378 49.0319 20.6753 49.577C20.7851 49.5934 20.8953 49.6071 21.0058 49.618V52.9839C21.0058 53.3519 21.3041 53.6502 21.6721 53.6502H27.7921C28.1601 54.6912 29.3024 55.2367 30.3433 54.8686C31.3841 54.5005 31.9297 53.3584 31.5617 52.3175C31.1936 51.2766 30.0514 50.731 29.0105 51.0991C28.4412 51.3004 27.9934 51.7482 27.7921 52.3175H22.3385V49.618C25.9984 49.2532 28.6697 45.9904 28.3048 42.3305C28.0579 39.8539 26.4506 37.7215 24.1377 36.8023L29.2688 31.6712C32.6104 34.3022 37.3138 34.3211 40.6765 31.7172L44.3736 36.4231C39.2687 37.1352 35.7077 41.8507 36.4198 46.9555C37.1319 52.0604 41.8474 55.6214 46.9522 54.9093C52.057 54.1972 55.618 49.4817 54.9059 44.3769C54.2806 39.893 50.5271 36.5047 46.0028 36.3399ZM53.6582 28.9945C53.6582 30.0986 52.7631 30.9936 51.659 30.9936C50.5549 30.9936 49.6599 30.0986 49.6599 28.9945C49.6599 27.8904 50.5549 26.9953 51.659 26.9953C52.7631 26.9953 53.6582 27.8904 53.6582 28.9945ZM52.9918 16.3333C53.3598 16.3333 53.6582 16.6317 53.6582 16.9997C53.6582 17.3677 53.3598 17.6661 52.9918 17.6661C52.6238 17.6661 52.3254 17.3677 52.3254 16.9997C52.3254 16.6317 52.6238 16.3333 52.9918 16.3333ZM17.0075 17.6661C16.6395 17.6661 16.3411 17.3677 16.3411 16.9997C16.3411 16.6317 16.6395 16.3333 17.0075 16.3333C17.3755 16.3333 17.6739 16.6317 17.6739 16.9997C17.6739 17.3677 17.3755 17.6661 17.0075 17.6661ZM29.6687 52.3176C30.0367 52.3176 30.335 52.616 30.335 52.984C30.335 53.352 30.0367 53.6503 29.6687 53.6503C29.3006 53.6503 29.0023 53.352 29.0023 52.984C29.0023 52.616 29.3006 52.3176 29.6687 52.3176ZM24.3377 47.5983C22.6908 48.5601 20.6535 48.5601 19.0066 47.5983V46.3202C19.0066 44.8481 20.2 43.6547 21.6721 43.6547C23.1443 43.6547 24.3377 44.8481 24.3377 46.3202V47.5983ZM20.3394 40.9892C20.3394 40.2531 20.9361 39.6565 21.6721 39.6565C22.4082 39.6565 23.0049 40.2531 23.0049 40.9892C23.0049 41.7253 22.4082 42.322 21.6721 42.322C20.9361 42.322 20.3394 41.7252 20.3394 40.9892ZM25.6704 39.4505C26.5319 40.4274 27.006 41.6858 27.0031 42.9883C27.0029 44.2833 26.5289 45.5333 25.6704 46.5028V46.3202C25.6696 44.8633 24.8763 43.5222 23.6 42.8197C24.6164 41.7549 24.5771 40.0676 23.5123 39.0511C22.4474 38.0347 20.7601 38.074 19.7437 39.1388C18.7605 40.1688 18.7605 41.7897 19.7437 42.8197C18.4676 43.5223 17.6746 44.8633 17.6739 46.3201V46.5027C15.7265 44.2945 15.9379 40.9257 18.146 38.9783C20.3542 37.0309 23.723 37.2423 25.6704 39.4505ZM39.6643 30.8097C36.8824 32.8293 33.1169 32.8293 30.335 30.8097V29.1944C30.335 27.9799 31.3196 26.9953 32.5341 26.9953H34.0134L33.0465 29.4129C32.9475 29.6606 33.0057 29.9435 33.1944 30.132L34.5272 31.4647C34.7874 31.7248 35.2092 31.7248 35.4694 31.4647L36.8022 30.132C36.9909 29.9435 37.0492 29.6606 36.9501 29.4129L35.9839 26.9953H37.4652C38.6797 26.9953 39.6643 27.9799 39.6643 29.1944V30.8097ZM35.095 19.9884C35.07 20.03 35.0497 20.0742 35.0344 20.1202C34.6972 21.1311 32.8767 21.5143 31.7046 21.6256C31.8833 19.3924 32.9342 18.3324 34.9997 18.3324C36.8909 18.3324 37.9318 19.2266 38.2297 21.0925L36.0093 19.7597C35.6936 19.5705 35.2843 19.6729 35.095 19.9884ZM35.9186 21.2605L38.3002 22.6899C38.033 24.3212 36.0225 25.6626 34.9997 25.6626C33.5134 25.4094 32.277 24.3788 31.7604 22.9624C32.9012 22.8685 34.961 22.5226 35.9186 21.2605ZM35.5501 29.5002L34.9997 30.0513L34.4492 29.5002L34.9997 28.1228L35.5501 29.5002ZM37.907 25.6932C38.9466 24.8752 39.5862 23.6512 39.6643 22.3307C39.6643 17.9246 37.1274 16.9997 34.9997 16.9997C32.8719 16.9997 30.335 17.9246 30.335 22.3307C30.4125 23.652 31.0522 24.8768 32.0923 25.6952C30.3259 25.9129 28.9997 27.4146 29.0023 29.1944V29.5995C26.0811 26.2873 26.3982 21.2341 29.7105 18.313C33.0228 15.3918 38.0759 15.7088 40.997 19.0211C43.6625 22.0435 43.6625 26.577 40.997 29.5994V29.1943C41.0006 27.4138 39.6742 25.9109 37.907 25.6932ZM50.3263 52.1337C47.5444 54.1533 43.7789 54.1533 40.997 52.1337V50.5184C40.997 49.3039 41.9816 48.3193 43.1961 48.3193H44.6754L43.7085 50.7369C43.6095 50.9846 43.6677 51.2675 43.8564 51.456L45.1892 52.7887C45.4494 53.0488 45.8712 53.0488 46.1315 52.7887L47.4642 51.456C47.653 51.2675 47.7112 50.9846 47.6121 50.7369L46.6459 48.3193H48.1272C49.3417 48.3193 50.3263 49.3039 50.3263 50.5184V52.1337ZM46.5806 42.5845V42.5838L48.9622 44.0132C48.695 45.6452 46.6845 46.9866 45.6617 46.9866C44.1754 46.7334 42.939 45.7028 42.4224 44.2864C43.5632 44.1925 45.623 43.8465 46.5806 42.5845ZM42.3664 42.9497C42.545 40.7167 43.5959 39.6565 45.6617 39.6565C47.5528 39.6565 48.5937 40.5507 48.8916 42.4166L46.6712 41.0838C46.3556 40.8945 45.9463 40.9969 45.7569 41.3125C45.732 41.3541 45.7116 41.3983 45.6963 41.4443C45.3591 42.4552 43.5386 42.8384 42.3664 42.9497ZM46.2121 50.8242L45.6617 51.3753L45.1112 50.8242L45.6617 49.4468L46.2121 50.8242ZM51.659 50.9254V50.5183C51.6626 48.7377 50.3362 47.2349 48.569 47.0172C49.6086 46.1991 50.2482 44.9751 50.3263 43.6546C50.3263 39.2486 47.7894 38.3236 45.6617 38.3236C43.5339 38.3236 40.997 39.2486 40.997 43.6546C41.0745 44.9759 41.7142 46.2007 42.7543 47.0191C40.9879 47.2368 39.6617 48.7385 39.6643 50.5183V50.9234C36.75 47.6086 37.0747 42.5589 40.3895 39.6445C43.7043 36.7302 48.7541 37.0549 51.6684 40.3697C52.9525 41.8303 53.6599 43.7089 53.6582 45.6537C53.6577 47.5961 52.9467 49.4712 51.659 50.9254Z" fill="#F91647"/>
</svg>
