<svg width="70" height="70" viewBox="0 0 70 70" fill="none" xmlns="http://www.w3.org/2000/svg">
<circle cx="35" cy="35" r="35" fill="#FCE6E3"/>
<path d="M34.56 20.12C37.3333 20.12 39.56 20.88 41.24 22.4C42.9467 23.8933 43.8 25.96 43.8 28.6C43.8 31.2133 42.96 33.2133 41.28 34.6C39.6 35.96 37.3733 36.64 34.6 36.64L34.44 39.72H29.52L29.32 32.92H31.12C33.44 32.92 35.2267 32.6133 36.48 32C37.7333 31.3867 38.36 30.2667 38.36 28.64C38.36 27.4667 38.0133 26.5333 37.32 25.84C36.6533 25.1467 35.7333 24.8 34.56 24.8C33.3333 24.8 32.3733 25.1333 31.68 25.8C31.0133 26.4667 30.68 27.3867 30.68 28.56H25.4C25.3733 26.9333 25.72 25.48 26.44 24.2C27.16 22.92 28.2133 21.92 29.6 21.2C31.0133 20.48 32.6667 20.12 34.56 20.12ZM31.96 49.28C30.9467 49.28 30.1067 48.9733 29.44 48.36C28.8 47.72 28.48 46.9333 28.48 46C28.48 45.0667 28.8 44.2933 29.44 43.68C30.1067 43.04 30.9467 42.72 31.96 42.72C32.9467 42.72 33.76 43.04 34.4 43.68C35.04 44.2933 35.36 45.0667 35.36 46C35.36 46.9333 35.04 47.72 34.4 48.36C33.76 48.9733 32.9467 49.28 31.96 49.28Z" fill="#D80633"/>
</svg>
