<svg width="226" height="60" viewBox="0 0 226 60" fill="none" xmlns="http://www.w3.org/2000/svg">
<path d="M32.3036 0C14.4572 0 0 9.84995 0 27.6964C0 45.5428 14.4572 60 32.3036 60C50.15 60 64.6072 45.5428 64.6072 27.6964C64.5543 9.84995 50.0971 0 32.3036 0ZM48.2966 33.5746C46.3372 36.8049 43.8482 39.6646 41.0415 42.1536C39.5587 43.5304 37.917 44.6955 36.1165 45.5958C35.9047 45.7017 35.7458 45.8076 35.534 45.8605C34.3689 46.3901 33.2039 46.7608 31.88 46.6549C30.7149 46.496 29.6028 46.1253 28.5966 45.5958C28.173 45.3839 27.7493 45.1191 27.3257 44.8544C23.1951 42.3124 19.8588 38.9232 17.0521 35.0044C15.4634 32.7802 14.2454 30.3442 13.9806 27.5375C13.7158 24.7308 14.1395 22.083 15.6752 19.6999C17.5816 16.4695 21.3416 14.7749 25.0485 15.5163C27.2727 15.94 29.2851 16.9991 30.8738 18.6408C31.2974 19.0644 31.7211 19.541 32.1447 20.0177C32.1977 20.0177 32.1977 20.0177 32.2507 19.9647C32.3566 19.8588 32.4625 19.7529 32.5154 19.647C33.6275 18.2171 35.0044 17.0521 36.5931 16.2048C40.1412 14.4042 44.2189 14.8279 47.0786 17.5287C49.5146 19.8058 50.4678 22.6655 50.5207 25.9488C50.5207 28.6496 49.7264 31.2974 48.2966 33.5746Z" fill="white"/>
<path d="M38.4466 28.2789C38.3937 27.9612 38.023 27.6434 37.7582 27.5905C37.4934 27.5375 37.1227 27.8553 36.9638 28.0671C36.805 28.2789 36.805 28.6496 36.752 28.9673C36.5402 30.0794 36.3284 31.2445 36.1165 32.3566C36.0106 32.9921 35.0574 32.8861 35.0574 32.2507C35.0574 32.2507 35.0574 32.2507 35.0574 32.1977C35.2163 30.0265 35.3222 27.8553 35.4281 25.6311C35.4811 24.9956 35.3751 24.466 34.6337 24.466C33.8923 24.466 33.7864 24.9956 33.7335 25.6311C33.5746 27.7493 33.4157 29.8147 33.2569 31.88C33.2039 32.1447 32.9921 32.4095 32.7273 32.3566C32.3566 32.3036 32.4096 32.1447 32.4096 31.7211C32.4625 30.662 32.4096 29.5499 32.4096 28.4907C32.4096 27.0609 32.4625 25.6311 32.3566 24.2012C32.3566 24.0424 32.3036 23.8835 32.1448 23.7246C31.9329 23.5128 31.2975 23.4598 31.0327 23.6187C30.8738 23.7246 30.8209 23.7776 30.7149 24.0953C30.609 24.3601 30.662 24.6249 30.662 24.8897V31.9859C30.662 32.2507 30.5561 32.4095 30.3442 32.4625L30.2383 32.5154C29.9735 32.5684 29.7088 32.3566 29.6558 32.0918C29.3381 30.0265 29.0733 28.0141 28.7555 25.9488C28.6496 25.4192 28.226 25.1015 27.8553 25.1545C27.1668 25.2074 27.1668 25.684 27.0609 26.0547C26.955 26.4254 27.1139 26.8491 27.1668 27.2727C27.4846 29.9206 27.8023 32.5154 28.1201 35.1633C28.173 35.7458 28.226 36.2754 27.5905 36.2754C27.2198 36.2754 26.6902 35.9047 26.4784 35.5869C25.9488 34.7926 25.6311 33.9453 25.2074 33.098C24.9427 32.5684 24.2013 31.9859 23.6717 32.4095C23.248 32.7802 23.1951 33.3098 23.4069 33.8394C24.3072 36.0106 25.2074 38.2877 26.1077 40.459C26.4254 41.2004 26.9021 41.8888 27.4316 42.4713C28.1201 43.2657 28.4908 44.06 28.4908 45.0662V45.4899C29.4969 46.0194 30.609 46.3901 31.7741 46.549C33.098 46.7079 34.263 46.2842 35.4281 45.7546C35.6399 45.6487 35.7988 45.5958 36.0106 45.4899C36.0106 44.9603 36.0106 44.4307 36.0636 43.7952C36.1165 43.1598 37.9171 41.0944 37.6523 37.97C37.5993 35.0574 37.8111 32.5684 38.2878 29.6558C38.3407 29.1792 38.4996 28.7026 38.4466 28.2789Z" fill="white"/>
<path d="M78.5878 13.5569C78.5878 10.3795 80.9708 7.78464 84.3601 7.78464C86.0017 7.78464 87.1138 8.20829 88.067 8.89673C88.3318 9.10856 88.5436 9.4263 88.5436 9.84995C88.5436 10.5384 88.0141 11.015 87.3256 11.015C87.0079 11.015 86.7961 10.9091 86.5842 10.8032C85.8958 10.2736 85.2074 10.0088 84.3071 10.0088C82.4536 10.0088 81.0767 11.5446 81.0767 13.451V13.504C81.0767 15.4104 82.4007 16.9991 84.3071 16.9991C85.3133 16.9991 86.0017 16.6814 86.6902 16.1518C86.902 15.9929 87.1138 15.887 87.4316 15.887C88.067 15.887 88.5436 16.4166 88.5436 16.9991C88.5436 17.3698 88.3318 17.6875 88.12 17.8464C87.1138 18.6937 85.9488 19.2233 84.2012 19.2233C81.0238 19.2763 78.5878 16.7343 78.5878 13.5569Z" fill="white"/>
<path d="M89.9205 13.5569C89.9205 10.3795 92.4095 7.78464 95.7987 7.78464C99.188 7.78464 101.677 10.3266 101.677 13.451V13.504C101.677 16.6284 99.188 19.2233 95.7987 19.2233C92.3565 19.2763 89.9205 16.7343 89.9205 13.5569ZM99.135 13.5569C99.135 11.6505 97.7581 10.0618 95.7987 10.0618C93.8393 10.0618 92.4625 11.5975 92.4625 13.504V13.5569C92.4625 15.4634 93.8393 17.0521 95.7987 17.0521C97.7581 16.9991 99.135 15.4634 99.135 13.5569Z" fill="white"/>
<path d="M103.848 9.16151C103.848 8.47307 104.378 7.94351 105.066 7.94351H105.331C105.86 7.94351 106.231 8.20829 106.443 8.57899L109.356 13.3451L112.321 8.52603C112.586 8.10238 112.904 7.89055 113.433 7.89055H113.698C114.387 7.89055 114.916 8.42012 114.916 9.10855V17.8994C114.916 18.5878 114.387 19.1174 113.698 19.1174C113.01 19.1174 112.48 18.5878 112.48 17.8994V12.4448L110.362 15.7281C110.097 16.0988 109.779 16.3636 109.356 16.3636C108.932 16.3636 108.614 16.1518 108.349 15.7281L106.231 12.4978V18.0053C106.231 18.6937 105.702 19.1703 105.013 19.1703C104.325 19.1703 103.848 18.6408 103.848 18.0053V9.16151Z" fill="white"/>
<path d="M117.564 9.16151C117.564 8.47307 118.094 7.94351 118.782 7.94351H119.047C119.576 7.94351 119.947 8.20829 120.159 8.57899L123.071 13.3451L126.037 8.52603C126.302 8.10238 126.62 7.89055 127.149 7.89055H127.414C128.102 7.89055 128.632 8.42012 128.632 9.10855V17.8994C128.632 18.5878 128.102 19.1174 127.414 19.1174C126.725 19.1174 126.196 18.5878 126.196 17.8994V12.4448L124.078 15.7281C123.813 16.0988 123.495 16.3636 123.071 16.3636C122.648 16.3636 122.33 16.1518 122.065 15.7281L119.947 12.4978V18.0053C119.947 18.6937 119.417 19.1703 118.729 19.1703C118.041 19.1703 117.564 18.6408 117.564 18.0053V9.16151Z" fill="white"/>
<path d="M131.068 14.3513V9.16152C131.068 8.47308 131.598 7.94351 132.286 7.94351C132.974 7.94351 133.504 8.47308 133.504 9.16152V14.2983C133.504 16.0989 134.404 17.0521 135.887 17.0521C137.37 17.0521 138.27 16.1518 138.27 14.4042V9.21447C138.27 8.52604 138.8 7.99647 139.488 7.99647C140.177 7.99647 140.706 8.52604 140.706 9.21447V14.3513C140.706 17.6876 138.853 19.3292 135.834 19.3292C132.869 19.2233 131.068 17.5816 131.068 14.3513Z" fill="white"/>
<path d="M143.195 9.16151C143.195 8.47307 143.725 7.94351 144.413 7.94351H144.678C145.26 7.94351 145.631 8.20829 145.949 8.63194L150.662 14.7749V9.10855C150.662 8.42012 151.192 7.89055 151.88 7.89055C152.568 7.89055 153.098 8.42012 153.098 9.10855V17.8994C153.098 18.5878 152.568 19.1174 151.88 19.1174H151.827C151.245 19.1174 150.874 18.8526 150.556 18.4289L145.684 12.0741V18.0053C145.684 18.6937 145.154 19.2233 144.466 19.2233C143.778 19.2233 143.248 18.6937 143.248 18.0053V9.16151H143.195Z" fill="white"/>
<path d="M155.004 17.5287L158.87 8.84377C159.135 8.26125 159.612 7.89055 160.3 7.89055H160.459C161.147 7.89055 161.571 8.26125 161.889 8.84377L165.755 17.5287C165.808 17.6875 165.86 17.8464 165.86 18.0053C165.86 18.6408 165.331 19.1703 164.695 19.1703C164.113 19.1703 163.742 18.8526 163.53 18.323L162.789 16.5755H157.917L157.123 18.376C156.911 18.8526 156.487 19.1174 156.011 19.1174C155.375 19.1174 154.898 18.5878 154.898 18.0053C154.898 17.8464 154.951 17.6875 155.004 17.5287ZM161.836 14.4572L160.3 10.8032L158.764 14.4572H161.836Z" fill="white"/>
<path d="M167.714 9.16152C167.714 8.47308 168.244 7.94351 168.932 7.94351C169.62 7.94351 170.15 8.47308 170.15 9.16152V16.8932H174.651C175.287 16.8932 175.763 17.3698 175.763 18.0053C175.763 18.6408 175.287 19.1174 174.651 19.1174H168.932C168.244 19.1174 167.714 18.5878 167.714 17.8994V9.16152Z" fill="white"/>
<path d="M79.0645 25.3133C79.0645 24.6249 79.594 24.0953 80.2825 24.0953C80.9709 24.0953 81.5005 24.6249 81.5005 25.3133V28.5437H86.0018V25.3133C86.0018 24.6249 86.5314 24.0953 87.2198 24.0953C87.9082 24.0953 88.4378 24.6249 88.4378 25.3133V34.1571C88.4378 34.8455 87.9082 35.3751 87.2198 35.3751C86.5314 35.3751 86.0018 34.8455 86.0018 34.1571V30.8208H81.5005V34.1571C81.5005 34.8455 80.9709 35.3751 80.2825 35.3751C79.594 35.3751 79.0645 34.8455 79.0645 34.1571V25.3133Z" fill="white"/>
<path d="M91.0856 34.0512V25.4192C91.0856 24.7308 91.6151 24.2012 92.3036 24.2012H98.4466C99.0291 24.2012 99.5587 24.6778 99.5587 25.3133C99.5587 25.8958 99.082 26.3725 98.4466 26.3725H93.5216V28.5966H97.7581C98.3406 28.5966 98.8702 29.0733 98.8702 29.7087C98.8702 30.3442 98.3936 30.7679 97.7581 30.7679H93.5216V33.098H98.4995C99.082 33.098 99.6116 33.5746 99.6116 34.2101C99.6116 34.7926 99.135 35.2692 98.4995 35.2692H92.3036C91.6151 35.2692 91.0856 34.7396 91.0856 34.0512Z" fill="white"/>
<path d="M101.041 33.6805L104.907 24.9956C105.172 24.4131 105.649 24.0424 106.337 24.0424H106.496C107.184 24.0424 107.608 24.4131 107.926 24.9956L111.792 33.6805C111.845 33.8394 111.898 33.9982 111.898 34.1571C111.898 34.7926 111.368 35.3221 110.733 35.3221C110.15 35.3221 109.779 35.0044 109.568 34.4748L108.826 32.7273H103.954L103.16 34.5278C102.948 35.0044 102.524 35.2692 102.048 35.2692C101.412 35.2692 100.936 34.7396 100.936 34.1571C100.883 34.0512 100.989 33.8923 101.041 33.6805ZM107.873 30.662L106.337 27.0079L104.801 30.662H107.873Z" fill="white"/>
<path d="M113.751 25.3133C113.751 24.6249 114.281 24.0953 114.969 24.0953C115.658 24.0953 116.187 24.6249 116.187 25.3133V33.045H120.688C121.324 33.045 121.801 33.5216 121.801 34.1571C121.801 34.7926 121.324 35.2692 120.688 35.2692H114.969C114.281 35.2692 113.751 34.7396 113.751 34.0512V25.3133Z" fill="white"/>
<path d="M124.501 26.4784H122.171C121.536 26.4784 121.059 25.9488 121.059 25.3663C121.059 24.7308 121.589 24.2542 122.171 24.2542H129.267C129.903 24.2542 130.379 24.7837 130.379 25.3663C130.379 26.0018 129.85 26.4784 129.267 26.4784H126.937V34.1571C126.937 34.8455 126.408 35.3751 125.719 35.3751C125.031 35.3751 124.501 34.8455 124.501 34.1571V26.4784Z" fill="white"/>
<path d="M132.18 25.3133C132.18 24.6249 132.71 24.0953 133.398 24.0953C134.086 24.0953 134.616 24.6249 134.616 25.3133V28.5437H139.117V25.3133C139.117 24.6249 139.647 24.0953 140.335 24.0953C141.024 24.0953 141.553 24.6249 141.553 25.3133V34.1571C141.553 34.8455 141.024 35.3751 140.335 35.3751C139.647 35.3751 139.117 34.8455 139.117 34.1571V30.8208H134.616V34.1571C134.616 34.8455 134.086 35.3751 133.398 35.3751C132.71 35.3751 132.18 34.8455 132.18 34.1571V25.3133Z" fill="white"/>
<path d="M148.703 34.1041C148.438 33.8923 148.226 33.5746 148.226 33.2039C148.226 32.5684 148.756 32.0918 149.338 32.0918C149.656 32.0918 149.868 32.1977 150.026 32.3036C150.874 32.9391 151.774 33.3098 152.833 33.3098C153.839 33.3098 154.422 32.9391 154.422 32.2506V32.1977C154.422 31.5622 154.051 31.2445 152.198 30.7679C149.974 30.1853 148.544 29.6028 148.544 27.3786V27.3257C148.544 25.3133 150.132 23.9894 152.41 23.9894C153.733 23.9894 154.899 24.3601 155.905 24.9426C156.169 25.1015 156.434 25.4192 156.434 25.8958C156.434 26.5313 155.905 27.0079 155.322 27.0079C155.11 27.0079 154.899 26.955 154.687 26.8491C153.892 26.3724 153.098 26.1077 152.357 26.1077C151.403 26.1077 150.927 26.5313 150.927 27.0609V27.1138C150.927 27.8552 151.403 28.0671 153.31 28.5437C155.534 29.1262 156.805 29.9206 156.805 31.88V31.9329C156.805 34.1041 155.11 35.3751 152.727 35.3751C151.403 35.4281 149.921 35.0044 148.703 34.1041Z" fill="white"/>
<path d="M158.817 30.556V25.3663C158.817 24.6778 159.347 24.1483 160.035 24.1483C160.724 24.1483 161.253 24.6778 161.253 25.3663V30.4501C161.253 32.2507 162.154 33.2039 163.636 33.2039C165.119 33.2039 166.019 32.3036 166.019 30.556V25.3663C166.019 24.6778 166.549 24.1483 167.237 24.1483C167.926 24.1483 168.455 24.6778 168.455 25.3663V30.4501C168.455 33.7864 166.602 35.4281 163.583 35.4281C160.671 35.4281 158.817 33.7864 158.817 30.556Z" fill="white"/>
<path d="M170.944 25.4192C170.944 24.7308 171.474 24.2012 172.162 24.2012H175.446C178.093 24.2012 179.682 25.7899 179.682 28.0141V28.0671C179.682 30.609 177.67 31.9329 175.234 31.9329H173.38V34.1571C173.38 34.8455 172.851 35.3751 172.162 35.3751C171.474 35.3751 170.944 34.8455 170.944 34.1571V25.4192ZM175.287 29.8146C176.505 29.8146 177.193 29.0733 177.193 28.12V28.0671C177.193 26.955 176.452 26.3725 175.234 26.3725H173.38V29.7617H175.287V29.8146Z" fill="white"/>
<path d="M181.483 25.4192C181.483 24.7308 182.012 24.2012 182.701 24.2012H185.984C188.632 24.2012 190.221 25.7899 190.221 28.0141V28.0671C190.221 30.609 188.208 31.9329 185.772 31.9329H183.919V34.1571C183.919 34.8455 183.389 35.3751 182.701 35.3751C182.012 35.3751 181.483 34.8455 181.483 34.1571V25.4192ZM185.825 29.8146C187.043 29.8146 187.732 29.0733 187.732 28.12V28.0671C187.732 26.955 186.99 26.3725 185.772 26.3725H183.919V29.7617H185.825V29.8146Z" fill="white"/>
<path d="M191.545 29.7617C191.545 26.5843 194.034 23.9894 197.423 23.9894C200.812 23.9894 203.301 26.5313 203.301 29.6558V29.7087C203.301 32.8332 200.812 35.4281 197.423 35.4281C193.981 35.481 191.545 32.9391 191.545 29.7617ZM200.759 29.7617C200.759 27.8552 199.382 26.2665 197.423 26.2665C195.463 26.2665 194.086 27.8023 194.086 29.7087V29.7617C194.086 31.6681 195.463 33.2568 197.423 33.2568C199.382 33.2039 200.759 31.6681 200.759 29.7617Z" fill="white"/>
<path d="M205.419 25.4192C205.419 24.7308 205.949 24.2012 206.637 24.2012H210.45C211.88 24.2012 212.939 24.5719 213.681 25.3133C214.316 25.9488 214.634 26.7961 214.634 27.8552V27.9082C214.634 29.6558 213.786 30.7149 212.41 31.2445L214.104 33.3098C214.316 33.6275 214.475 33.8394 214.475 34.263C214.475 34.9515 213.892 35.3751 213.31 35.3751C212.78 35.3751 212.41 35.1103 212.092 34.7396L209.709 31.7211H207.749V34.1571C207.749 34.8455 207.22 35.3751 206.531 35.3751C205.843 35.3751 205.313 34.8455 205.313 34.1571V25.4192H205.419ZM210.344 29.6028C211.509 29.6028 212.198 28.9673 212.198 28.0141V27.9612C212.198 26.902 211.456 26.3725 210.291 26.3725H207.855V29.5499H210.344V29.6028Z" fill="white"/>
<path d="M219.453 26.4784H217.123C216.487 26.4784 216.011 25.9488 216.011 25.3663C216.011 24.7308 216.54 24.2542 217.123 24.2542H224.219C224.854 24.2542 225.331 24.7837 225.331 25.3663C225.331 26.0018 224.801 26.4784 224.219 26.4784H221.889V34.1571C221.889 34.8455 221.359 35.3751 220.671 35.3751C219.982 35.3751 219.453 34.8455 219.453 34.1571V26.4784Z" fill="white"/>
<path d="M78.8526 50.3089C78.5878 50.0971 78.376 49.7793 78.376 49.4086C78.376 48.7732 78.9055 48.2965 79.4881 48.2965C79.8058 48.2965 80.0176 48.4025 80.1765 48.5084C81.0238 49.1439 81.9241 49.5146 82.9832 49.5146C83.9894 49.5146 84.5719 49.1439 84.5719 48.4554V48.4025C84.5719 47.767 84.2012 47.4492 82.3477 46.9726C80.1235 46.3901 78.6937 45.8076 78.6937 43.5834V43.5304C78.6937 41.5181 80.2824 40.1942 82.5596 40.1942C83.8835 40.1942 85.0485 40.5649 86.0547 41.1474C86.3195 41.3063 86.5843 41.624 86.5843 42.1006C86.5843 42.7361 86.0547 43.2127 85.4722 43.2127C85.2604 43.2127 85.0485 43.1597 84.8367 43.0538C84.0423 42.5772 83.248 42.3124 82.5066 42.3124C81.5534 42.3124 81.0768 42.7361 81.0768 43.2657V43.3186C81.0768 44.06 81.5534 44.2718 83.4598 44.7484C85.684 45.331 86.955 46.1253 86.955 48.0847V48.1377C86.955 50.3089 85.2604 51.5799 82.8773 51.5799C81.5534 51.6328 80.1235 51.1562 78.8526 50.3089Z" fill="white"/>
<path d="M88.7025 45.9665C88.7025 42.789 91.0856 40.1942 94.4748 40.1942C96.1165 40.1942 97.2285 40.6178 98.1818 41.3063C98.4466 41.5181 98.6584 41.8358 98.6584 42.2595C98.6584 42.9479 98.1288 43.4245 97.4404 43.4245C97.1226 43.4245 96.9108 43.3186 96.699 43.2127C96.0105 42.6831 95.3221 42.4184 94.4218 42.4184C92.5684 42.4184 91.1915 43.9541 91.1915 45.8605V45.9135C91.1915 47.8199 92.5154 49.4086 94.4218 49.4086C95.428 49.4086 96.1165 49.0909 96.8049 48.5613C97.0167 48.4025 97.2285 48.2965 97.5463 48.2965C98.1818 48.2965 98.6584 48.8261 98.6584 49.4086C98.6584 49.7793 98.4466 50.0971 98.2347 50.256C97.2286 51.1033 96.0635 51.6328 94.3159 51.6328C91.1385 51.6328 88.7025 49.1439 88.7025 45.9665Z" fill="white"/>
<path d="M100.83 41.5181C100.83 40.8296 101.359 40.3001 102.048 40.3001C102.736 40.3001 103.266 40.8296 103.266 41.5181V44.7484H107.767V41.5181C107.767 40.8296 108.296 40.3001 108.985 40.3001C109.673 40.3001 110.203 40.8296 110.203 41.5181V50.3089C110.203 50.9973 109.673 51.5269 108.985 51.5269C108.296 51.5269 107.767 50.9973 107.767 50.3089V46.9726H103.266V50.3089C103.266 50.9973 102.736 51.5269 102.048 51.5269C101.359 51.5269 100.83 50.9973 100.83 50.3089V41.5181Z" fill="white"/>
<path d="M112.851 50.256V41.624C112.851 40.9356 113.38 40.406 114.069 40.406H120.212C120.794 40.406 121.324 40.8826 121.324 41.5181C121.324 42.1006 120.847 42.5772 120.212 42.5772H115.287V44.8014H119.523C120.106 44.8014 120.635 45.278 120.635 45.9135C120.635 46.549 120.159 46.9726 119.523 46.9726H115.287V49.3027H120.265C120.847 49.3027 121.377 49.7793 121.377 50.4148C121.377 50.9974 120.9 51.474 120.265 51.474H114.069C113.38 51.474 112.851 50.9444 112.851 50.256Z" fill="white"/>
<path d="M123.389 41.571C123.389 40.8826 123.919 40.353 124.607 40.353H124.872C125.402 40.353 125.772 40.6178 125.984 40.9885L128.897 45.7546L131.862 40.9356C132.127 40.5119 132.445 40.3001 132.974 40.3001H133.239C133.928 40.3001 134.457 40.8296 134.457 41.5181V50.3089C134.457 50.9973 133.928 51.5269 133.239 51.5269C132.551 51.5269 132.021 50.9973 132.021 50.3089V44.8544L129.903 48.1377C129.638 48.5084 129.32 48.7732 128.897 48.7732C128.473 48.7732 128.155 48.5613 127.89 48.1377L125.772 44.9073V50.4148C125.772 51.1033 125.243 51.5799 124.554 51.5799C123.866 51.5799 123.389 51.0503 123.389 50.4148V41.571Z" fill="white"/>
<path d="M137.105 50.256V41.624C137.105 40.9356 137.635 40.406 138.323 40.406H144.466C145.048 40.406 145.578 40.8826 145.578 41.5181C145.578 42.1006 145.101 42.5772 144.466 42.5772H139.541V44.8014H143.778C144.36 44.8014 144.89 45.278 144.89 45.9135C144.89 46.549 144.413 46.9726 143.778 46.9726H139.541V49.3027H144.519C145.101 49.3027 145.631 49.7793 145.631 50.4148C145.631 50.9974 145.154 51.474 144.519 51.474H138.323C137.635 51.474 137.105 50.9444 137.105 50.256Z" fill="white"/>
</svg>
