<svg width="151" height="40" viewBox="0 0 151 40" fill="none" xmlns="http://www.w3.org/2000/svg">
<path d="M21.5357 0C9.63813 0 0 6.56664 0 18.4643C0 30.3619 9.63813 40 21.5357 40C33.4334 40 43.0715 30.3619 43.0715 18.4643C43.0362 6.56664 33.3981 0 21.5357 0ZM32.1977 22.3831C30.8914 24.5366 29.2321 26.4431 27.361 28.1024C26.3725 29.0203 25.278 29.797 24.0777 30.3972C23.9365 30.4678 23.8305 30.5384 23.6893 30.5737C22.9126 30.9267 22.1359 31.1739 21.2533 31.1033C20.4766 30.9974 19.7352 30.7502 19.0644 30.3972C18.782 30.256 18.4996 30.0794 18.2171 29.9029C15.4634 28.2083 13.2392 25.9488 11.368 23.3363C10.3089 21.8535 9.49691 20.2295 9.32039 18.3583C9.14387 16.4872 9.4263 14.722 10.4501 13.1333C11.7211 10.9797 14.2277 9.84996 16.699 10.3442C18.1818 10.6267 19.5234 11.3327 20.5825 12.4272C20.865 12.7096 21.1474 13.0274 21.4298 13.3451C21.4651 13.3451 21.4651 13.3451 21.5004 13.3098C21.5711 13.2392 21.6417 13.1686 21.677 13.098C22.4184 12.1447 23.3363 11.368 24.3954 10.8032C26.7608 9.60282 29.4793 9.88526 31.3857 11.6858C33.0097 13.2039 33.6452 15.1103 33.6805 17.2992C33.6805 19.0997 33.1509 20.865 32.1977 22.3831Z" fill="white"/>
<path d="M25.6311 18.8527C25.5958 18.6409 25.3487 18.4291 25.1721 18.3937C24.9956 18.3584 24.7485 18.5703 24.6426 18.7115C24.5367 18.8527 24.5367 19.0998 24.5014 19.3117C24.3601 20.0531 24.2189 20.8298 24.0777 21.5712C24.0071 21.9948 23.3716 21.9242 23.3716 21.5005C23.3716 21.5005 23.3716 21.5005 23.3716 21.4652C23.4775 20.0178 23.5481 18.5703 23.6187 17.0875C23.654 16.6638 23.5834 16.3108 23.0892 16.3108C22.5949 16.3108 22.5243 16.6638 22.489 17.0875C22.3831 18.4997 22.2772 19.8765 22.1713 21.2534C22.136 21.4299 21.9947 21.6065 21.8182 21.5712C21.5711 21.5358 21.6064 21.4299 21.6064 21.1475C21.6417 20.4414 21.6064 19.7 21.6064 18.9939C21.6064 18.0407 21.6417 17.0875 21.5711 16.1343C21.5711 16.0283 21.5358 15.9224 21.4299 15.8165C21.2886 15.6753 20.865 15.64 20.6885 15.7459C20.5826 15.8165 20.5473 15.8518 20.4766 16.0636C20.406 16.2402 20.4413 16.4167 20.4413 16.5932V21.324C20.4413 21.5005 20.3707 21.6065 20.2295 21.6418L20.1589 21.6771C19.9824 21.7124 19.8059 21.5712 19.7706 21.3946C19.5587 20.0178 19.3822 18.6762 19.1704 17.2993C19.0998 16.9463 18.8173 16.7344 18.5702 16.7697C18.1112 16.805 18.1112 17.1228 18.0406 17.3699C17.97 17.617 18.0759 17.8995 18.1112 18.1819C18.3231 19.9471 18.5349 21.6771 18.7467 23.4423C18.782 23.8306 18.8173 24.1837 18.3937 24.1837C18.1465 24.1837 17.7935 23.9366 17.6523 23.7247C17.2992 23.1952 17.0874 22.6303 16.805 22.0654C16.6285 21.7124 16.1342 21.324 15.7811 21.6065C15.4987 21.8536 15.4634 22.2066 15.6046 22.5597C16.2048 24.0072 16.805 25.5253 17.4052 26.9727C17.617 27.467 17.9347 27.926 18.2878 28.3143C18.7467 28.8439 18.9939 29.3734 18.9939 30.0442V30.3267C19.6646 30.6797 20.406 30.9268 21.1827 31.0328C22.0653 31.1387 22.842 30.8562 23.6187 30.5032C23.76 30.4326 23.8659 30.3973 24.0071 30.3267C24.0071 29.9736 24.0071 29.6206 24.0424 29.1969C24.0777 28.7733 25.2781 27.3964 25.1015 25.3134C25.0662 23.3717 25.2074 21.7124 25.5252 19.7706C25.5605 19.4529 25.6664 19.1351 25.6311 18.8527Z" fill="white"/>
<path d="M52.3919 9.03764C52.3919 6.91937 53.9806 5.18945 56.2401 5.18945C57.3345 5.18945 58.0759 5.47189 58.7114 5.93085C58.8879 6.07207 59.0292 6.28389 59.0292 6.56633C59.0292 7.02529 58.6761 7.34303 58.2171 7.34303C58.0053 7.34303 57.8641 7.27242 57.7229 7.20181C57.2639 6.84876 56.805 6.67224 56.2048 6.67224C54.9691 6.67224 54.0512 7.69607 54.0512 8.96703V9.00234C54.0512 10.2733 54.9338 11.3324 56.2048 11.3324C56.8756 11.3324 57.3345 11.1206 57.7935 10.7676C57.9347 10.6617 58.0759 10.591 58.2878 10.591C58.7114 10.591 59.0292 10.9441 59.0292 11.3324C59.0292 11.5796 58.8879 11.7914 58.7467 11.8973C58.0759 12.4622 57.2992 12.8152 56.1342 12.8152C54.0159 12.8505 52.3919 11.1559 52.3919 9.03764Z" fill="white"/>
<path d="M59.9471 9.03764C59.9471 6.91937 61.6064 5.18945 63.8659 5.18945C66.1254 5.18945 67.7847 6.88407 67.7847 8.96703V9.00234C67.7847 11.0853 66.1254 12.8152 63.8659 12.8152C61.5711 12.8505 59.9471 11.1559 59.9471 9.03764ZM66.0901 9.03764C66.0901 7.76668 65.1721 6.70755 63.8659 6.70755C62.5596 6.70755 61.6417 7.73138 61.6417 9.00234V9.03764C61.6417 10.3086 62.5596 11.3677 63.8659 11.3677C65.1721 11.3324 66.0901 10.3086 66.0901 9.03764Z" fill="white"/>
<path d="M69.2322 6.10732C69.2322 5.64836 69.5852 5.29531 70.0442 5.29531H70.2207C70.5737 5.29531 70.8209 5.47184 70.9621 5.71897L72.9038 8.89637L74.8809 5.68366C75.0574 5.40123 75.2692 5.26001 75.6223 5.26001H75.7988C76.2578 5.26001 76.6108 5.61306 76.6108 6.07201V11.9326C76.6108 12.3915 76.2578 12.7446 75.7988 12.7446C75.3399 12.7446 74.9868 12.3915 74.9868 11.9326V8.2962L73.5746 10.4851C73.3981 10.7322 73.1863 10.9087 72.9038 10.9087C72.6214 10.9087 72.4096 10.7675 72.2331 10.4851L70.8209 8.3315V12.0032C70.8209 12.4621 70.4678 12.7799 70.0089 12.7799C69.5499 12.7799 69.2322 12.4268 69.2322 12.0032V6.10732Z" fill="white"/>
<path d="M78.3761 6.10732C78.3761 5.64836 78.7291 5.29531 79.1881 5.29531H79.3646C79.7176 5.29531 79.9648 5.47184 80.106 5.71897L82.0477 8.89637L84.0248 5.68366C84.2013 5.40123 84.4131 5.26001 84.7662 5.26001H84.9427C85.4017 5.26001 85.7547 5.61306 85.7547 6.07201V11.9326C85.7547 12.3915 85.4017 12.7446 84.9427 12.7446C84.4837 12.7446 84.1307 12.3915 84.1307 11.9326V8.2962L82.7185 10.4851C82.542 10.7322 82.3302 10.9087 82.0477 10.9087C81.7653 10.9087 81.5535 10.7675 81.377 10.4851L79.9648 8.3315V12.0032C79.9648 12.4621 79.6117 12.7799 79.1528 12.7799C78.6938 12.7799 78.3761 12.4268 78.3761 12.0032V6.10732Z" fill="white"/>
<path d="M87.3787 9.56726V6.10741C87.3787 5.64845 87.7317 5.29541 88.1907 5.29541C88.6497 5.29541 89.0027 5.64845 89.0027 6.10741V9.53195C89.0027 10.7323 89.6029 11.3678 90.5914 11.3678C91.5799 11.3678 92.1801 10.7676 92.1801 9.60256V6.14272C92.1801 5.68376 92.5331 5.33071 92.9921 5.33071C93.4511 5.33071 93.8041 5.68376 93.8041 6.14272V9.56726C93.8041 11.7914 92.5685 12.8859 90.5561 12.8859C88.579 12.8153 87.3787 11.7208 87.3787 9.56726Z" fill="white"/>
<path d="M95.4634 6.10732C95.4634 5.64836 95.8165 5.29531 96.2754 5.29531H96.452C96.8403 5.29531 97.0875 5.47184 97.2993 5.75427L100.441 9.8496V6.07201C100.441 5.61306 100.794 5.26001 101.253 5.26001C101.712 5.26001 102.065 5.61306 102.065 6.07201V11.9326C102.065 12.3915 101.712 12.7446 101.253 12.7446H101.218C100.83 12.7446 100.583 12.568 100.371 12.2856L97.1228 8.04907V12.0032C97.1228 12.4621 96.7697 12.8152 96.3107 12.8152C95.8518 12.8152 95.4987 12.4621 95.4987 12.0032V6.10732H95.4634Z" fill="white"/>
<path d="M103.336 11.6854L105.914 5.89549C106.09 5.50714 106.408 5.26001 106.867 5.26001H106.973C107.432 5.26001 107.714 5.50714 107.926 5.89549L110.503 11.6854C110.538 11.7913 110.574 11.8973 110.574 12.0032C110.574 12.4268 110.221 12.7799 109.797 12.7799C109.409 12.7799 109.162 12.568 109.02 12.215L108.526 11.0499H105.278L104.749 12.2503C104.607 12.568 104.325 12.7446 104.007 12.7446C103.583 12.7446 103.266 12.3915 103.266 12.0032C103.266 11.8973 103.301 11.7913 103.336 11.6854ZM107.891 9.63777L106.867 7.20176L105.843 9.63777H107.891Z" fill="white"/>
<path d="M111.809 6.10741C111.809 5.64845 112.162 5.29541 112.621 5.29541C113.08 5.29541 113.433 5.64845 113.433 6.10741V11.2619H116.434C116.858 11.2619 117.176 11.5796 117.176 12.0033C117.176 12.4269 116.858 12.7447 116.434 12.7447H112.621C112.162 12.7447 111.809 12.3916 111.809 11.9327V6.10741Z" fill="white"/>
<path d="M52.7097 16.8752C52.7097 16.4163 53.0627 16.0632 53.5217 16.0632C53.9806 16.0632 54.3337 16.4163 54.3337 16.8752V19.0288H57.3345V16.8752C57.3345 16.4163 57.6876 16.0632 58.1465 16.0632C58.6055 16.0632 58.9586 16.4163 58.9586 16.8752V22.7711C58.9586 23.23 58.6055 23.5831 58.1465 23.5831C57.6876 23.5831 57.3345 23.23 57.3345 22.7711V20.5469H54.3337V22.7711C54.3337 23.23 53.9806 23.5831 53.5217 23.5831C53.0627 23.5831 52.7097 23.23 52.7097 22.7711V16.8752Z" fill="white"/>
<path d="M60.7238 22.7004V16.9458C60.7238 16.4868 61.0768 16.1338 61.5358 16.1338H65.6311C66.0194 16.1338 66.3725 16.4515 66.3725 16.8752C66.3725 17.2635 66.0547 17.5813 65.6311 17.5813H62.3478V19.0641H65.1721C65.5605 19.0641 65.9135 19.3818 65.9135 19.8055C65.9135 20.2291 65.5958 20.5115 65.1721 20.5115H62.3478V22.0649H65.6664C66.0547 22.0649 66.4078 22.3827 66.4078 22.8063C66.4078 23.1947 66.09 23.5124 65.6664 23.5124H61.5358C61.0768 23.5124 60.7238 23.1594 60.7238 22.7004Z" fill="white"/>
<path d="M67.3611 22.4535L69.9383 16.6636C70.1148 16.2752 70.4325 16.0281 70.8915 16.0281H70.9974C71.4564 16.0281 71.7388 16.2752 71.9506 16.6636L74.5279 22.4535C74.5632 22.5594 74.5985 22.6653 74.5985 22.7712C74.5985 23.1949 74.2454 23.5479 73.8218 23.5479C73.4334 23.5479 73.1863 23.3361 73.0451 22.9831L72.5508 21.818H69.3028L68.7732 23.0184C68.632 23.3361 68.3496 23.5126 68.0318 23.5126C67.6082 23.5126 67.2904 23.1596 67.2904 22.7712C67.2551 22.7006 67.3257 22.5947 67.3611 22.4535ZM71.9153 20.4411L70.8915 18.0051L69.8677 20.4411H71.9153Z" fill="white"/>
<path d="M75.8341 16.8752C75.8341 16.4163 76.1872 16.0632 76.6461 16.0632C77.1051 16.0632 77.4581 16.4163 77.4581 16.8752V22.0297H80.459C80.8826 22.0297 81.2004 22.3474 81.2004 22.7711C81.2004 23.1947 80.8826 23.5125 80.459 23.5125H76.6461C76.1872 23.5125 75.8341 23.1594 75.8341 22.7005V16.8752Z" fill="white"/>
<path d="M83.0009 17.652H81.4475C81.0239 17.652 80.7061 17.2989 80.7061 16.9106C80.7061 16.4869 81.0592 16.1692 81.4475 16.1692H86.1783C86.602 16.1692 86.9197 16.5222 86.9197 16.9106C86.9197 17.3342 86.5667 17.652 86.1783 17.652H84.6249V22.7711C84.6249 23.2301 84.2719 23.5831 83.8129 23.5831C83.3539 23.5831 83.0009 23.2301 83.0009 22.7711V17.652Z" fill="white"/>
<path d="M88.1201 16.8752C88.1201 16.4163 88.4732 16.0632 88.9321 16.0632C89.3911 16.0632 89.7441 16.4163 89.7441 16.8752V19.0288H92.745V16.8752C92.745 16.4163 93.098 16.0632 93.557 16.0632C94.016 16.0632 94.369 16.4163 94.369 16.8752V22.7711C94.369 23.23 94.016 23.5831 93.557 23.5831C93.098 23.5831 92.745 23.23 92.745 22.7711V20.5469H89.7441V22.7711C89.7441 23.23 89.3911 23.5831 88.9321 23.5831C88.4732 23.5831 88.1201 23.23 88.1201 22.7711V16.8752Z" fill="white"/>
<path d="M99.1351 22.7358C98.9586 22.5946 98.8174 22.3828 98.8174 22.1357C98.8174 21.712 99.1704 21.3943 99.5588 21.3943C99.7706 21.3943 99.9118 21.4649 100.018 21.5355C100.583 21.9591 101.183 22.2063 101.889 22.2063C102.56 22.2063 102.948 21.9591 102.948 21.5002V21.4649C102.948 21.0412 102.701 20.8294 101.465 20.5117C99.9824 20.1233 99.0292 19.735 99.0292 18.2522V18.2169C99.0292 16.8753 100.088 15.9927 101.606 15.9927C102.489 15.9927 103.266 16.2398 103.937 16.6282C104.113 16.7341 104.29 16.9459 104.29 17.2636C104.29 17.6873 103.937 18.005 103.548 18.005C103.407 18.005 103.266 17.9697 103.125 17.8991C102.595 17.5814 102.065 17.4049 101.571 17.4049C100.936 17.4049 100.618 17.6873 100.618 18.0403V18.0756C100.618 18.5699 100.936 18.7111 102.207 19.0289C103.689 19.4172 104.537 19.9468 104.537 21.253V21.2884C104.537 22.7358 103.407 23.5831 101.818 23.5831C100.936 23.6184 99.9471 23.336 99.1351 22.7358Z" fill="white"/>
<path d="M105.878 20.3702V16.9104C105.878 16.4514 106.231 16.0984 106.69 16.0984C107.149 16.0984 107.502 16.4514 107.502 16.9104V20.2996C107.502 21.5 108.102 22.1355 109.091 22.1355C110.079 22.1355 110.68 21.5353 110.68 20.3702V16.9104C110.68 16.4514 111.033 16.0984 111.492 16.0984C111.951 16.0984 112.304 16.4514 112.304 16.9104V20.2996C112.304 22.5238 111.068 23.6182 109.056 23.6182C107.114 23.6182 105.878 22.5238 105.878 20.3702Z" fill="white"/>
<path d="M113.963 16.9458C113.963 16.4868 114.316 16.1338 114.775 16.1338H116.964C118.729 16.1338 119.788 17.1929 119.788 18.6757V18.711C119.788 20.4056 118.447 21.2882 116.823 21.2882H115.587V22.771C115.587 23.23 115.234 23.583 114.775 23.583C114.316 23.583 113.963 23.23 113.963 22.771V16.9458ZM116.858 19.8761C117.67 19.8761 118.129 19.3818 118.129 18.7463V18.711C118.129 17.9696 117.635 17.5813 116.823 17.5813H115.587V19.8408H116.858V19.8761Z" fill="white"/>
<path d="M120.989 16.9458C120.989 16.4868 121.342 16.1338 121.801 16.1338H123.989C125.755 16.1338 126.814 17.1929 126.814 18.6757V18.711C126.814 20.4056 125.472 21.2882 123.848 21.2882H122.613V22.771C122.613 23.23 122.26 23.583 121.801 23.583C121.342 23.583 120.989 23.23 120.989 22.771V16.9458ZM123.884 19.8761C124.696 19.8761 125.155 19.3818 125.155 18.7463V18.711C125.155 17.9696 124.66 17.5813 123.848 17.5813H122.613V19.8408H123.884V19.8761Z" fill="white"/>
<path d="M127.696 19.8409C127.696 17.7226 129.356 15.9927 131.615 15.9927C133.875 15.9927 135.534 17.6873 135.534 19.7703V19.8056C135.534 21.8885 133.875 23.6184 131.615 23.6184C129.32 23.6538 127.696 21.9591 127.696 19.8409ZM133.839 19.8409C133.839 18.5699 132.921 17.5108 131.615 17.5108C130.309 17.5108 129.391 18.5346 129.391 19.8056V19.8409C129.391 21.1118 130.309 22.171 131.615 22.171C132.921 22.1357 133.839 21.1118 133.839 19.8409Z" fill="white"/>
<path d="M136.946 16.9458C136.946 16.4868 137.299 16.1338 137.758 16.1338H140.3C141.253 16.1338 141.959 16.3809 142.454 16.8752C142.877 17.2988 143.089 17.8637 143.089 18.5698V18.6051C143.089 19.7702 142.524 20.4762 141.606 20.8293L142.736 22.2062C142.877 22.418 142.983 22.5592 142.983 22.8416C142.983 23.3006 142.595 23.583 142.207 23.583C141.854 23.583 141.606 23.4065 141.395 23.1594L139.806 21.147H138.5V22.771C138.5 23.23 138.147 23.583 137.688 23.583C137.229 23.583 136.876 23.23 136.876 22.771V16.9458H136.946ZM140.23 19.7348C141.006 19.7348 141.465 19.3112 141.465 18.6757V18.6404C141.465 17.9343 140.971 17.5813 140.194 17.5813H138.57V19.6995H140.23V19.7348Z" fill="white"/>
<path d="M146.302 17.652H144.749C144.325 17.652 144.007 17.2989 144.007 16.9106C144.007 16.4869 144.36 16.1692 144.749 16.1692H149.479C149.903 16.1692 150.221 16.5222 150.221 16.9106C150.221 17.3342 149.868 17.652 149.479 17.652H147.926V22.7711C147.926 23.2301 147.573 23.5831 147.114 23.5831C146.655 23.5831 146.302 23.2301 146.302 22.7711V17.652Z" fill="white"/>
<path d="M52.5685 33.5391C52.3919 33.3978 52.2507 33.186 52.2507 32.9389C52.2507 32.5152 52.6038 32.1975 52.9921 32.1975C53.2039 32.1975 53.3452 32.2681 53.4511 32.3387C54.0159 32.7624 54.6161 33.0095 55.3222 33.0095C55.993 33.0095 56.3813 32.7624 56.3813 32.3034V32.2681C56.3813 31.8444 56.1342 31.6326 54.8986 31.3149C53.4158 30.9265 52.4625 30.5382 52.4625 29.0554V29.0201C52.4625 27.6785 53.5217 26.7959 55.0398 26.7959C55.9224 26.7959 56.6991 27.043 57.3699 27.4314C57.5464 27.5373 57.7229 27.7491 57.7229 28.0669C57.7229 28.4905 57.3699 28.8083 56.9815 28.8083C56.8403 28.8083 56.6991 28.773 56.5579 28.7023C56.0283 28.3846 55.4987 28.2081 55.0045 28.2081C54.369 28.2081 54.0512 28.4905 54.0512 28.8436V28.8789C54.0512 29.3731 54.369 29.5143 55.64 29.8321C57.1227 30.2204 57.97 30.75 57.97 32.0563V32.0916C57.97 33.5391 56.8403 34.3864 55.2516 34.3864C54.369 34.4217 53.4158 34.1039 52.5685 33.5391Z" fill="white"/>
<path d="M59.135 30.6441C59.135 28.5258 60.7237 26.7959 62.9832 26.7959C64.0777 26.7959 64.8191 27.0783 65.4545 27.5373C65.6311 27.6785 65.7723 27.8903 65.7723 28.1728C65.7723 28.6317 65.4192 28.9495 64.9603 28.9495C64.7485 28.9495 64.6072 28.8789 64.466 28.8083C64.0071 28.4552 63.5481 28.2787 62.9479 28.2787C61.7123 28.2787 60.7944 29.3025 60.7944 30.5735V30.6088C60.7944 31.8797 61.677 32.9389 62.9479 32.9389C63.6187 32.9389 64.0777 32.7271 64.5366 32.374C64.6778 32.2681 64.8191 32.1975 65.0309 32.1975C65.4545 32.1975 65.7723 32.5505 65.7723 32.9389C65.7723 33.186 65.6311 33.3978 65.4899 33.5038C64.8191 34.0686 64.0424 34.4217 62.8773 34.4217C60.759 34.4217 59.135 32.7624 59.135 30.6441Z" fill="white"/>
<path d="M67.2198 27.6785C67.2198 27.2195 67.5729 26.8665 68.0319 26.8665C68.4908 26.8665 68.8439 27.2195 68.8439 27.6785V29.832H71.8447V27.6785C71.8447 27.2195 72.1978 26.8665 72.6567 26.8665C73.1157 26.8665 73.4687 27.2195 73.4687 27.6785V33.539C73.4687 33.998 73.1157 34.351 72.6567 34.351C72.1978 34.351 71.8447 33.998 71.8447 33.539V31.3148H68.8439V33.539C68.8439 33.998 68.4908 34.351 68.0319 34.351C67.5729 34.351 67.2198 33.998 67.2198 33.539V27.6785Z" fill="white"/>
<path d="M75.234 33.5036V27.749C75.234 27.2901 75.587 26.937 76.046 26.937H80.1413C80.5297 26.937 80.8827 27.2548 80.8827 27.6784C80.8827 28.0668 80.565 28.3845 80.1413 28.3845H76.858V29.8673H79.6823C80.0707 29.8673 80.4237 30.185 80.4237 30.6087C80.4237 31.0323 80.106 31.3148 79.6823 31.3148H76.858V32.8682H80.1766C80.565 32.8682 80.918 33.1859 80.918 33.6096C80.918 33.9979 80.6003 34.3157 80.1766 34.3157H76.046C75.587 34.3157 75.234 33.9626 75.234 33.5036Z" fill="white"/>
<path d="M82.2596 27.7138C82.2596 27.2548 82.6126 26.9018 83.0716 26.9018H83.2481C83.6012 26.9018 83.8483 27.0783 83.9895 27.3254L85.9312 30.5028L87.9083 27.2901C88.0848 27.0077 88.2967 26.8665 88.6497 26.8665H88.8262C89.2852 26.8665 89.6382 27.2195 89.6382 27.6785V33.539C89.6382 33.998 89.2852 34.351 88.8262 34.351C88.3673 34.351 88.0142 33.998 88.0142 33.539V29.9026L86.602 32.0915C86.4255 32.3387 86.2137 32.5152 85.9312 32.5152C85.6488 32.5152 85.437 32.374 85.2605 32.0915L83.8483 29.9379V33.6096C83.8483 34.0686 83.4952 34.3863 83.0363 34.3863C82.5773 34.3863 82.2596 34.0333 82.2596 33.6096V27.7138Z" fill="white"/>
<path d="M91.4034 33.5036V27.749C91.4034 27.2901 91.7564 26.937 92.2154 26.937H96.3107C96.6991 26.937 97.0521 27.2548 97.0521 27.6784C97.0521 28.0668 96.7344 28.3845 96.3107 28.3845H93.0274V29.8673H95.8518C96.2401 29.8673 96.5931 30.185 96.5931 30.6087C96.5931 31.0323 96.2754 31.3148 95.8518 31.3148H93.0274V32.8682H96.346C96.7344 32.8682 97.0874 33.1859 97.0874 33.6096C97.0874 33.9979 96.7697 34.3157 96.346 34.3157H92.2154C91.7564 34.3157 91.4034 33.9626 91.4034 33.5036Z" fill="white"/>
</svg>
