<svg width="80" height="80" viewBox="0 0 80 80" fill="none" xmlns="http://www.w3.org/2000/svg">
<circle cx="40" cy="40" r="40" fill="#FCE6E3"/>
<g clip-path="url(#clip0)">
<path d="M27.7449 35.9396L14.6418 60.6261L26.5405 59.5269L32.2995 69.998L45.4025 45.3115L27.7449 35.9396Z" fill="#BA2C42"/>
<path d="M29.2457 62.8099C29.6134 62.0202 29.2288 61.0766 28.4597 60.6677L27.7056 60.2662C26.9515 59.8366 26.6645 58.8818 27.0753 58.109C27.4918 57.323 28.471 57.0228 29.257 57.4393L31.388 58.5704C32.0464 58.9193 32.8718 58.6661 33.2113 58.0039L33.2639 57.9026C33.654 57.2779 33.4233 56.4526 32.7743 56.1093L26.4 52.7271C25.6234 52.3144 25.2426 51.3746 25.6046 50.5829C26.0042 49.7407 27.0134 49.4086 27.8257 49.8401L33.7385 52.9784C34.3969 53.3273 35.2223 53.0741 35.5712 52.4157L35.605 52.3294L35.6143 52.3106C35.9914 51.6203 35.7269 50.7536 35.0309 50.3841L31.7144 48.6245C30.9378 48.2118 30.557 47.272 30.9246 46.471C31.3204 45.6381 32.3334 45.2967 33.1457 45.7282L36.8093 47.6734C37.494 48.0374 38.3118 47.7335 38.6664 47.0431C38.672 47.0338 38.672 47.0338 38.6758 47.0244C38.6814 47.015 38.6814 47.015 38.6851 47.0056C39.0584 46.3247 38.8521 45.4768 38.1655 45.1147L34.2131 43.0175C33.4458 42.6104 33.065 41.6706 33.4271 40.879C33.8266 40.0367 34.8358 39.7047 35.6481 40.1362L45.3989 45.3117L32.2959 69.9983L28.6848 63.4346C28.9174 63.277 29.12 63.0819 29.2457 62.8099Z" fill="#F03D5F"/>
<path d="M52.2551 35.9397L65.3581 60.6263L53.4594 59.527L47.7004 69.9982L34.5974 45.3116L52.2551 35.9397Z" fill="#F03D5F"/>
<path d="M50.7544 62.8097C50.3868 62.02 50.7713 61.0764 51.5404 60.6675L52.2945 60.2661C53.0486 59.8365 53.3356 58.8817 52.9248 58.1088C52.5084 57.3228 51.5292 57.0227 50.7432 57.4391L48.6122 58.5703C47.9537 58.9192 47.1284 58.6659 46.7888 58.0037L46.7363 57.9024C46.3461 57.2778 46.5769 56.4524 47.2259 56.1091L53.602 52.725C54.3786 52.3123 54.7594 51.3725 54.3974 50.5809C53.9978 49.7386 52.9886 49.4066 52.1764 49.838L46.2636 52.9764C45.6051 53.3253 44.7798 53.0721 44.4308 52.4136L44.3971 52.3273L44.3877 52.3086C44.0106 51.6183 44.2752 50.7516 44.9711 50.3821L48.2877 48.6225C49.0643 48.2098 49.4451 47.27 49.0774 46.469C48.6816 45.6361 47.6686 45.2947 46.8564 45.7261L43.189 47.6752C42.5043 48.0391 41.6864 47.7352 41.3319 47.0449C41.3263 47.0355 41.3263 47.0355 41.3225 47.0261C41.3169 47.0167 41.3169 47.0167 41.3131 47.0073C40.9398 46.3264 41.1462 45.4785 41.8328 45.1165L45.7852 43.0192C46.5525 42.6122 46.9333 41.6723 46.5712 40.8807C46.1717 40.0385 45.1624 39.7064 44.3502 40.1379L34.5994 45.3134L47.7024 70L51.3134 63.4363C51.0827 63.2768 50.8801 63.0818 50.7544 62.8097Z" fill="#BA2C42"/>
<path d="M39.9998 53.7868C52.0912 53.7868 61.8932 43.9848 61.8932 31.8934C61.8932 19.802 52.0912 10 39.9998 10C27.9084 10 18.1064 19.802 18.1064 31.8934C18.1064 43.9848 27.9084 53.7868 39.9998 53.7868Z" fill="#FFCC5B"/>
<path d="M42.9695 29.3815H29.0955C28.0169 29.3815 27.1315 28.4961 27.1315 27.4175L27.1465 27.2824V27.2524C27.1315 26.1137 28.06 25.1833 29.2006 25.1833H38.8163C40.0901 25.1833 41.2156 24.2397 41.2906 22.9641C41.3506 21.6304 40.287 20.5048 38.9514 20.5048H28.7654C27.6417 20.5048 26.8013 19.5613 26.8163 18.4357C26.8163 18.4207 26.8163 18.4207 26.8163 18.4057C26.8163 18.3907 26.8163 18.3907 26.8163 18.3757C26.8013 17.2521 27.6398 16.3066 28.7654 16.3066H39.4241C40.6828 16.3066 41.8084 15.3631 41.8834 14.1025C41.9434 12.7537 40.8798 11.6432 39.5442 11.6432H31.7386C23.7793 14.9241 18.1704 22.7503 18.1704 31.8933C18.1704 41.0363 23.7793 48.8606 31.7405 52.1378H41.6508C42.9095 52.1378 44.035 51.1942 44.1101 49.9336C44.1701 48.5849 43.1065 47.4762 41.7708 47.4762L30.4968 47.4744C29.1668 47.4744 28.0957 46.362 28.167 45.0151C28.2326 43.7545 29.3657 42.8072 30.6281 42.8072H34.9989C36.2558 42.7715 37.2706 41.7417 37.2706 40.4755C37.2706 39.1867 36.222 38.1362 34.9314 38.1362H28.3058C27.2272 38.1362 26.3417 37.2527 26.3567 36.1722V36.0071C26.2817 34.9435 27.1371 34.0431 28.2007 34.0431H42.8345C44.1082 34.0431 45.2337 33.0995 45.3088 31.8389C45.3688 30.492 44.3033 29.3815 42.9695 29.3815Z" fill="#FDBC4B"/>
<path d="M40 47.5194C31.3822 47.5194 24.3721 40.5074 24.3721 31.8915C24.3721 23.2755 31.3822 16.2654 40 16.2654C48.6178 16.2654 55.628 23.2774 55.628 31.8933C55.628 40.5092 48.6178 47.5194 40 47.5194Z" fill="#FFDB70"/>
<path opacity="0.2" d="M55.628 31.8934C55.628 23.5795 49.0962 16.7794 40.8967 16.3104H39.441C38.4806 16.3104 37.6233 17.0308 37.5652 17.9912C37.5201 19.0192 38.3305 19.8671 39.3491 19.8671L47.9482 19.869C48.963 19.869 49.779 20.7169 49.7246 21.7448C49.674 22.7072 48.8111 23.4294 47.8469 23.4294H44.5134C43.5548 23.4575 42.7801 24.2416 42.7801 25.2077C42.7801 26.1907 43.5811 26.9917 44.5641 26.9917H49.6177C50.4412 26.9917 51.1146 27.667 51.1034 28.4886V28.6124C51.1597 29.4247 50.5087 30.1094 49.6965 30.1094H38.5369C37.5652 30.1094 36.7079 30.8297 36.6497 31.7902C36.6047 32.8182 37.4151 33.6661 38.4337 33.6661H49.0137C49.8372 33.6661 50.5106 34.3414 50.5106 35.163L50.4994 35.2662V35.2887C50.5106 36.1572 49.8015 36.8663 48.933 36.8663H41.5983C40.6266 36.8663 39.7693 37.5866 39.7112 38.5584C39.6662 39.5751 40.4765 40.4342 41.4951 40.4342H49.2631C50.1204 40.4342 50.7601 41.1546 50.7488 42.0118C50.7488 42.0231 50.7488 42.0231 50.7488 42.0344C50.7488 42.0456 50.7488 42.0456 50.7488 42.0569C50.7601 42.9141 50.1204 43.6345 49.2631 43.6345H41.135C40.1745 43.6345 39.3172 44.3548 39.2591 45.3153C39.2141 46.3451 40.0244 47.1911 41.043 47.1911H43.1872C50.2836 45.713 55.628 39.4156 55.628 31.8934Z" fill="white"/>
<path d="M50.9099 28.4324H43.3089L40.9584 21.2028C40.6564 20.2742 39.3414 20.2742 39.0394 21.2028L36.6908 28.4324H29.0897C28.1124 28.4324 27.7053 29.6836 28.4969 30.2576L34.646 34.726L32.2974 41.9556C31.9954 42.8842 33.0591 43.657 33.8507 43.083L39.9998 38.6147L46.1489 43.083C46.9406 43.657 48.0042 42.8842 47.7022 41.9556L45.3536 34.726L51.5027 30.2576C52.2924 29.6836 51.8872 28.4324 50.9099 28.4324Z" fill="#EC9922"/>
</g>
<defs>
<clipPath id="clip0">
<rect width="60" height="60" fill="white" transform="translate(10 10)"/>
</clipPath>
</defs>
</svg>
