<svg width="216" height="541" viewBox="0 0 216 541" fill="none" xmlns="http://www.w3.org/2000/svg">
<path d="M184.377 433.708C226.541 458.016 226.541 497.63 184.377 521.938C142.212 546.247 73.7881 546.247 31.6235 521.938C-10.5412 497.63 -10.5412 458.016 31.6235 433.708C73.7881 409.399 142.212 409.399 184.377 433.708Z" fill="#D9DAD9"/>
<path d="M191.99 468.505C192.44 468.505 193.04 472.857 190.789 474.657C188.389 476.758 181.186 480.209 171.583 479.009C162.129 477.808 156.878 474.807 153.126 471.656C149.375 468.505 143.973 464.004 139.622 462.953C135.57 462.053 131.219 460.252 130.018 459.052C128.668 457.851 128.968 452.3 128.968 452.3L191.99 468.505Z" fill="#33535F"/>
<path d="M132.895 431.162C132.895 431.162 131.694 431.162 131.394 432.512C131.094 434.013 130.794 438.364 130.194 440.915C129.293 444.366 128.693 451.419 129.293 454.27C129.894 457.121 136.346 459.071 140.547 460.572C144.749 462.222 149.701 465.524 154.052 469.125C158.554 472.876 168.007 476.627 174.159 476.627C181.512 476.627 189.764 474.227 191.715 470.775C194.116 466.574 192.165 464.173 181.362 459.071C179.261 458.171 172.058 453.819 169.658 452.319C162.905 448.118 156.303 442.265 153.302 434.763C153.002 433.863 152.552 432.962 151.801 432.512C151.201 432.212 150.451 432.212 149.701 432.362C147.9 432.662 146.099 433.112 144.449 434.013C142.948 434.763 140.847 435.513 140.998 437.464C140.998 438.064 141.148 438.814 141.448 439.414C141.598 439.865 141.748 440.315 141.298 440.465C140.998 440.615 140.547 440.465 140.247 440.165C139.047 439.114 138.297 437.764 137.246 436.714C136.796 436.113 136.196 435.513 135.596 434.913C134.995 434.463 134.245 434.163 133.795 433.713C133.195 433.112 133.345 432.212 133.195 431.312L132.895 431.162Z" fill="#50262F"/>
<path d="M162.443 469.886C156.441 469.886 148.038 464.784 148.038 464.784C145.488 462.983 142.787 461.633 140.536 460.733C136.334 459.082 129.882 457.131 129.282 454.43C129.132 453.68 129.132 452.63 129.132 451.429C129.132 448.128 129.582 443.627 130.332 441.076C132.133 441.526 134.834 442.126 137.685 442.426C140.386 445.277 143.987 449.329 148.639 452.93C154.941 457.882 164.994 463.884 168.145 464.784C168.145 465.084 168.145 465.384 168.145 465.534C168.145 466.585 167.695 467.935 166.045 468.985C165.144 469.586 163.794 469.886 162.443 469.886ZM169.346 461.633C168.746 461.333 167.845 460.883 166.795 460.433C160.793 458.032 148.789 449.629 142.036 442.426C146.688 442.426 151.49 441.376 154.941 438.525C158.392 444.227 163.944 448.728 169.346 452.33C171.296 453.53 175.948 456.381 178.949 458.032C176.698 458.332 171.897 460.282 169.346 461.783V461.633Z" fill="#FCE6E3"/>
<path d="M192.443 467.932C192.443 465.231 189.442 462.83 181.189 459.079C189.442 462.83 192.443 465.231 192.443 467.932Z" fill="#FCE6E3"/>
<path d="M153.879 469.126C151.928 467.625 149.977 465.975 147.876 464.624C147.876 464.624 160.631 472.427 165.883 468.826C169.184 466.575 167.683 463.724 167.533 462.823C167.383 461.923 175.636 458.172 178.937 457.722C179.838 458.172 180.588 458.622 181.038 458.772C191.992 463.874 193.792 466.275 191.392 470.476C189.441 473.927 183.439 476.478 173.986 476.478C167.833 476.478 158.23 472.427 153.728 468.826L153.879 469.126Z" fill="#50262F"/>
<path d="M174.136 476.772C167.983 476.772 158.38 472.72 153.879 469.119C151.928 467.619 149.977 465.968 147.876 464.618C147.876 464.618 156.429 469.719 162.281 469.719C163.632 469.719 164.832 469.419 165.883 468.819C167.533 467.619 167.983 466.418 167.983 465.368C167.983 465.068 167.983 464.768 167.983 464.618C168.284 464.618 168.434 464.768 168.584 464.768H168.734C170.384 464.468 172.635 463.567 169.334 461.767C171.885 460.266 176.686 458.315 178.937 458.015C179.838 458.466 180.588 458.916 181.038 459.066C189.291 462.817 192.292 465.218 192.292 467.919C192.292 468.819 191.992 469.719 191.392 470.77C189.441 474.221 183.439 476.772 173.986 476.772H174.136Z" fill="#ECAFBC"/>
<path d="M166.771 460.44C173.523 463.141 170.672 464.342 168.721 464.642C166.771 464.942 155.367 458.189 148.464 452.788C141.262 447.086 136.61 440.783 133.909 438.683C132.859 437.932 131.809 436.882 130.908 435.982C131.058 434.481 131.208 433.131 131.358 432.38C131.659 431.18 132.859 431.03 132.859 431.03C132.859 431.93 132.709 432.681 133.459 433.431C133.909 433.881 134.81 434.181 135.26 434.631C135.86 435.081 136.46 435.682 136.91 436.432C137.811 437.632 138.711 438.983 139.911 439.883C145.763 447.386 160.018 457.589 166.771 460.29V460.44Z" fill="#50262F"/>
<path d="M168.303 463.742L167.853 463.592C167.553 463.292 167.553 462.992 167.703 462.692C169.653 460.291 175.055 457.29 180.157 457.74C180.457 457.74 180.757 458.04 180.757 458.49C180.757 458.79 180.457 459.09 180.007 459.09C175.355 458.64 170.253 461.641 168.753 463.442C168.603 463.592 168.453 463.742 168.303 463.742Z" fill="#F7F7F6"/>
<path d="M162.293 459.967L161.843 459.817C161.543 459.517 161.543 459.217 161.693 458.917C163.643 456.516 169.045 453.515 174.147 453.965C174.447 453.965 174.747 454.266 174.747 454.716C174.747 455.016 174.447 455.316 173.997 455.316C169.345 454.866 164.244 457.867 162.743 459.667C162.593 459.817 162.443 459.967 162.293 459.967Z" fill="#F7F7F6"/>
<path d="M156.417 456.51L155.967 456.36C155.667 456.06 155.667 455.76 155.817 455.46C157.768 453.059 163.17 450.058 168.272 450.508C168.572 450.508 168.872 450.808 168.872 451.258C168.872 451.558 168.572 451.859 168.121 451.859C163.47 451.408 158.368 454.409 156.868 456.21C156.718 456.36 156.567 456.51 156.417 456.51Z" fill="#F7F7F6"/>
<path d="M150.888 452.634L150.438 452.484C150.137 452.184 150.137 451.884 150.288 451.584C152.238 449.183 157.79 446.182 162.742 446.632C163.042 446.632 163.342 446.932 163.342 447.383C163.342 447.683 163.042 447.983 162.592 447.983C157.94 447.533 152.838 450.534 151.338 452.334C151.188 452.484 151.038 452.634 150.888 452.634Z" fill="#F7F7F6"/>
<path d="M145.646 448.719L145.195 448.569C144.895 448.269 144.895 447.969 145.045 447.669C147.746 444.368 153.598 442.117 158.55 442.717C158.85 442.717 159.15 443.017 159.15 443.468C159.15 443.768 158.85 444.068 158.4 444.068C153.898 443.618 148.346 445.568 146.096 448.569C145.946 448.719 145.796 448.869 145.495 448.869L145.646 448.719Z" fill="#F7F7F6"/>
<path d="M89.0743 485.328C89.3745 491.781 88.7742 496.132 86.8236 500.183C84.8729 504.235 80.6714 505.735 76.3199 505.135C71.8184 504.535 65.9663 502.134 64.1657 496.582C62.3651 491.18 62.215 487.279 62.6652 481.277L89.2244 485.328H89.0743Z" fill="#33535F"/>
<path d="M67.0056 440.485C65.205 440.785 65.5051 449.488 65.3551 458.341C65.205 467.794 62.8042 471.845 62.5041 479.498C62.204 488.351 63.1043 492.102 66.7055 497.054C70.3068 502.006 81.5607 506.057 86.0623 497.954C89.8136 491.352 89.2134 484.6 88.0129 475.897C86.6625 466.894 85.7622 460.742 85.462 453.839C85.1619 447.237 85.0119 440.935 83.3613 440.334C83.3613 441.235 83.3613 442.585 83.3613 443.486C83.3613 444.236 83.5114 447.687 82.461 447.837C82.311 447.087 82.1609 446.187 82.1609 445.436C82.1609 444.686 82.0108 443.936 81.4106 443.336C80.8104 442.885 80.0602 442.735 79.3099 442.585C77.5093 442.435 75.7087 442.285 73.908 442.285C73.0077 442.285 72.1074 442.285 71.2071 442.435C70.4568 442.585 69.5565 442.735 68.9563 443.035C68.5062 443.185 68.2061 443.636 68.056 444.086C67.906 444.386 68.056 444.686 68.056 445.136C68.056 445.736 68.056 446.337 68.056 446.937C68.056 447.237 67.906 447.537 67.6058 447.537C67.4558 447.537 67.3057 447.237 67.3057 447.087C67.1557 446.036 67.3057 445.286 67.1557 444.086C67.1557 443.486 67.1557 442.735 67.1557 442.135C67.1557 441.535 67.0056 441.085 67.0056 440.485Z" fill="#50262F"/>
<path d="M78.0859 502.591C81.237 502.591 84.088 501.391 86.0387 498.09C84.2381 501.241 81.237 502.591 78.0859 502.591ZM86.3388 497.489C87.9894 494.038 88.5896 490.587 88.5896 486.686C88.5896 483.835 88.2895 480.683 87.6893 477.382C87.6893 477.382 87.6893 477.382 87.6893 477.532C87.6893 478.583 87.6893 487.286 85.5885 488.336C85.2884 488.486 85.1384 488.486 84.8383 488.486C83.6379 488.486 82.7376 486.986 82.2874 485.635C83.1877 485.485 84.2381 484.135 84.5382 481.734C84.9883 477.833 84.088 468.829 84.3881 461.477C84.8383 461.327 85.1384 461.027 85.5885 460.727C86.0387 465.378 86.789 470.33 87.6893 476.482C88.2895 480.083 88.5896 483.534 88.5896 486.536C88.5896 490.437 87.9894 493.888 86.3388 497.339V497.489ZM65.1815 488.636C65.0314 488.636 64.7313 488.636 64.4312 488.486C62.4805 487.436 62.3305 482.034 62.3305 479.183C62.3305 478.433 62.3305 477.833 62.3305 477.532C62.1804 478.283 62.1804 479.183 62.1804 480.083C62.1804 480.984 62.1804 481.884 62.1804 482.784C62.1804 481.884 62.1804 480.984 62.1804 480.083C62.3305 473.181 64.2811 469.28 64.8814 461.927C65.0314 461.927 65.1815 462.077 65.1815 462.077C65.4816 469.28 64.4312 477.983 65.0314 481.734C65.3315 484.135 66.5319 485.485 67.4322 485.635C66.9821 487.136 66.3819 488.786 65.3315 488.786L65.1815 488.636ZM81.087 483.384C78.236 482.484 75.6851 482.334 73.7344 482.334C71.1835 482.334 69.3829 482.784 68.4826 483.084C68.1825 480.233 68.0325 477.983 67.8824 472.581C67.8824 470.33 67.8824 467.329 67.7323 463.878C68.3326 463.578 68.7827 463.428 69.3829 463.277C71.0335 463.728 72.9842 463.878 74.9348 463.878C76.7355 463.878 78.6862 463.728 80.4868 463.127C81.087 463.277 81.5371 463.428 81.8372 463.578C81.6872 467.029 81.6872 470.18 81.6872 472.431C81.6872 478.133 81.3871 480.383 81.087 483.384Z" fill="#FCE6E3"/>
<path d="M62.6631 476.925C62.6631 478.125 62.363 486.678 64.7638 487.878C67.3147 489.229 68.065 482.627 68.065 482.627C68.065 482.627 73.6169 480.226 82.3199 483.077C82.0198 484.427 83.8204 488.779 85.9212 487.578C88.1719 486.378 88.0219 476.775 88.0219 476.625C89.2223 484.877 89.5224 491.48 85.9212 497.932C81.4196 506.035 70.0156 501.983 66.5644 497.032C62.9632 492.08 62.2129 488.179 62.363 479.476C62.363 478.575 62.513 477.825 62.513 476.925H62.6631Z" fill="#50262F"/>
<path d="M78.1378 502.602C73.6362 502.602 68.8345 500.051 66.7338 497.05C63.5827 492.698 62.5323 489.097 62.5323 482.195C62.5323 481.294 62.5323 480.394 62.5323 479.494C62.5323 478.593 62.6824 477.843 62.6824 476.943C62.6824 477.243 62.6824 477.843 62.6824 478.593C62.6824 481.444 62.9825 486.996 64.7831 487.897C65.0832 488.047 65.2333 488.047 65.5334 488.047C66.5838 488.047 67.334 486.396 67.6341 484.896H67.7842C68.3844 484.896 68.8345 484.295 68.8345 482.945C68.8345 482.645 68.8345 482.495 68.8345 482.195C69.7348 481.895 71.5355 481.444 74.0864 481.444C76.1871 481.444 78.5879 481.744 81.4389 482.495C81.4389 482.645 81.4389 482.645 81.4389 482.795C81.2889 484.145 81.739 484.746 82.4893 484.746C82.6393 484.746 82.6393 484.746 82.7894 484.746C83.2395 486.096 84.2899 487.597 85.3403 487.597C85.6404 487.597 85.7904 487.597 86.0905 487.446C88.1913 486.396 88.1913 477.843 88.1913 476.643V476.493C88.6414 479.794 89.0916 482.945 89.0916 485.796C89.0916 489.997 88.3413 493.899 86.2406 497.65C84.44 500.951 81.4389 502.152 78.2878 502.152L78.1378 502.602Z" fill="#ECAFBC"/>
<path d="M68.7953 483.099C69.0954 486.25 65.7942 485.5 65.3441 480.999C64.7439 476.647 66.0944 465.843 65.3441 458.191C65.4941 449.488 65.194 440.785 66.9947 440.334V440.635L67.1447 444.986C67.1447 445.586 67.1447 446.187 67.2948 446.937C67.895 453.389 68.1951 465.843 68.3451 471.695C68.3451 477.547 68.6452 479.798 68.9453 482.949L68.7953 483.099Z" fill="#50262F"/>
<path d="M81.3953 483.081C81.6954 479.93 81.9955 477.829 81.9955 471.827C81.9955 465.975 82.2956 453.671 82.8958 447.219C83.1959 446.168 83.1959 444.068 83.1959 443.617C83.1959 442.717 83.1959 441.667 83.1959 440.616V440.466C84.3963 440.916 84.8465 444.368 84.9965 448.719C84.9965 451.27 84.9965 454.421 84.6964 458.172C83.9461 465.825 85.2966 476.629 84.6964 481.13C84.0962 485.482 80.9451 486.232 81.0952 483.081H81.3953Z" fill="#50262F"/>
<path d="M82.6083 483.236H82.3082C82.3082 483.236 75.4058 480.535 68.3533 483.236C68.0532 483.386 67.6031 483.236 67.453 482.786C67.3029 482.486 67.453 482.036 67.9032 481.886C75.4058 479.035 82.6083 481.886 82.9084 481.886C83.2085 482.036 83.3585 482.486 83.2085 482.786C83.0584 483.086 82.9084 483.236 82.6083 483.236Z" fill="#F7F7F6"/>
<path d="M83.5093 476.319H83.2092C83.0592 476.319 75.4065 473.618 67.6038 476.319C67.3037 476.469 66.8535 476.319 66.7035 475.868C66.5534 475.568 66.7035 475.118 67.1536 474.968C75.5566 472.117 83.3593 474.968 83.6594 474.968C83.9595 475.118 84.2596 475.418 84.1095 475.868C83.9595 476.168 83.8094 476.319 83.5093 476.319Z" fill="#F7F7F6"/>
<path d="M67.3063 469.735C67.0062 469.735 66.8561 469.585 66.7061 469.285C66.556 468.985 66.7061 468.535 67.0062 468.384C74.8089 464.783 83.2118 468.084 83.5119 468.234C83.812 468.384 83.9621 468.835 83.812 469.135C83.662 469.435 83.2118 469.585 82.9117 469.435C82.7617 469.435 74.6588 466.134 67.4563 469.585H67.1562L67.3063 469.735Z" fill="#F7F7F6"/>
<path d="M67.1787 463.581C66.8786 463.581 66.7286 463.431 66.5785 463.131C66.4285 462.831 66.5785 462.381 66.8786 462.231C75.4316 458.179 83.3844 461.931 83.6845 462.081C83.9846 462.231 84.1346 462.681 83.9846 462.981C83.8345 463.281 83.3844 463.431 83.0842 463.281C83.0842 463.281 75.2815 459.68 67.3288 463.431H67.0287L67.1787 463.581Z" fill="#F7F7F6"/>
<path d="M67.02 456.676C66.7199 456.676 66.5699 456.526 66.4198 456.376C66.2698 456.075 66.4198 455.625 66.7199 455.475C74.6727 451.574 83.3757 455.325 83.6758 455.475C83.9759 455.625 84.126 456.075 83.9759 456.376C83.8259 456.676 83.3757 456.826 83.0756 456.676C82.9256 456.676 74.6727 452.924 67.1701 456.676H66.87H67.02Z" fill="#E5E6E5"/>
<path d="M77.9733 172.935C73.9219 181.338 69.2703 197.693 68.52 208.497C65.0688 253.213 66.8694 317.285 66.8694 317.285C66.4193 321.937 63.5683 332.59 61.4676 353.147C59.0667 377.456 62.0678 459.684 62.0678 459.684C62.0678 459.684 76.6228 468.387 87.8767 458.484C87.8767 458.484 101.081 345.345 104.082 321.186C106.783 300.179 114.136 254.563 114.136 254.563L122.839 321.937C122.839 321.937 122.089 340.843 122.539 353.147C123.139 367.402 127.19 440.028 127.19 440.028C127.19 440.028 147.147 446.78 156 437.177C156 437.177 158.101 336.492 158.401 319.236C159.001 285.624 158.401 224.253 152.999 188.99L77.8232 172.635L77.9733 172.935Z" fill="#BA2C42"/>
<path d="M75.2739 463.262C73.3232 463.262 71.3726 462.962 69.722 462.662C68.9717 462.512 68.2215 462.212 67.4712 462.062C64.3201 461.011 62.2194 459.811 62.2194 459.811C62.2194 459.811 60.7189 417.796 60.7189 384.935C60.7189 374.281 60.8689 364.678 61.3191 357.625C67.9214 349.823 75.1239 340.969 77.0746 337.818C80.9759 331.366 80.2256 327.915 75.2739 319.362C74.2236 317.411 71.9728 314.11 69.2718 310.209C69.5719 309.609 69.5719 309.158 69.5719 309.158C69.5719 309.158 68.5216 307.658 66.721 305.257C66.5709 298.055 66.4209 288.301 66.4209 277.197C66.4209 256.19 66.871 230.681 68.5216 209.374C75.7241 213.725 93.8804 219.127 113.687 219.877L112.937 226.18L114.287 227.68L146.099 215.826C148.049 215.226 149.85 214.476 151.65 213.725L155.852 212.225C158.103 238.784 158.853 271.345 158.853 297.454C158.853 305.707 158.853 313.21 158.703 319.662C158.703 323.713 158.403 332.717 158.253 343.82C157.803 363.327 157.352 389.886 156.902 409.693C156.602 425.899 156.302 437.603 156.302 437.603C152.551 441.654 146.999 442.705 141.747 442.705C134.244 442.705 127.492 440.454 127.492 440.454C127.492 440.454 123.441 367.829 122.84 353.574C122.69 350.423 122.69 346.822 122.69 343.22C122.69 332.867 123.141 322.363 123.141 322.363L114.438 254.99L122.09 314.26L119.389 256.19L122.54 236.833C137.696 234.583 143.848 223.329 143.848 223.329C135.595 230.981 117.589 233.532 117.589 233.532L114.438 254.99C114.438 254.99 106.935 300.605 104.384 321.613C101.383 345.771 88.1784 458.91 88.1784 458.91C86.5278 460.411 84.8773 461.311 83.0766 462.062C82.3264 462.362 81.7262 462.662 80.9759 462.812C79.0252 463.412 77.2246 463.562 75.424 463.562L75.2739 463.262Z" fill="#BA2C42"/>
<path d="M121.944 313.965L114.291 254.695L117.442 233.237C117.442 233.237 135.598 230.836 143.701 223.034C143.701 223.034 137.549 234.288 122.394 236.538L119.243 255.895L121.944 313.965Z" fill="#50262F"/>
<path d="M137.532 84.246C148.336 85.2964 152.087 88.1474 156.289 96.5503C160.49 105.103 171.444 143.367 171.444 143.367L143.384 154.02L137.532 84.0959V84.246Z" fill="#00B3A9"/>
<path d="M157.344 132.721C161.546 123.868 160.195 114.265 155.244 106.162C148.791 95.8087 141.589 88.0059 137.688 84.2546C148.491 85.305 152.243 88.156 156.444 96.5589C158.995 101.661 163.797 117.266 167.398 129.12L157.344 132.721Z" fill="#F03D5F"/>
<path d="M151.954 140.509C151.203 149.362 150.903 166.618 150.903 166.618C154.054 189.126 156.605 211.183 156.605 211.183C122.993 229.19 72.1258 214.635 65.8236 207.132C68.9747 185.074 76.0272 171.27 80.5287 158.965L72.1258 121.452C72.1258 121.452 86.6808 109.448 85.3304 84.8395L105.287 82.7388L124.344 83.339L137.849 84.2393C141.9 87.9906 149.103 95.7933 155.405 106.147C162.007 116.651 162.157 129.855 152.104 140.509H151.954Z" fill="#F03D5F"/>
<path d="M97.7579 83.489L105.11 82.7388L97.7579 83.489Z" fill="#DDE0DF"/>
<path d="M135.884 111.999C128.832 110.648 115.927 103.746 109.925 98.9444C103.923 94.1427 97.1709 86.0399 97.6211 83.489L104.974 82.7388L124.03 83.339L129.732 83.7891C131.383 86.0399 135.434 92.3421 137.235 98.4942C139.486 106.147 135.884 111.999 135.884 111.999Z" fill="#BA2C42"/>
<path d="M96.4042 132.848V128.646L118.762 127.746L119.212 131.947L96.4042 132.848Z" fill="white"/>
<path d="M111.559 128.06L111.109 121.608H96.4042L97.0044 128.661L111.559 128.06Z" fill="#DADBD8"/>
<path d="M117.876 127.746C117.576 120.393 116.676 116.792 116.076 116.342C115.476 115.892 114.575 116.042 114.425 116.342C113.825 117.092 113.525 120.843 113.525 127.896L117.876 127.746Z" fill="#33535F"/>
<path d="M116.088 127.165C116.238 130.016 116.238 135.268 115.338 135.418C114.288 135.568 114.438 130.166 114.438 127.165H116.088Z" fill="#33535F"/>
<path d="M101.093 70.8917C101.093 67.5906 96.2913 60.5381 92.0898 52.5854C87.7383 44.7826 83.0867 32.0282 92.0898 20.1741C101.093 8.31999 121.35 1.26754 133.354 6.81947C145.358 12.3714 148.659 26.1762 148.659 26.1762L101.093 70.8917Z" fill="#222124"/>
<path d="M98.3842 58.4154C103.336 63.6672 106.187 68.919 100.935 73.7207C95.6833 78.6724 87.5805 78.3723 82.6288 73.1205C77.677 67.8687 77.9771 59.7659 83.229 54.8141C88.4808 49.8624 93.4325 53.1636 98.3842 58.4154Z" fill="#222124"/>
<path d="M82.4697 43.7157C82.3197 43.7157 81.7194 43.5657 81.5694 43.4156L81.7194 42.9655C82.7698 41.9151 84.2703 42.0652 85.4708 42.3653C85.7709 42.5153 86.221 42.5153 86.5211 42.6654L87.1213 42.9655L87.2714 43.1155L87.4214 43.2656C86.5211 43.7157 85.4708 43.8658 84.4204 44.0158C83.6701 44.0158 83.0699 44.0158 82.3197 44.0158L82.4697 43.7157ZM88.0216 42.8154V42.6654C87.7215 41.9151 86.8212 41.465 86.071 41.3149C85.1706 41.0148 84.2703 40.8647 83.22 40.8647C82.0196 40.8647 79.9188 41.615 79.9188 43.1155C80.0689 44.9162 82.9199 45.0662 84.1203 44.9162C85.1706 44.9162 86.221 44.7661 87.2714 44.466C87.1213 46.5667 87.2714 48.6675 86.3711 50.4681C85.9209 51.3684 85.4708 52.1187 84.7205 52.8689C83.6701 53.7692 82.4697 53.9193 81.1192 53.6192C80.369 53.4691 80.6691 54.5195 81.1192 54.6695C83.5201 55.4198 85.9209 54.2194 87.1213 51.9686C88.6218 49.4177 88.0216 46.4167 88.6218 43.5657C88.7719 43.1155 88.1717 42.8154 87.7215 42.8154H88.0216Z" fill="#F03D5F"/>
<path d="M140.387 15.6552C144.889 17.906 151.191 22.8577 150.141 45.6656C149.39 63.5218 142.788 71.7747 139.787 73.2752C136.786 74.7757 133.035 75.2259 127.033 74.6257V84.8292C127.033 84.8292 138.587 98.9341 134.385 108.237C134.385 108.237 122.231 103.886 115.629 99.0841C102.724 89.7809 101.224 84.6791 101.224 84.6791L100.924 60.2207C100.924 60.2207 96.8722 63.0716 90.7201 58.27C85.6183 54.3686 83.5176 47.1661 87.1188 43.1147C88.9195 41.014 91.9205 40.1137 94.6214 40.5638C97.6225 41.164 100.173 43.4148 101.524 46.1158C101.824 46.716 102.274 47.1661 102.874 47.3162C103.324 47.3162 103.775 47.1661 104.075 46.716C104.375 46.4159 104.525 45.9657 104.675 45.5155C105.875 41.7642 105.425 37.7128 106.175 33.9615C106.926 30.9605 108.276 28.1095 110.077 25.7087C114.278 20.0067 120.881 16.4054 127.933 15.3551C132.134 14.6048 136.336 14.7549 140.537 15.5051L140.387 15.6552Z" fill="#F8A58D"/>
<path d="M151.473 42.5165C151.173 43.8669 150.273 46.5679 147.422 47.7683C146.672 48.0684 145.621 48.3685 144.421 48.3685C141.27 48.3685 139.469 47.3181 138.569 45.9677L138.419 45.8176L138.269 45.6676V45.5175L138.119 45.2174L137.969 44.9173V44.7672V44.6172V44.4671V44.3171C137.819 43.8669 137.669 43.4168 137.669 43.1167C137.368 41.316 137.218 39.2153 137.969 38.165C138.719 37.1146 141.72 36.0642 144.571 35.7641C145.171 35.6141 145.771 35.6141 146.372 35.6141H146.522H146.822C146.972 35.6141 147.272 35.6141 147.422 35.6141H147.722H148.022H148.472C148.772 35.6141 149.072 35.7641 149.373 35.7641H149.523H149.673H149.823L150.123 35.9142L150.573 36.0642H150.723C151.173 36.2143 151.473 36.3643 151.623 36.6644C152.524 37.4147 151.923 40.7158 151.323 42.3664L151.473 42.5165ZM128.065 43.2667C127.765 44.167 127.315 45.5175 126.114 46.5679C124.914 47.6182 123.113 48.5185 120.112 48.5185C117.261 48.5185 115.611 47.4682 114.56 46.1177L114.41 45.8176L114.26 45.5175L114.11 45.3675L113.96 45.2174L113.81 45.0674V44.9173L113.66 44.6172C113.51 44.3171 113.51 44.167 113.36 43.8669L113.21 43.4168C113.21 43.1167 113.06 42.9666 113.06 42.8166V42.6665V42.5165C112.76 40.8659 112.31 37.5647 113.36 36.8145C114.26 36.0642 116.811 35.314 120.713 35.6141H121.163C121.763 35.6141 122.363 35.7641 122.963 35.9142C123.264 35.9142 123.414 36.0642 123.714 36.0642C124.314 36.2143 124.914 36.3643 125.514 36.5144L126.114 36.6644C126.265 36.8145 126.565 36.8145 126.715 36.9645H126.865L127.015 37.1146C127.615 37.4147 127.915 37.7148 128.215 38.0149C128.965 39.0653 128.665 41.166 128.065 42.9666V43.2667ZM154.174 34.4137C153.724 34.4137 153.424 34.2636 152.974 34.2636C149.072 33.9635 143.821 33.8134 140.67 34.7138C136.768 35.7641 135.268 36.9645 133.167 36.9645C130.916 36.9645 129.416 35.7641 125.364 34.7138C122.063 33.8134 116.511 33.9635 112.31 34.4137C111.86 34.4137 111.409 34.5637 110.959 34.5637L98.0547 38.9152C97.4545 39.6655 96.8543 40.5658 96.4042 41.4661C96.5542 41.6162 97.3045 41.9163 97.6046 42.0663L110.059 38.0149C110.209 38.315 110.509 38.4651 110.509 38.6151C110.659 38.7652 110.809 39.0653 110.959 39.5154C111.409 41.0159 111.559 44.017 112.31 45.8176C112.61 46.4178 113.06 47.3181 113.96 48.0684C114.26 48.3685 114.56 48.5185 114.861 48.6686L115.311 48.9687C115.761 49.2688 116.211 49.4189 116.811 49.5689H117.111L117.562 49.719L118.012 49.869C118.462 50.0191 118.912 50.0191 119.362 50.0191C119.512 50.0191 119.662 50.0191 119.962 50.0191C120.112 50.0191 120.413 50.0191 120.713 50.0191C126.114 50.0191 128.365 47.7683 129.866 45.3675C131.366 42.9666 131.066 39.6655 133.617 39.6655H133.917H134.067C135.868 40.1156 135.568 43.1167 136.618 45.3675C137.068 46.2678 137.518 47.018 138.269 47.7683L138.719 48.0684L138.869 48.2184L139.169 48.3685L139.319 48.5185L139.619 48.6686L139.769 48.8187H139.919C140.519 49.1188 141.27 49.4189 142.02 49.5689H142.17C142.92 49.719 143.821 49.869 144.721 49.869C149.823 49.869 151.623 47.1681 152.524 45.5175C153.424 43.8669 153.874 40.8659 154.324 39.2153C154.474 38.9152 154.624 38.6151 154.774 38.4651C155.225 38.0149 155.825 37.1146 155.975 36.2143C156.125 35.1639 155.375 34.2636 154.624 34.2636L154.174 34.4137Z" fill="#33535F"/>
<path d="M123.873 40.7111C124.023 42.0616 122.973 43.4121 121.622 43.5621C120.272 43.7122 118.922 42.8118 118.771 41.3113C118.621 39.9609 119.672 38.6104 121.022 38.4603C122.373 38.3103 123.723 39.2106 123.873 40.7111Z" fill="#222124"/>
<path d="M123.568 57.8449L132.571 60.0957C131.971 62.6465 129.57 64.2971 127.019 63.5469C124.469 62.9466 122.968 60.3958 123.568 57.6948V57.8449Z" fill="#F6967E"/>
<path d="M146.553 32.6391L140.851 31.2887C141.151 29.6381 142.651 28.7378 144.302 29.0379C145.803 29.4881 146.853 30.9886 146.553 32.6391Z" fill="#222124"/>
<path d="M120.588 30.973L115.337 33.5238C114.586 32.0233 115.186 30.3727 116.687 29.6225C118.188 28.8722 119.988 29.6225 120.738 30.973H120.588Z" fill="#222124"/>
<path d="M144.91 40.5793C145.06 41.9298 144.01 43.2802 142.659 43.4303C141.309 43.5803 139.958 42.68 139.808 41.1795C139.658 39.829 140.709 38.4786 142.059 38.3285C143.41 38.1784 144.76 39.0788 144.91 40.5793Z" fill="#222124"/>
<path d="M132.27 39.96L133.32 54.2149L140.822 51.3639L132.27 39.96Z" fill="#F6967E"/>
<path d="M127.025 74.7866C120.723 73.8863 107.368 70.4351 105.118 65.4834C105.118 65.4834 106.168 69.5348 110.219 72.5358C114.271 75.5369 127.025 78.2378 127.025 78.2378V74.6366V74.7866Z" fill="#F6967E"/>
<path d="M148.658 26.7687C148.658 26.7687 145.357 21.5169 130.502 22.8673C123.299 23.4676 113.696 26.4686 107.244 30.6701C102.592 33.6711 98.6907 37.2723 96.4399 41.4738C95.8397 41.1737 95.2395 41.0236 94.6393 40.8736C91.9384 40.4234 88.9373 41.3237 87.1367 43.4245V43.5745C84.4358 38.6228 82.335 33.521 83.5355 26.1685C85.186 15.8149 95.3896 8.61239 106.944 3.66067C120.448 -2.04131 135.303 -0.690838 141.306 5.01114C147.308 10.5631 148.808 26.3185 148.958 26.7687H148.658Z" fill="#F03D5F"/>
<path d="M182.116 124.002L121.795 145.309L112.942 226.037L114.292 227.538L171.612 206.08L183.466 125.502L182.116 124.002Z" fill="#181B21"/>
<path d="M123.145 146.676L114.292 227.554L112.942 226.053L121.795 145.325L123.145 146.676Z" fill="#181B21"/>
<path d="M183.465 125.518L123.144 146.675L114.291 227.553L171.611 206.096L183.465 125.518Z" fill="#17282F"/>
<path d="M164.834 137.057C163.483 137.057 160.932 137.808 157.931 139.308L147.128 142.609C142.476 144.86 138.125 146.361 137.824 147.711L137.374 150.112L165.434 140.058C165.434 140.058 165.584 139.008 165.884 137.658C166.034 137.207 165.584 137.057 164.984 137.057H164.834Z" fill="#3D5860"/>
<path d="M168.896 129.276C169.046 128.376 167.695 128.676 165.745 129.126L162.293 130.326C162.293 130.326 163.644 126.875 155.541 129.126C146.538 131.527 146.388 136.028 146.388 136.028C146.388 136.028 145.338 136.478 142.036 137.679C139.035 138.579 138.735 139.179 138.435 140.08L137.985 141.58L168.596 130.776C168.596 130.776 168.746 130.176 168.896 129.426V129.276Z" fill="#33535F"/>
<path d="M165.599 133.905C162.748 135.255 161.547 135.856 161.097 137.806C160.647 140.207 160.497 141.108 160.497 141.108L144.591 147.41C144.591 147.41 145.492 143.958 145.642 142.758C145.792 141.558 143.691 141.558 140.99 142.908L141.59 140.057L166.499 130.754L165.599 133.755V133.905Z" fill="#33535F"/>
<path d="M166.045 140.184C166.045 140.184 166.195 139.133 166.495 137.783C166.795 136.432 163.194 137.183 158.542 139.283L147.738 142.585C143.087 144.835 138.735 146.336 138.435 147.686L137.985 150.087L166.045 140.034V140.184Z" fill="#33535F"/>
<path d="M137.09 182.072C129.588 183.273 124.186 182.372 124.186 182.372C127.037 180.872 128.387 180.272 129.738 179.071C132.289 176.671 131.688 173.97 130.938 173.069C130.338 172.319 128.537 173.97 124.636 174.87C119.684 176.07 116.533 175.17 111.581 177.721C109.781 178.621 108.43 178.621 105.129 178.771C101.378 178.921 96.4261 177.421 86.8227 174.42C77.2194 171.419 67.1659 166.617 67.1659 166.617L81.721 131.505C79.4702 136.156 96.7262 94.7421 85.3222 84.8386C71.8175 84.8386 64.615 88.1398 58.4629 103.745C54.2614 114.549 36.8554 165.267 36.2552 172.919C35.5049 180.572 39.1062 183.723 46.7588 187.024C54.4115 190.325 72.1176 194.677 88.3232 199.028C97.0263 201.429 105.429 203.23 112.932 203.83C132.138 205.33 140.841 203.68 145.043 196.627C151.645 185.223 147.294 180.572 137.09 182.072Z" fill="#F8A58D"/>
<path d="M88.7764 84.5194C79.7732 84.0693 66.5687 83.7692 59.0661 101.175C51.5635 118.431 43.7607 143.94 43.7607 143.94C43.7607 143.94 56.3651 154.294 73.6211 154.294L86.9757 119.332C86.9757 119.332 93.578 94.873 88.9264 84.5194H88.7764Z" fill="#F03D5F"/>
<path d="M73.4888 154.179C73.0386 154.179 72.7385 154.179 72.2884 154.179C58.3335 153.729 47.5298 146.676 44.5287 144.426C43.9285 143.975 43.6284 143.825 43.6284 143.825C43.6284 143.825 51.4311 118.316 58.9337 101.06C65.386 86.3554 75.5895 84.2546 84.1425 84.2546C85.7931 84.2546 87.2936 84.4047 88.6441 84.4047C89.8445 87.1056 90.2946 90.7069 90.2946 94.7583C90.2946 105.862 86.6934 119.217 86.6934 119.217L77.09 144.275L73.3387 154.179H73.4888Z" fill="#F03D5F"/>
</svg>
