<svg width="24" height="24" viewBox="0 0 24 24" fill="none" xmlns="http://www.w3.org/2000/svg">
<path d="M12.279 22.5664C13.7194 20.9557 20.25 13.4288 20.25 9.375C20.25 7.18696 19.3808 5.08854 17.8336 3.54137C16.2865 1.99419 14.188 1.125 12 1.125C9.81196 1.125 7.71354 1.99419 6.16637 3.54137C4.61919 5.08854 3.75 7.18696 3.75 9.375C3.75 13.4288 10.2806 20.9557 11.721 22.5664C11.7562 22.6055 11.7992 22.6369 11.8473 22.6583C11.8953 22.6797 11.9474 22.6908 12 22.6908C12.0526 22.6908 12.1047 22.6797 12.1527 22.6583C12.2008 22.6369 12.2438 22.6055 12.279 22.5664ZM6 9.375C6 8.18831 6.35189 7.02827 7.01118 6.04158C7.67047 5.05488 8.60754 4.28585 9.7039 3.83172C10.8003 3.3776 12.0067 3.25878 13.1705 3.49029C14.3344 3.7218 15.4035 4.29324 16.2426 5.13236C17.0818 5.97147 17.6532 7.04057 17.8847 8.20446C18.1162 9.36834 17.9974 10.5747 17.5433 11.6711C17.0892 12.7675 16.3201 13.7045 15.3334 14.3638C14.3467 15.0231 13.1867 15.375 12 15.375C10.4087 15.375 8.88258 14.7429 7.75736 13.6176C6.63214 12.4924 6 10.9663 6 9.375Z" fill="white"/>
<path d="M13.5 13.125V11.25C13.5 11.1505 13.5395 11.0552 13.6098 10.9848C13.6802 10.9145 13.7755 10.875 13.875 10.875H15.75C15.8495 10.875 15.9448 10.8355 16.0152 10.7652C16.0855 10.6948 16.125 10.5995 16.125 10.5V8.25C16.125 8.15054 16.0855 8.05516 16.0152 7.98483C15.9448 7.91451 15.8495 7.875 15.75 7.875H13.875C13.7755 7.875 13.6802 7.83549 13.6098 7.76517C13.5395 7.69484 13.5 7.59946 13.5 7.5V5.625C13.5 5.52554 13.4605 5.43016 13.3902 5.35984C13.3198 5.28951 13.2245 5.25 13.125 5.25H10.875C10.7755 5.25 10.6802 5.28951 10.6098 5.35984C10.5395 5.43016 10.5 5.52554 10.5 5.625V7.5C10.5 7.59946 10.4605 7.69484 10.3902 7.76517C10.3198 7.83549 10.2245 7.875 10.125 7.875H8.25C8.15054 7.875 8.05516 7.91451 7.98483 7.98483C7.91451 8.05516 7.875 8.15054 7.875 8.25V10.5C7.875 10.5995 7.91451 10.6948 7.98483 10.7652C8.05516 10.8355 8.15054 10.875 8.25 10.875H10.125C10.2245 10.875 10.3198 10.9145 10.3902 10.9848C10.4605 11.0552 10.5 11.1505 10.5 11.25V13.125C10.5 13.2245 10.5395 13.3198 10.6098 13.3902C10.6802 13.4605 10.7755 13.5 10.875 13.5H13.125C13.2245 13.5 13.3198 13.4605 13.3902 13.3902C13.4605 13.3198 13.5 13.2245 13.5 13.125Z" fill="white"/>
<path d="M12 23.0666C11.8946 23.0665 11.7904 23.0442 11.6941 23.0011C11.5979 22.958 11.5119 22.8951 11.4416 22.8165C9.54938 20.7 3.375 13.4775 3.375 9.375C3.375 7.08751 4.2837 4.89371 5.9012 3.2762C7.51871 1.6587 9.71251 0.75 12 0.75C14.2875 0.75 16.4813 1.6587 18.0988 3.2762C19.7163 4.89371 20.625 7.08751 20.625 9.375C20.625 13.4775 14.4506 20.7 12.5584 22.8165C12.4881 22.8951 12.4021 22.958 12.3059 23.0011C12.2096 23.0442 12.1054 23.0665 12 23.0666ZM12 1.5C9.91212 1.50228 7.91041 2.3327 6.43406 3.80906C4.9577 5.28541 4.12728 7.28712 4.125 9.375C4.125 13.3106 10.6875 20.8459 12 22.3166C13.3144 20.8459 19.875 13.3106 19.875 9.375C19.8727 7.28712 19.0423 5.28541 17.5659 3.80906C16.0896 2.3327 14.0879 1.50228 12 1.5Z" fill="#072568"/>
<path d="M12 15.75C10.7391 15.75 9.50661 15.3761 8.45824 14.6756C7.40988 13.9751 6.59278 12.9795 6.11027 11.8146C5.62776 10.6497 5.50152 9.36793 5.7475 8.1313C5.99348 6.89467 6.60064 5.75876 7.4922 4.8672C8.38376 3.97564 9.51967 3.36848 10.7563 3.1225C11.9929 2.87652 13.2747 3.00276 14.4396 3.48527C15.6045 3.96778 16.6001 4.78488 17.3006 5.83324C18.0011 6.88161 18.375 8.11415 18.375 9.375C18.3731 11.0652 17.7009 12.6856 16.5057 13.8807C15.3106 15.0759 13.6902 15.7481 12 15.75ZM12 3.75C10.8875 3.75 9.79995 4.0799 8.87492 4.69799C7.94989 5.31607 7.22892 6.19457 6.80318 7.22241C6.37744 8.25024 6.26604 9.38124 6.48309 10.4724C6.70013 11.5635 7.23586 12.5658 8.02253 13.3525C8.8092 14.1391 9.81148 14.6749 10.9026 14.8919C11.9938 15.109 13.1248 14.9976 14.1526 14.5718C15.1804 14.1461 16.0589 13.4251 16.677 12.5001C17.2951 11.5751 17.625 10.4875 17.625 9.375C17.6233 7.88368 17.0301 6.45392 15.9756 5.39939C14.9211 4.34486 13.4913 3.75169 12 3.75Z" fill="#072568"/>
<path d="M15.75 7.5H13.875V5.625C13.875 5.42609 13.796 5.23532 13.6553 5.09467C13.5147 4.95402 13.3239 4.875 13.125 4.875H10.875C10.6761 4.875 10.4853 4.95402 10.3447 5.09467C10.204 5.23532 10.125 5.42609 10.125 5.625V7.5H8.25C8.05109 7.5 7.86032 7.57902 7.71967 7.71967C7.57902 7.86032 7.5 8.05109 7.5 8.25V10.5C7.5 10.6989 7.57902 10.8897 7.71967 11.0303C7.86032 11.171 8.05109 11.25 8.25 11.25H10.125V13.125C10.125 13.3239 10.204 13.5147 10.3447 13.6553C10.4853 13.796 10.6761 13.875 10.875 13.875H13.125C13.3239 13.875 13.5147 13.796 13.6553 13.6553C13.796 13.5147 13.875 13.3239 13.875 13.125V11.25H15.75C15.9489 11.25 16.1397 11.171 16.2803 11.0303C16.421 10.8897 16.5 10.6989 16.5 10.5V8.25C16.5 8.05109 16.421 7.86032 16.2803 7.71967C16.1397 7.57902 15.9489 7.5 15.75 7.5ZM15.75 10.5H13.875C13.6761 10.5 13.4853 10.579 13.3447 10.7197C13.204 10.8603 13.125 11.0511 13.125 11.25V13.125H10.875V11.25C10.875 11.0511 10.796 10.8603 10.6553 10.7197C10.5147 10.579 10.3239 10.5 10.125 10.5H8.25V8.25H10.125C10.3239 8.25 10.5147 8.17098 10.6553 8.03033C10.796 7.88968 10.875 7.69891 10.875 7.5V5.625H13.125V7.5C13.125 7.69891 13.204 7.88968 13.3447 8.03033C13.4853 8.17098 13.6761 8.25 13.875 8.25H15.75V10.5Z" fill="#072568"/>
</svg>
