<svg width="24" height="24" viewBox="0 0 24 24" fill="none" xmlns="http://www.w3.org/2000/svg">
<path d="M14 2H6C5.46957 2 4.96086 2.21071 4.58579 2.58579C4.21071 2.96086 4 3.46957 4 4V20C4 20.5304 4.21071 21.0391 4.58579 21.4142C4.96086 21.7893 5.46957 22 6 22H18C18.5304 22 19.0391 21.7893 19.4142 21.4142C19.7893 21.0391 20 20.5304 20 20V8L14 2Z" stroke="white" stroke-width="1.4" stroke-linecap="round" stroke-linejoin="round"/>
<path d="M14 2V8H20" stroke="white" stroke-width="1.4" stroke-linecap="round" stroke-linejoin="round"/>
<path d="M13.5 17.625V15.75C13.5 15.6505 13.5395 15.5552 13.6098 15.4848C13.6802 15.4145 13.7755 15.375 13.875 15.375H15.75C15.8495 15.375 15.9448 15.3355 16.0152 15.2652C16.0855 15.1948 16.125 15.0995 16.125 15V12.75C16.125 12.6505 16.0855 12.5552 16.0152 12.4848C15.9448 12.4145 15.8495 12.375 15.75 12.375H13.875C13.7755 12.375 13.6802 12.3355 13.6098 12.2652C13.5395 12.1948 13.5 12.0995 13.5 12V10.125C13.5 10.0255 13.4605 9.93016 13.3902 9.85984C13.3198 9.78951 13.2245 9.75 13.125 9.75H10.875C10.7755 9.75 10.6802 9.78951 10.6098 9.85984C10.5395 9.93016 10.5 10.0255 10.5 10.125V12C10.5 12.0995 10.4605 12.1948 10.3902 12.2652C10.3198 12.3355 10.2245 12.375 10.125 12.375H8.25C8.15054 12.375 8.05516 12.4145 7.98483 12.4848C7.91451 12.5552 7.875 12.6505 7.875 12.75V15C7.875 15.0995 7.91451 15.1948 7.98483 15.2652C8.05516 15.3355 8.15054 15.375 8.25 15.375H10.125C10.2245 15.375 10.3198 15.4145 10.3902 15.4848C10.4605 15.5552 10.5 15.6505 10.5 15.75V17.625C10.5 17.7245 10.5395 17.8198 10.6098 17.8902C10.6802 17.9605 10.7755 18 10.875 18H13.125C13.2245 18 13.3198 17.9605 13.3902 17.8902C13.4605 17.8198 13.5 17.7245 13.5 17.625Z" fill="white"/>
</svg>
