<svg width="100" height="100" viewBox="0 0 100 100" fill="none" xmlns="http://www.w3.org/2000/svg">
<circle cx="50" cy="50" r="50" fill="#FCE6E3"/>
<path d="M37.8008 63.2725C35.2572 63.2725 32.9212 62.6756 30.7928 61.4816C28.6644 60.2876 26.9773 58.6395 25.7315 56.5371C24.4856 54.4087 23.8627 52.0078 23.8627 49.3344C23.8627 46.6869 24.4856 44.312 25.7315 42.2096C26.9773 40.0812 28.6644 38.4201 30.7928 37.2261C32.9212 36.0322 35.2572 35.4352 37.8008 35.4352C40.3704 35.4352 42.7064 36.0322 44.8088 37.2261C46.9372 38.4201 48.6113 40.0812 49.8312 42.2096C51.0771 44.312 51.7 46.6869 51.7 49.3344C51.7 52.0078 51.0771 54.4087 49.8312 56.5371C48.6113 58.6395 46.9372 60.2876 44.8088 61.4816C42.6804 62.6756 40.3444 63.2725 37.8008 63.2725ZM37.8008 58.4059C39.436 58.4059 40.8765 58.0425 42.1224 57.3157C43.3683 56.563 44.3416 55.4988 45.0424 54.1232C45.7432 52.7476 46.0936 51.1513 46.0936 49.3344C46.0936 47.5175 45.7432 45.9342 45.0424 44.5845C44.3416 43.2089 43.3683 42.1577 42.1224 41.4309C40.8765 40.7042 39.436 40.3408 37.8008 40.3408C36.1656 40.3408 34.7121 40.7042 33.4403 41.4309C32.1944 42.1577 31.2211 43.2089 30.5203 44.5845C29.8195 45.9342 29.4691 47.5175 29.4691 49.3344C29.4691 51.1513 29.8195 52.7476 30.5203 54.1232C31.2211 55.4988 32.1944 56.563 33.4403 57.3157C34.7121 58.0425 36.1656 58.4059 37.8008 58.4059ZM73.5477 35.8245V54.9019C73.5477 57.5493 72.782 59.6128 71.2506 61.0923C69.7192 62.5458 67.6688 63.2725 65.0992 63.2725C62.5036 63.2725 60.4012 62.5198 58.792 61.0144C57.2087 59.509 56.417 57.4066 56.417 54.7072H61.8677C61.8936 55.8752 62.1662 56.7836 62.6853 57.4325C63.2304 58.0814 64.009 58.4059 65.0213 58.4059C66.0076 58.4059 66.7603 58.0944 67.2794 57.4715C67.7985 56.8485 68.0581 55.992 68.0581 54.9019V35.8245H73.5477Z" fill="#072568"/>
</svg>
