<svg width="40" height="40" viewBox="0 0 40 40" fill="none" xmlns="http://www.w3.org/2000/svg">
<circle cx="20" cy="20" r="19" fill="#FCE6E3" stroke="#E1F2FF" stroke-width="2"/>
<path d="M15.1204 25.109C14.1029 25.109 13.1685 24.8702 12.3172 24.3926C11.4658 23.915 10.791 23.2557 10.2926 22.4148C9.7943 21.5634 9.54513 20.6031 9.54513 19.5337C9.54513 18.4747 9.7943 17.5247 10.2926 16.6838C10.791 15.8324 11.4658 15.168 12.3172 14.6904C13.1685 14.2128 14.1029 13.974 15.1204 13.974C16.1482 13.974 17.0826 14.2128 17.9236 14.6904C18.7749 15.168 19.4446 15.8324 19.9325 16.6838C20.4309 17.5247 20.6801 18.4747 20.6801 19.5337C20.6801 20.6031 20.4309 21.5634 19.9325 22.4148C19.4446 23.2557 18.7749 23.915 17.9236 24.3926C17.0722 24.8702 16.1378 25.109 15.1204 25.109ZM15.1204 23.1623C15.7745 23.1623 16.3507 23.0169 16.849 22.7262C17.3474 22.4251 17.7367 21.9995 18.017 21.4492C18.2973 20.899 18.4375 20.2605 18.4375 19.5337C18.4375 18.8069 18.2973 18.1736 18.017 17.6338C17.7367 17.0835 17.3474 16.663 16.849 16.3723C16.3507 16.0816 15.7745 15.9363 15.1204 15.9363C14.4663 15.9363 13.8849 16.0816 13.3762 16.3723C12.8778 16.663 12.4885 17.0835 12.2082 17.6338C11.9278 18.1736 11.7877 18.8069 11.7877 19.5337C11.7877 20.2605 11.9278 20.899 12.2082 21.4492C12.4885 21.9995 12.8778 22.4251 13.3762 22.7262C13.8849 23.0169 14.4663 23.1623 15.1204 23.1623ZM29.4191 14.1298V21.7607C29.4191 22.8197 29.1129 23.6451 28.5003 24.2368C27.8878 24.8183 27.0676 25.109 26.0397 25.109C25.0015 25.109 24.1605 24.8079 23.5168 24.2057C22.8835 23.6035 22.5669 22.7626 22.5669 21.6828H24.7471C24.7575 22.15 24.8665 22.5134 25.0742 22.773C25.2922 23.0325 25.6037 23.1623 26.0086 23.1623C26.4031 23.1623 26.7042 23.0377 26.9118 22.7885C27.1195 22.5394 27.2233 22.1967 27.2233 21.7607V14.1298H29.4191Z" fill="#072568"/>
</svg>
