<svg width="190" height="40" viewBox="0 0 190 40" fill="none" xmlns="http://www.w3.org/2000/svg">
<circle cx="20" cy="20" r="20" fill="#FCE6E3"/>
<path d="M25 11.6665H22.5C21.3949 11.6665 20.3351 12.1055 19.5537 12.8869C18.7723 13.6683 18.3333 14.7281 18.3333 15.8332V18.3332H15.8333V21.6665H18.3333V28.3332H21.6666V21.6665H24.1666L25 18.3332H21.6666V15.8332C21.6666 15.6122 21.7544 15.4002 21.9107 15.2439C22.067 15.0876 22.279 14.9998 22.5 14.9998H25V11.6665Z" fill="#072568"/>
<circle cx="70" cy="20" r="20" fill="#FCE6E3"/>
<path d="M79.1666 12.5001C78.3686 13.063 77.4851 13.4935 76.55 13.7751C76.0481 13.198 75.3811 12.789 74.6392 12.6034C73.8973 12.4177 73.1162 12.4644 72.4017 12.7371C71.6872 13.0098 71.0737 13.4954 70.6441 14.1282C70.2146 14.7609 69.9897 15.5104 70 16.2751V17.1084C68.5355 17.1464 67.0844 16.8216 65.7758 16.163C64.4673 15.5043 63.3419 14.5323 62.5 13.3334C62.5 13.3334 59.1666 20.8334 66.6666 24.1667C64.9504 25.3317 62.9059 25.9159 60.8333 25.8334C68.3333 30.0001 77.5 25.8334 77.5 16.2501C77.4992 16.018 77.4769 15.7864 77.4333 15.5584C78.2838 14.7197 78.884 13.6607 79.1666 12.5001Z" fill="#072568"/>
<circle cx="120" cy="20" r="20" fill="#FCE6E3"/>
<g clip-path="url(#clip0)">
<path d="M124.167 11.6665H115.833C113.532 11.6665 111.667 13.532 111.667 15.8332V24.1665C111.667 26.4677 113.532 28.3332 115.833 28.3332H124.167C126.468 28.3332 128.333 26.4677 128.333 24.1665V15.8332C128.333 13.532 126.468 11.6665 124.167 11.6665Z" stroke="#072568" stroke-width="1.7" stroke-linecap="round" stroke-linejoin="round"/>
<path d="M123.333 19.4753C123.436 20.1688 123.318 20.8771 122.995 21.4994C122.672 22.1218 122.161 22.6264 121.535 22.9416C120.908 23.2569 120.199 23.3666 119.507 23.2552C118.814 23.1438 118.175 22.817 117.679 22.3212C117.183 21.8255 116.856 21.186 116.745 20.4938C116.634 19.8015 116.743 19.0918 117.059 18.4656C117.374 17.8393 117.879 17.3284 118.501 17.0055C119.123 16.6825 119.832 16.5641 120.525 16.6669C121.232 16.7718 121.887 17.1015 122.393 17.6072C122.899 18.1129 123.228 18.7678 123.333 19.4753Z" stroke="#072568" stroke-width="1.7" stroke-linecap="round" stroke-linejoin="round"/>
</g>
<circle cx="170" cy="20" r="20" fill="#FCE6E3"/>
<path d="M173.333 16.6665C174.659 16.6665 175.931 17.1933 176.869 18.131C177.807 19.0687 178.333 20.3404 178.333 21.6665V27.4999H175V21.6665C175 21.2245 174.824 20.8006 174.512 20.488C174.199 20.1754 173.775 19.9999 173.333 19.9999C172.891 19.9999 172.467 20.1754 172.155 20.488C171.842 20.8006 171.667 21.2245 171.667 21.6665V27.4999H168.333V21.6665C168.333 20.3404 168.86 19.0687 169.798 18.131C170.736 17.1933 172.007 16.6665 173.333 16.6665Z" fill="#072568"/>
<path d="M165 17.5H161.667V27.5H165V17.5Z" fill="#072568"/>
<path d="M163.333 15.0003C164.254 15.0003 165 14.2541 165 13.3337C165 12.4132 164.254 11.667 163.333 11.667C162.413 11.667 161.667 12.4132 161.667 13.3337C161.667 14.2541 162.413 15.0003 163.333 15.0003Z" fill="#072568"/>
<defs>
<clipPath id="clip0">
<rect width="20" height="20" fill="white" transform="translate(110 10)"/>
</clipPath>
</defs>
</svg>
